<svg width="872" height="238" viewBox="0 0 872 238" fill="none" xmlns="http://www.w3.org/2000/svg">
<path d="M3.43357 174.01C2.77956 174.01 2.04379 173.517 1.22628 172.532C0.408759 171.382 0 170.479 0 169.822C0 169.33 0.490511 168.262 1.47153 166.62C2.61606 164.978 3.84233 163.09 5.15036 160.955C6.62189 158.82 7.92992 157.014 9.07444 155.536C13.162 149.625 17.0861 143.96 20.8467 138.541C24.6073 132.958 28.2861 127.457 31.8832 122.038C35.6438 116.455 39.4861 110.625 43.4102 104.55C47.3343 98.3097 51.5036 91.6593 55.9182 84.5984C56.2452 84.1058 56.4087 83.6131 56.4087 83.1205C56.4087 82.4637 55.5094 82.1353 53.7109 82.1353L29.4306 81.3963C27.1416 81.2321 25.016 81.7247 23.054 82.8742C21.0919 84.0237 19.6204 85.091 18.6394 86.0762C17.6584 87.0615 16.6774 88.1289 15.6963 89.2783C14.8788 90.4278 13.9795 91.6593 12.9985 92.973C12.181 94.2866 11.2817 95.6003 10.3007 96.914C9.4832 98.0634 8.66569 99.2129 7.84817 100.362C6.86715 101.348 5.55912 101.512 3.92408 100.855C2.45255 100.198 1.96204 99.2129 2.45255 97.8992C2.94306 96.4213 3.51533 94.2866 4.16934 91.4951C4.98686 88.5394 5.64087 85.5015 6.13138 82.3816C6.78539 79.2616 7.1124 76.7164 7.1124 74.7459C7.1124 73.4322 7.60291 72.3649 8.58393 71.5439C9.56495 70.7228 10.3007 70.3123 10.7912 70.3123C11.4452 70.3123 12.6715 71.0512 14.4701 72.5291C15.2876 73.1859 16.6774 73.5965 18.6394 73.7607C20.7649 73.9249 22.8905 74.007 25.016 74.007C26.8146 74.007 28.5314 74.007 30.1664 74.007C31.8014 73.8428 33.1912 73.7607 34.3357 73.7607C42.8379 73.7607 50.6861 73.6786 57.8802 73.5143C65.0744 73.3501 72.432 73.1859 79.9532 73.0217C80.4437 73.0217 80.8525 73.1859 81.1795 73.5143C81.5065 73.8428 81.7517 74.2533 81.9152 74.7459C82.0788 75.2385 81.997 75.6491 81.67 75.9775C80.035 78.1122 78.4817 80.0827 77.0101 81.8889C75.5386 83.6952 73.9853 85.8299 72.3503 88.2931L24.5255 160.955C23.8715 162.104 23.7898 163.008 24.2803 163.664C24.7708 164.321 25.5883 164.65 26.7328 164.65H55.6729C57.4715 164.65 59.27 164.157 61.0686 163.172C63.0306 162.187 64.9109 160.791 66.7094 158.985C68.6715 157.014 70.797 154.469 73.0861 151.349C75.3751 148.065 77.7459 144.616 80.1985 141.004C81.016 139.854 82.0787 139.526 83.3868 140.019C84.8583 140.511 85.5941 141.414 85.5941 142.728C85.5941 143.221 85.2671 144.781 84.613 147.408C83.959 149.871 83.1415 152.745 82.1605 156.029C81.343 159.149 80.5255 162.104 79.708 164.896C79.0539 167.688 78.5634 169.576 78.2364 170.561C77.7459 172.86 76.4379 174.01 74.3123 174.01C70.7153 174.01 64.5839 173.763 55.9182 173.271C47.416 172.942 36.4613 172.778 23.054 172.778C19.6204 172.778 16.0233 172.942 12.2628 173.271C8.50218 173.763 5.55912 174.01 3.43357 174.01ZM43.1649 60.7061C42.1839 60.7061 41.2846 60.2135 40.4671 59.2283C39.6496 58.243 38.9138 57.2578 38.2598 56.2725C37.1153 54.302 35.3168 51.3463 32.8642 47.4053C30.5752 43.3001 28.1226 39.0307 25.5065 34.5971C23.054 30.1635 20.9284 26.2225 19.1299 22.7741C17.4949 19.3258 16.6774 17.191 16.6774 16.37C16.6774 15.2206 16.7591 14.3995 16.9226 13.9069C17.0861 13.4143 17.7401 13.168 18.8847 13.168C19.8657 13.168 21.0919 13.8248 22.5635 15.1385C24.035 16.2879 25.2613 17.4374 26.2423 18.5868C27.8773 20.3931 30.3299 23.431 33.6 27.7004C36.87 31.8056 39.8131 35.7465 42.4292 39.5233C42.7562 40.0159 43.0014 40.2623 43.1649 40.2623C43.4919 40.2623 43.8189 40.0159 44.1459 39.5233C46.9255 35.7465 49.8686 31.8056 52.9751 27.7004C56.2452 23.431 58.6978 20.3931 60.3328 18.5868C61.3138 17.4374 62.4583 16.2879 63.7664 15.1385C65.2379 13.8248 66.4642 13.168 67.4452 13.168C68.5897 13.168 69.2437 13.4143 69.4072 13.9069C69.5707 14.3995 69.6525 15.2206 69.6525 16.37C69.6525 17.191 68.7532 19.3258 66.9547 22.7741C65.3196 26.2225 63.1941 30.1635 60.578 34.5971C58.1255 39.0307 55.7547 43.3001 53.4656 47.4053C51.1766 51.3463 49.3781 54.302 48.07 56.2725C47.416 57.2578 46.6802 58.243 45.8627 59.2283C45.0452 60.2135 44.1459 60.7061 43.1649 60.7061Z" fill="black"/>
<path d="M294.988 175.421C292.159 175.421 289.251 174.323 286.265 172.129C283.436 169.934 281 167.269 278.957 164.133C277.072 160.998 276.129 158.02 276.129 155.198C276.129 150.181 277.464 146.262 280.136 143.44C282.808 140.619 287.051 138.032 292.866 135.68L316.911 125.804C320.054 124.55 321.862 123.453 322.333 122.512C322.962 121.572 323.355 119.534 323.512 116.398L323.983 101.349C324.14 97.2729 322.962 93.7457 320.447 90.7671C318.09 87.7886 314.632 86.2993 310.075 86.2993C307.717 86.2993 305.36 86.6912 303.003 87.475C300.645 88.2589 298.681 89.2778 297.109 90.532C296.166 91.159 295.538 92.0996 295.223 93.3538C294.909 94.6079 294.752 95.9404 294.752 97.3513C294.752 97.9783 294.752 98.6838 294.752 99.4676C294.909 100.251 294.988 100.957 294.988 101.584C294.988 102.368 293.966 103.465 291.923 104.876C290.037 106.13 287.837 107.306 285.322 108.403C282.965 109.344 281 109.814 279.429 109.814C278.643 109.814 278.014 109.657 277.543 109.344C277.072 108.874 276.836 108.325 276.836 107.698C276.836 105.19 277.622 102.525 279.193 99.7028C280.922 96.7242 283.279 93.9808 286.265 91.4726C289.88 88.1805 293.809 85.2803 298.052 82.7721C302.295 80.2638 306.46 78.3042 310.546 76.8934C314.632 75.4825 318.247 74.777 321.39 74.777C327.048 74.777 331.684 76.815 335.299 80.8909C339.071 84.81 340.878 89.7481 340.721 95.7052L339.542 152.141C339.385 155.433 340.092 158.098 341.664 160.136C343.392 162.174 345.514 163.193 348.029 163.193C351.958 163.193 354.865 162.331 356.751 160.606C357.537 159.822 358.165 159.43 358.637 159.43C359.423 159.43 360.051 159.666 360.523 160.136C360.994 160.606 361.23 161.233 361.23 162.017C361.23 163.742 360.366 165.466 358.637 167.19C356.122 169.699 353.372 171.658 350.386 173.069C347.557 174.637 344.885 175.421 342.371 175.421C335.142 175.421 329.405 171.345 325.162 163.193H324.455C319.269 167.426 314.318 170.482 309.603 172.364C304.889 174.402 300.017 175.421 294.988 175.421ZM306.067 164.133C309.21 164.133 311.882 163.663 314.082 162.723C316.283 161.625 318.247 160.214 319.976 158.49C320.762 157.706 321.39 156.687 321.862 155.433C322.49 154.022 322.883 151.827 323.04 148.849L323.512 137.327C323.669 135.602 323.59 134.348 323.276 133.564C322.962 132.78 322.333 132.388 321.39 132.388C321.076 132.388 320.526 132.467 319.74 132.624C318.954 132.78 317.933 133.094 316.675 133.564C308.346 136.543 302.531 139.678 299.231 142.97C296.088 146.105 294.516 149.006 294.516 151.671C294.516 155.746 295.695 158.882 298.052 161.077C300.567 163.115 303.238 164.133 306.067 164.133ZM312.668 213.515C309.368 213.515 306.539 212.339 304.181 209.987C301.981 207.793 300.881 205.049 300.881 201.757C300.881 198.308 301.981 195.408 304.181 193.057C306.539 190.862 309.368 189.765 312.668 189.765C316.125 189.765 318.954 190.862 321.154 193.057C323.512 195.408 324.691 198.308 324.691 201.757C324.691 205.049 323.512 207.793 321.154 209.987C318.954 212.339 316.125 213.515 312.668 213.515ZM314.79 59.7275C310.703 59.7275 307.089 59.0221 303.946 57.6112C300.802 56.0435 298.131 54.084 295.931 51.7325C293.887 49.2242 292.316 46.5592 291.216 43.7374C290.116 40.7589 289.566 37.7803 289.566 34.8018C289.566 33.2341 289.88 31.9016 290.509 30.8042C291.137 29.7069 292.002 29.1582 293.102 29.1582C294.359 29.1582 295.223 29.7069 295.695 30.8042C296.166 31.7448 296.481 32.8422 296.638 34.0963C297.266 37.0749 298.995 39.7399 301.824 42.0914C304.653 44.4429 308.975 45.6186 314.79 45.6186C320.762 45.6186 325.083 44.4429 327.755 42.0914C330.584 39.7399 332.313 37.0749 332.941 34.0963C333.256 32.8422 333.649 31.7448 334.12 30.8042C334.592 29.7069 335.377 29.1582 336.477 29.1582C337.735 29.1582 338.599 29.7069 339.071 30.8042C339.699 31.9016 340.014 33.2341 340.014 34.8018C340.014 37.7803 339.463 40.7589 338.363 43.7374C337.263 46.5592 335.613 49.2242 333.413 51.7325C331.37 54.084 328.777 56.0435 325.634 57.6112C322.49 59.0221 318.876 59.7275 314.79 59.7275Z" fill="black"/>
<path d="M267.406 201.522H361.466V213.28H267.406V201.522Z" fill="black"/>
<path d="M713.23 68.0819C710.227 68.0819 706.987 67.2151 703.51 65.4815C700.191 63.5903 697.347 61.0688 694.976 57.9169C692.605 54.6073 691.42 50.825 691.42 46.5699C691.42 41.6844 693.317 37.5081 697.11 34.0409C700.903 30.5738 705.17 28.8402 709.911 28.8402C713.388 28.8402 715.916 29.5494 717.497 30.9678C719.077 32.3862 719.867 34.0409 719.867 35.9321C719.867 38.4536 718.998 40.266 717.26 41.3692C715.521 42.3148 713.546 43.024 711.333 43.4967C709.279 43.9695 707.303 44.8363 705.407 46.0971C703.668 47.3579 702.799 49.1702 702.799 51.5342C702.799 54.2133 703.826 56.5773 705.881 58.626C707.935 60.6748 710.701 62.3296 714.178 63.5903C716.074 64.2207 717.023 65.0087 717.023 65.9543C717.023 67.3727 715.758 68.0819 713.23 68.0819ZM679.804 174.46C674.747 174.46 670.322 173.12 666.529 170.441C662.894 167.762 659.891 164.374 657.521 160.276C655.15 156.021 653.332 151.608 652.068 147.038C650.962 142.31 650.409 137.897 650.409 133.8C650.409 124.817 651.752 116.622 654.439 109.215C657.283 101.808 660.681 95.4249 664.632 90.0666C668.741 84.7083 672.613 80.6108 676.248 77.7741C679.883 74.7797 682.491 73.2826 684.071 73.2826C685.336 73.2826 686.6 73.7553 687.864 74.7009C689.129 75.6465 690.235 76.8285 691.183 78.2469C692.131 79.6652 692.605 81.0048 692.605 82.2656C692.605 82.7384 692.052 83.5264 690.946 84.6295C689.84 85.7327 688.338 87.1511 686.442 88.8846C684.703 90.4606 682.649 92.3518 680.278 94.5581C676.801 97.8677 673.404 101.886 670.085 106.614C666.766 111.342 664 116.385 661.788 121.744C659.733 127.102 658.706 132.539 658.706 138.055C658.706 141.207 659.18 144.438 660.128 147.747C661.234 150.899 662.815 153.578 664.869 155.785C667.082 157.833 669.848 158.858 673.166 158.858C679.33 158.858 684.466 157.912 688.575 156.021C692.684 153.972 695.766 151.293 697.821 147.983C700.033 144.674 701.14 140.813 701.14 136.4C701.14 133.721 700.507 130.49 699.243 126.708C698.137 122.768 697.584 119.537 697.584 117.016C697.584 114.494 698.848 112.288 701.377 110.397C703.905 108.348 706.671 107.323 709.674 107.323C711.886 107.323 714.02 108.19 716.074 109.924C718.129 111.657 719.156 114.021 719.156 117.016C719.156 120.01 718.445 123.871 717.023 128.599C715.758 133.169 714.494 137.188 713.23 140.655C713.072 141.286 713.072 142.389 713.23 143.965C713.388 145.541 713.546 146.723 713.704 147.511C714.336 150.032 715.521 152.711 717.26 155.548C718.998 158.227 722.238 159.567 726.979 159.567C733.143 159.567 737.963 157.518 741.44 153.421C744.917 149.165 747.366 143.965 748.789 137.818C750.369 131.515 751.159 125.29 751.159 119.143C751.159 111.579 750.29 105.196 748.552 99.9952C746.971 94.7945 745.075 90.5394 742.862 87.2299C740.65 83.9203 738.674 81.4776 736.936 79.9016C735.355 78.1681 734.565 77.1437 734.565 76.8285C734.565 76.0405 734.723 75.2525 735.039 74.4645C735.513 73.6765 736.066 73.2826 736.699 73.2826C740.492 73.2826 744.206 74.7797 747.84 77.7741C751.475 80.7684 754.715 84.7083 757.56 89.5938C760.405 94.4793 762.696 99.9164 764.435 105.905C766.173 111.894 767.042 117.882 767.042 123.871C767.042 132.066 765.462 140.104 762.301 147.983C759.298 155.706 754.873 162.088 749.026 167.132C743.336 172.175 736.383 174.696 728.164 174.696C724.846 174.696 721.764 173.357 718.919 170.677C716.232 167.841 714.02 164.846 712.281 161.694C710.543 158.542 709.358 156.257 708.726 154.839C708.093 153.421 707.303 153.342 706.355 154.603C705.249 156.021 703.589 158.306 701.377 161.458C699.322 164.61 696.477 167.604 692.842 170.441C689.366 173.12 685.02 174.46 679.804 174.46ZM680.515 30.495C679.409 30.495 678.461 30.1798 677.671 29.5494C677.038 28.919 676.722 28.0522 676.722 26.9491C676.722 26.3187 677.434 24.9791 678.856 22.9303C680.436 20.8816 682.333 18.6752 684.545 16.3113C686.916 13.9473 689.208 11.8986 691.42 10.165C693.791 8.43143 695.687 7.56465 697.11 7.56465C699.796 7.56465 701.93 7.72225 703.51 8.03744C705.091 8.19504 706.987 8.43144 709.2 8.74663C711.886 8.90422 714.257 9.14062 716.311 9.45582C718.366 9.61341 720.421 9.69221 722.475 9.69221C724.213 9.69221 725.952 9.14062 727.69 8.03744C729.587 6.77667 731.088 5.59469 732.195 4.49151C733.617 2.91554 734.644 1.81236 735.276 1.18198C736.066 0.393992 736.699 0 737.173 0C738.437 0 739.464 0.393992 740.255 1.18198C741.203 1.81236 741.677 2.75795 741.677 4.01873C741.677 4.49151 741.282 5.12189 740.492 5.90988C739.701 6.69787 738.832 7.56466 737.884 8.51024C735.987 10.4014 734.17 12.4501 732.432 14.6565C730.693 16.7053 729.034 18.6752 727.453 20.5664C726.505 21.6696 725.241 22.5364 723.66 23.1667C722.08 23.6395 721.053 23.8759 720.579 23.8759C719.63 23.8759 718.129 23.7971 716.074 23.6395C714.02 23.4819 711.728 23.2455 709.2 22.9303C706.671 22.6152 704.063 22.3788 701.377 22.2212C698.848 22.0636 696.477 21.9848 694.265 21.9848C692.684 21.9848 691.183 22.3 689.761 22.9303C688.496 23.5607 687.232 24.5063 685.968 25.7671C684.861 26.7127 683.755 27.7371 682.649 28.8402C681.701 29.9434 680.989 30.495 680.515 30.495ZM712.756 222.921C708.805 222.921 705.486 221.266 702.799 217.956C700.112 214.647 698.769 210.077 698.769 204.246C698.769 197.627 699.322 193.293 700.428 191.244C701.535 189.195 703.115 188.013 705.17 187.698L712.519 187.225C715.205 186.91 716.39 187.777 716.074 189.825C715.442 195.026 715.205 199.754 715.363 204.009C715.521 208.422 716.944 210.707 719.63 210.865C721.527 211.022 723.186 210.786 724.609 210.155C726.189 209.525 727.137 209.21 727.453 209.21C729.034 209.21 729.824 209.919 729.824 211.337C729.824 212.913 729.113 214.568 727.69 216.302C726.426 218.193 724.53 219.769 722.001 221.03C719.472 222.29 716.39 222.921 712.756 222.921Z" fill="black"/>
<path d="M556.283 174.01C555.973 174.01 555.432 173.382 554.658 172.126C554.039 170.87 553.42 169.536 552.801 168.123C552.336 166.553 551.949 165.454 551.64 164.826L523.318 91.3499C522.235 88.5239 520.764 86.0904 518.907 84.0495C517.05 81.8515 514.961 80.4385 512.639 79.8105C511.401 79.3395 510.163 78.79 508.925 78.162C507.841 77.534 507.3 76.6705 507.3 75.5715C507.3 74.6295 507.841 74.08 508.925 73.923C510.163 73.609 511.169 73.452 511.943 73.452C515.193 73.452 517.514 73.5305 518.907 73.6875C520.455 73.8445 521.848 74.08 523.086 74.394C524.479 74.551 526.413 74.6295 528.889 74.6295C531.366 74.6295 533.3 74.551 534.693 74.394C536.086 74.08 537.556 73.8445 539.104 73.6875C540.806 73.5305 543.205 73.452 546.3 73.452C547.074 73.452 548.003 73.609 549.086 73.923C550.324 74.08 550.943 74.6295 550.943 75.5715C550.943 76.6705 550.324 77.534 549.086 78.162C548.003 78.79 546.842 79.3395 545.604 79.8105C542.818 80.5955 541.193 82.558 540.729 85.6979C540.265 88.8379 540.652 92.2134 541.89 95.8244L559.765 144.573C561.003 148.027 561.932 148.105 562.551 144.808C563.479 139.941 564.795 134.289 566.497 127.852C568.354 121.258 570.521 114.507 572.997 107.599C575.628 100.691 578.491 94.3329 581.587 88.5239C584.682 82.558 588.087 77.7695 591.801 74.1585C595.516 70.3905 599.462 68.5065 603.641 68.5065C608.129 68.5065 611.379 69.37 613.391 71.097C615.403 72.824 616.409 74.7865 616.409 76.9845C616.409 80.1245 615.635 83.186 614.087 86.1689C612.694 88.9949 610.837 90.4079 608.516 90.4079C607.278 90.4079 606.117 90.2509 605.034 89.9369C603.95 89.6229 602.944 89.3089 602.016 88.9949C600.932 88.6809 599.926 88.3669 598.998 88.0529C598.069 87.7389 597.218 87.5819 596.444 87.5819C594.123 87.5819 591.492 89.8584 588.551 94.4114C585.765 98.8074 582.98 104.695 580.194 112.074C577.408 119.296 574.777 127.381 572.301 136.33C569.979 145.279 567.967 154.228 566.265 163.177C565.956 165.061 565.027 166.867 563.479 168.594C562.086 170.164 560.616 171.42 559.069 172.362C557.676 173.461 556.747 174.01 556.283 174.01ZM583.444 61.4415C582.515 61.4415 581.277 60.892 579.73 59.7931C578.337 58.5371 577.253 57.3596 576.48 56.2606C574.932 54.0626 572.843 51.0796 570.212 47.3116C567.735 43.5436 565.182 39.6971 562.551 35.7722C559.92 31.6902 557.753 28.3932 556.051 25.8812C555.432 24.7822 554.89 23.8402 554.426 23.0552C554.116 22.2702 553.961 21.7207 553.961 21.4067C553.961 19.5227 555.045 18.1882 557.211 17.4032C559.533 16.4612 561.932 15.9902 564.408 15.9902C566.575 15.9902 568.122 16.3827 569.051 17.1677C570.134 17.9527 570.985 18.9732 571.604 20.2292C572.688 22.2702 574.003 25.4102 575.551 29.6492C577.253 33.7312 578.956 37.9702 580.658 42.3661C582.361 46.7621 583.599 50.4516 584.372 53.4346C585.146 56.1036 585.533 57.7521 585.533 58.3801C585.533 59.4791 585.456 60.2641 585.301 60.735C585.146 61.206 584.527 61.4415 583.444 61.4415ZM551.176 61.4415C550.247 61.4415 549.009 60.892 547.461 59.7931C546.068 58.5371 544.985 57.3596 544.211 56.2606C542.663 54.0626 540.574 51.1581 537.943 47.5471C535.312 43.7791 532.681 40.0111 530.05 36.2432C527.574 32.3182 525.562 29.0212 524.014 26.3522C523.395 25.0962 522.854 24.0757 522.389 23.2907C521.925 22.3487 521.693 21.7207 521.693 21.4067C521.693 19.5227 522.854 18.1882 525.175 17.4032C527.497 16.4612 530.128 15.9902 533.068 15.9902C534.77 15.9902 536.086 16.3827 537.015 17.1677C537.943 17.9527 538.717 18.9732 539.336 20.2292C540.419 22.2702 541.735 25.3317 543.283 29.4137C544.985 33.4957 546.687 37.7346 548.39 42.1306C550.092 46.3696 551.33 50.0591 552.104 53.1991C552.878 56.0251 553.265 57.7521 553.265 58.3801C553.265 59.4791 553.187 60.2641 553.033 60.735C552.878 61.206 552.259 61.4415 551.176 61.4415Z" fill="black"/>
<path d="M198.19 173.802C197.101 173.802 196.557 173.185 196.557 171.95C196.557 170.408 196.713 168.171 197.024 165.239C197.49 162.154 197.723 159.608 197.723 157.603C197.723 157.294 197.723 157.063 197.723 156.908C197.723 156.6 197.723 156.368 197.723 156.214C191.66 162.077 185.518 166.319 179.299 168.942C173.235 171.41 166.549 172.645 159.242 172.645C154.266 172.645 149.757 171.565 145.715 169.405C141.672 167.399 138.485 164.391 136.153 160.38C133.821 156.214 132.655 151.123 132.655 145.106V98.1287C132.655 94.7346 131.877 92.0347 130.322 90.0291C128.768 88.0235 126.202 86.3265 122.626 84.938C121.849 84.6294 121.149 84.2437 120.527 83.7809C119.905 83.3181 119.594 82.4696 119.594 81.2353C119.594 79.8468 119.905 78.9212 120.527 78.4583C121.305 77.9955 122.16 77.687 123.093 77.5327C128.379 77.2241 132.421 76.8384 135.22 76.3756C138.174 75.7585 141.828 74.91 146.181 73.83C146.648 73.6757 146.959 73.5986 147.114 73.5986C147.425 73.5986 147.736 73.5986 148.047 73.5986C149.757 73.5986 150.535 74.6785 150.379 76.8384C149.913 80.3868 149.524 83.3952 149.213 85.8637C149.058 88.1778 148.98 91.1091 148.98 94.6575V139.784C148.98 143.486 149.913 146.957 151.779 150.197C153.645 153.283 156.054 155.828 159.009 157.834C162.118 159.84 165.306 160.842 168.571 160.842C172.613 160.842 176.111 160.611 179.066 160.148C182.175 159.685 185.207 158.374 188.161 156.214C189.872 154.98 192.048 152.974 194.691 150.197C197.335 147.42 198.656 143.641 198.656 138.858V96.5088C198.656 93.269 197.646 90.8777 195.624 89.3349C193.759 87.6378 191.582 86.4808 189.094 85.8637C186.606 85.2465 184.585 84.938 183.03 84.938C181.631 84.938 180.465 84.7066 179.532 84.2437C178.599 83.6266 178.133 82.5467 178.133 81.0039C178.133 79.6154 178.599 78.6898 179.532 78.2269C180.62 77.7641 181.787 77.5327 183.03 77.5327C187.85 77.3784 191.815 77.2241 194.925 77.0698C198.19 76.7613 201.066 76.3756 203.554 75.9128C206.197 75.2957 208.918 74.6014 211.717 73.83C212.028 73.6757 212.416 73.5986 212.883 73.5986C213.349 73.4443 213.738 73.3672 214.049 73.3672C216.07 73.3672 217.081 74.2157 217.081 75.9128C217.081 76.067 217.003 76.3756 216.847 76.8384C216.847 77.147 216.77 77.5327 216.614 77.9955C216.459 78.4583 216.226 79.7697 215.915 81.9296C215.759 84.0895 215.526 86.3265 215.215 88.6406C215.059 90.9548 214.982 92.729 214.982 93.9632V147.42C214.982 151.586 215.37 154.594 216.148 156.446C217.081 158.143 218.091 158.991 219.18 158.991C220.423 158.991 222.212 158.914 224.544 158.76C227.031 158.451 228.819 158.297 229.908 158.297C230.685 158.297 231.463 158.451 232.24 158.76C233.017 159.068 233.406 159.917 233.406 161.305C233.406 162.539 233.095 163.388 232.473 163.851C231.851 164.159 231.074 164.391 230.141 164.545C224.077 165.316 218.869 166.474 214.515 168.016C210.162 169.559 206.275 171.025 202.854 172.413C202.388 172.568 201.688 172.799 200.755 173.107C199.822 173.57 198.967 173.802 198.19 173.802Z" fill="black"/>
<path d="M172.73 189.075C176.773 189.075 180.349 189.769 183.459 191.158C186.568 192.701 189.134 194.629 191.155 196.943C193.332 199.412 194.964 202.034 196.052 204.811C197.141 207.743 197.685 210.674 197.685 213.605C197.685 215.148 197.374 216.459 196.752 217.539C196.286 218.619 195.431 219.159 194.187 219.159C193.098 219.159 192.321 218.619 191.855 217.539C191.388 216.459 190.999 215.379 190.688 214.3C190.066 211.368 188.356 208.746 185.558 206.431C182.914 204.117 178.639 202.96 172.73 202.96C166.978 202.96 162.702 204.117 159.903 206.431C157.105 208.746 155.394 211.368 154.772 214.3C154.617 215.379 154.306 216.459 153.839 217.539C153.373 218.619 152.518 219.159 151.274 219.159C150.186 219.159 149.331 218.619 148.709 217.539C148.087 216.459 147.776 215.148 147.776 213.605C147.776 210.674 148.32 207.743 149.408 204.811C150.497 202.034 152.129 199.412 154.306 196.943C156.327 194.629 158.893 192.701 162.002 191.158C165.112 189.769 168.688 189.075 172.73 189.075Z" fill="black"/>
<path d="M446.963 65.3708C443.985 65.3708 441.085 64.6653 438.263 63.2544C435.441 61.8435 432.933 59.9624 430.738 57.6109C428.7 55.1026 427.054 52.3592 425.8 49.3807C424.546 46.4021 423.919 43.3452 423.919 40.2099C423.919 34.7231 425.408 29.9417 428.387 25.8658C431.365 21.7899 435.755 19.752 441.555 19.752C444.377 19.752 446.885 20.6142 449.08 22.3386C451.274 23.9062 452.372 26.0226 452.372 28.6876C452.372 31.3526 451.51 33.469 449.785 35.0366C448.217 36.6043 446.258 37.5449 443.906 37.8584C441.398 38.0152 439.439 38.8774 438.028 40.445C436.617 41.8559 435.911 43.7371 435.911 46.0886C435.911 49.5374 437.165 52.516 439.674 55.0242C442.182 57.3757 445.082 59.0218 448.374 59.9624C450.569 60.4327 451.666 61.4516 451.666 63.0193C451.666 64.5869 450.099 65.3708 446.963 65.3708ZM409.104 237.5C406.753 237.5 404.48 237.029 402.285 236.089C400.247 235.305 398.601 233.972 397.347 232.091C396.093 230.367 395.466 228.172 395.466 225.507C395.466 224.566 395.466 221.745 395.466 217.042C395.466 212.495 395.466 206.852 395.466 200.111C395.623 193.37 395.701 186.08 395.701 178.242C395.858 170.561 395.936 163.036 395.936 155.668C396.093 148.3 396.171 141.716 396.171 135.915C396.171 129.958 396.171 125.49 396.171 122.512C396.171 112.949 397.896 104.484 401.345 97.1158C404.793 89.7478 409.653 83.9475 415.924 79.7148C422.351 75.3254 429.876 73.1307 438.498 73.1307C446.336 73.1307 452.842 75.4822 458.015 80.1851C463.189 84.8881 467.029 91.002 469.538 98.5267C472.046 105.895 473.3 113.576 473.3 121.571C473.3 131.761 471.34 140.853 467.421 148.848C463.659 156.687 458.564 162.801 452.137 167.19C445.866 171.58 438.968 173.774 431.444 173.774C429.876 173.774 427.76 172.99 425.095 171.423C422.43 170.012 419.765 168.209 417.099 166.014C414.591 163.82 412.397 161.782 410.515 159.9C409.731 158.96 409.104 159.117 408.634 160.371C408.164 161.625 407.929 163.271 407.929 165.309C407.929 168.758 408.007 172.52 408.164 176.596C408.477 180.672 408.791 184.748 409.104 188.824C409.732 195.565 410.437 201.992 411.221 208.106C412.161 214.22 413.024 219.393 413.807 223.626C414.591 228.015 414.983 230.915 414.983 232.326C414.983 234.678 414.513 236.089 413.572 236.559C412.788 237.186 411.299 237.5 409.104 237.5ZM419.686 155.433C429.876 155.433 438.263 153.787 444.847 150.495C451.431 147.046 456.291 142.108 459.426 135.68C462.718 129.253 464.364 121.571 464.364 112.636C464.364 106.208 462.483 100.721 458.721 96.1752C455.115 91.629 450.099 89.3559 443.671 89.3559C437.557 89.3559 431.757 91.0803 426.27 94.5292C420.783 97.8213 416.316 103.543 412.867 111.695C409.418 119.847 407.694 131.212 407.694 145.792C407.694 147.986 408.948 150.181 411.456 152.376C414.121 154.414 416.864 155.433 419.686 155.433Z" fill="black"/>
<path d="M805.709 173.757C804.154 173.757 802.987 173.524 802.209 173.059C801.431 172.749 801.042 172.128 801.042 171.197C801.042 169.956 801.509 169.181 802.442 168.87C803.376 168.405 804.698 167.94 806.409 167.474C809.365 166.699 811.542 165.613 812.942 164.216C814.498 162.665 815.276 160.804 815.276 158.632V108.602C815.276 104.414 814.654 100.768 813.409 97.6657C812.165 94.5631 809.598 92.624 805.709 91.8483C805.087 91.6932 804.542 91.3053 804.076 90.6848C803.609 90.0643 803.376 89.4438 803.376 88.8233C803.376 87.272 804.076 86.3412 805.476 86.0309C809.52 84.7899 813.72 83.0059 818.076 80.6789C822.587 78.1969 826.087 76.1802 828.576 74.6289C829.509 74.0083 830.209 73.6205 830.676 73.4654C831.298 73.1551 831.765 73 832.076 73C832.854 73 833.242 73.543 833.242 74.6289C833.242 75.0943 833.165 76.2577 833.009 78.1193C833.009 79.9808 832.931 82.1527 832.776 84.6348C832.776 87.1168 832.698 89.5989 832.542 92.081C832.542 92.3913 832.698 92.5464 833.009 92.5464C835.498 89.4438 838.22 86.729 841.176 84.4021C844.287 82.0751 847.398 80.2135 850.509 78.8174C853.776 77.4212 856.887 76.7231 859.842 76.7231C863.109 76.7231 865.754 77.4212 867.776 78.8174C869.954 80.2135 871.042 81.9975 871.042 84.1694C871.042 85.7207 870.576 87.4271 869.642 89.2887C868.865 91.1502 867.776 92.7791 866.376 94.1753C864.976 95.5714 863.498 96.2695 861.942 96.2695C861.009 96.2695 859.998 96.1144 858.909 95.8041C857.82 95.3387 856.654 94.7958 855.409 94.1753C854.165 93.7099 852.92 93.2445 851.676 92.7791C850.431 92.3137 849.187 92.081 847.942 92.081C844.209 92.081 840.554 93.3996 836.976 96.0368C833.554 98.674 831.842 103.871 831.842 111.627V158.632C831.842 160.648 832.931 162.355 835.109 163.751C837.287 164.992 840.32 166.233 844.209 167.474C845.92 167.94 847.242 168.405 848.176 168.87C849.109 169.336 849.576 170.111 849.576 171.197C849.576 172.904 848.02 173.757 844.909 173.757C840.242 173.757 836.665 173.524 834.176 173.059C831.842 172.749 828.654 172.594 824.609 172.594C821.965 172.594 819.787 172.671 818.076 172.826C816.52 172.981 814.809 173.136 812.942 173.292C811.231 173.602 808.82 173.757 805.709 173.757Z" fill="black"/>
<path d="M824.565 231C819.432 231 814.999 229.061 811.265 225.183C807.532 221.304 805.665 216.806 805.665 211.686C805.665 208.273 806.677 205.093 808.699 202.146C810.565 199.198 813.054 196.794 816.165 194.932C819.277 193.071 822.543 192.14 825.965 192.14C831.099 192.14 835.532 193.846 839.265 197.259C842.999 200.827 844.865 205.171 844.865 210.29C844.865 214.324 843.854 217.892 841.832 220.994C839.965 224.097 837.477 226.501 834.365 228.208C831.254 230.069 827.988 231 824.565 231ZM826.199 224.95C829.777 224.95 832.188 223.709 833.432 221.227C834.677 218.745 835.299 215.642 835.299 211.919C835.299 208.661 834.21 205.559 832.032 202.611C829.854 199.819 827.132 198.423 823.865 198.423C820.599 198.423 818.343 199.586 817.099 201.913C815.854 204.395 815.232 207.265 815.232 210.523C815.232 214.401 816.243 217.736 818.265 220.529C820.288 223.476 822.932 224.95 826.199 224.95Z" fill="black"/>
</svg>
