<svg width="295" height="156" viewBox="0 0 295 156" fill="none" xmlns="http://www.w3.org/2000/svg">
<path d="M188.19 156C186.704 156 184.4 155.464 181.278 154.392C178.305 153.473 175.406 152.401 172.581 151.175C169.906 149.797 168.345 148.648 167.899 147.729C167.156 146.044 166.487 143.976 165.892 141.526C165.446 138.922 165.149 136.318 165 133.714C165 132.948 165.372 132.412 166.115 132.106C166.858 131.8 167.676 131.647 168.568 131.647C170.5 131.647 171.541 132.183 171.69 133.255C172.284 135.859 173.548 138.386 175.48 140.837C177.561 143.134 179.94 145.049 182.616 146.58C185.44 148.112 188.116 148.878 190.643 148.878C196.441 148.878 200.455 147.346 202.684 144.283C205.063 141.219 206.252 137.543 206.252 133.255C206.252 128.966 205.36 125.673 203.576 123.376C201.941 120.925 199.786 118.934 197.11 117.402C194.583 115.717 191.981 113.956 189.305 112.118C185.738 109.667 182.393 107.293 179.271 104.996C176.149 102.698 173.622 100.018 171.69 96.9543C169.906 93.891 169.014 89.9087 169.014 85.0074C169.014 78.268 170.649 72.6009 173.919 68.0059C177.338 63.4109 182.541 60.3476 189.528 58.8159C188.19 58.3564 186.927 56.9779 185.738 54.6804C184.697 52.2297 183.805 49.3962 183.062 46.1797C182.467 42.9632 182.17 39.8999 182.17 36.9897C182.17 30.2504 184.028 24.1237 187.744 18.6097C191.461 12.9426 196.664 8.42415 203.353 5.0545C210.043 1.68483 217.847 0 226.767 0C230.037 0 233.605 0.612667 237.47 1.838C241.484 3.06333 245.274 4.90132 248.842 7.35199C252.559 9.80265 255.532 12.866 257.762 16.542C260.14 20.0648 261.329 24.2769 261.329 29.1782L261.106 57.6672C261.106 58.7393 261.552 59.5817 262.444 60.1944C263.336 60.6539 264.525 60.8837 266.012 60.8837H292.324C292.919 60.8837 293.365 61.4963 293.662 62.7217C293.959 63.7938 294.108 65.0192 294.108 66.3977C294.108 67.7761 293.959 69.0781 293.662 70.3034C293.365 71.3755 292.919 71.9116 292.324 71.9116H269.357C265.343 71.9116 262.816 72.0648 261.775 72.3711C260.883 72.5243 260.437 73.4433 260.437 75.1281V128.2C260.437 132.795 261.998 136.854 265.12 140.377C268.391 143.9 272.033 145.661 276.046 145.661C280.952 145.661 284.52 145.125 286.75 144.053C288.979 142.981 290.986 141.756 292.77 140.377C293.513 139.918 294.034 140.071 294.331 140.837C294.777 141.602 295 142.445 295 143.364C295 143.67 294.926 143.976 294.777 144.283C294.777 144.436 294.703 144.666 294.554 144.972C293.959 146.044 292.324 147.499 289.648 149.337C286.973 151.022 283.776 152.554 280.06 153.932C276.344 155.311 272.553 156 268.688 156C262.444 156 256.87 153.932 251.964 149.797C247.207 145.508 244.828 140.147 244.828 133.714V75.8174C244.828 73.2135 243.268 71.9116 240.146 71.9116H237.47C237.024 71.7585 236.504 71.2224 235.909 70.3034C235.463 69.3844 235.24 68.542 235.24 67.7761C235.24 67.0103 235.463 66.5508 235.909 66.3977C240.666 64.4065 243.937 61.9558 245.72 59.0457C247.653 55.9823 248.842 53.3019 249.288 51.0044C249.734 48.8601 249.957 46.6392 249.957 44.3417C250.106 42.0442 250.18 39.8233 250.18 37.6789C250.18 32.3181 248.991 27.3402 246.612 22.7452C244.383 17.9971 241.261 14.1679 237.247 11.2577C233.382 8.34756 228.848 6.89248 223.645 6.89248C217.699 6.89248 212.05 8.27098 206.698 11.028C201.495 13.6318 197.258 17.3078 193.988 22.056C190.718 26.651 189.082 31.9352 189.082 37.9087C189.082 40.6657 189.38 43.5758 189.974 46.6392C190.718 49.7025 191.907 52.3063 193.542 54.4507C195.177 56.595 197.481 57.6672 200.455 57.6672C204.914 57.6672 208.556 58.1267 211.381 59.0457C214.205 59.9647 216.138 61.0368 217.178 62.2622C218.368 65.9382 219.185 69.1547 219.631 71.9116C220.077 74.6686 220.3 77.6554 220.3 80.8719C220.3 81.1782 220.152 81.408 219.854 81.5611C219.706 81.7143 219.483 81.7909 219.185 81.7909C217.996 81.7909 216.509 81.3314 214.726 80.4124C213.09 79.3402 212.124 78.268 211.827 77.1959C211.232 72.7541 209.448 69.9205 206.475 68.6951C203.502 67.3166 200.826 66.6274 198.448 66.6274C194.137 66.6274 190.42 67.9293 187.298 70.5331C184.325 72.9838 182.839 76.2003 182.839 80.1826C182.839 83.246 183.879 86.1561 185.961 88.9131C188.19 91.6701 190.792 94.1973 193.765 96.4948C196.738 98.6392 199.414 100.401 201.792 101.779C204.32 103.158 207.144 104.996 210.266 107.293C213.388 109.591 216.063 112.501 218.293 116.024C220.523 119.393 221.638 123.529 221.638 128.43C221.638 133.638 220.597 138.386 218.516 142.675C216.584 146.81 213.165 150.103 208.259 152.554C203.502 154.851 196.812 156 188.19 156Z" fill="black"/>
<path d="M3.87449 156C2.58299 156 1.61437 155.807 0.968622 155.42C0.322874 155.163 0 154.647 0 153.874C0 152.844 0.387449 152.2 1.16235 151.942C2.06639 151.556 3.16417 151.169 4.45566 150.783C6.39291 150.139 8.26558 149.237 10.0737 148.078C11.8818 146.789 12.7858 144.857 12.7858 142.281V87.7898C11.4943 87.7898 10.0091 87.7898 8.33015 87.7898C6.65121 87.661 4.77854 87.5322 2.71214 87.4034C2.32469 87.2746 1.74352 86.8237 0.968622 86.0508C0.322874 85.2779 0 84.5694 0 83.9253C0 83.6676 0.193724 83.4744 0.581173 83.3456C0.968622 83.0879 1.22692 82.8947 1.35607 82.7659C4.32651 81.9929 6.45748 81.22 7.74898 80.4471C9.16962 79.5454 10.8486 78.6436 12.7858 77.7419C12.7858 68.5957 14.1419 60.8021 16.854 54.3611C19.6953 47.9201 23.3115 42.7029 27.7026 38.7094C32.0937 34.716 36.7431 31.8176 41.6507 30.0141C46.5584 28.0818 51.1432 27.1157 55.4052 27.1157C62.6376 27.1157 68.3202 28.4683 72.4529 31.1735C76.5857 33.8787 78.6521 36.3907 78.6521 38.7094C78.6521 40.7706 77.8772 42.5096 76.3274 43.9267C74.9068 45.3437 73.2924 46.0522 71.4843 46.0522C70.322 46.0522 69.2242 45.6013 68.191 44.6996C67.287 43.7978 66.1892 42.7673 64.8977 41.6079C63.2187 39.9332 61.0878 38.4518 58.5048 37.1636C55.9218 35.7466 52.4993 35.0381 48.2374 35.0381C41.7799 35.0381 36.4848 37.9365 32.352 43.7334C28.3483 49.4015 26.3465 58.7409 26.3465 71.7518V73.8773C26.3465 75.552 26.7985 76.7113 27.7026 77.3554C28.7358 77.8707 29.8981 78.1284 31.1896 78.1284H68.3847C68.9013 78.1284 69.1596 78.8369 69.1596 80.2539C69.1596 81.1556 69.0305 82.1862 68.7722 83.3456C68.5139 84.3761 68.191 85.3423 67.8035 86.244C67.5452 87.0169 67.1578 87.4034 66.6412 87.4034H34.0955C30.6085 87.4034 28.4129 87.7254 27.5089 88.3695C26.734 88.8848 26.3465 89.6577 26.3465 90.6883V142.281C26.3465 144.728 27.186 146.661 28.8649 148.078C30.673 149.366 32.6103 150.268 34.6767 150.783C36.0973 151.04 37.1951 151.362 37.97 151.749C38.7449 152.135 39.1323 152.844 39.1323 153.874C39.1323 154.647 38.8095 155.163 38.1637 155.42C37.518 155.807 36.5493 156 35.2578 156C32.6749 156 30.673 155.871 29.2524 155.614C27.8317 155.485 26.4757 155.356 25.1842 155.227C24.0218 155.098 22.2783 155.034 19.9536 155.034C17.7581 155.034 15.95 155.098 14.5293 155.227C13.1087 155.356 11.6235 155.485 10.0737 155.614C8.52388 155.871 6.45748 156 3.87449 156ZM53.8554 156C53.2096 156 52.3702 155.871 51.337 155.614C50.4329 155.485 49.9809 155.034 49.9809 154.261C49.9809 153.23 50.4329 152.522 51.337 152.135C52.3702 151.62 53.4034 151.169 54.4366 150.783C56.3738 150.139 58.2465 149.301 60.0546 148.271C61.8627 147.111 62.7667 145.115 62.7667 142.281V87.7898C61.4752 87.7898 59.99 87.7898 58.311 87.7898C56.6321 87.7898 54.7594 87.661 52.693 87.4034C52.1764 87.2746 51.6598 86.8881 51.1432 86.244C50.7558 85.5999 50.5621 84.827 50.5621 83.9253C50.5621 83.0235 51.2724 82.3794 52.693 81.9929C55.0177 81.3488 56.8258 80.7047 58.1173 80.0606C59.538 79.2877 61.0878 78.5148 62.7667 77.7419C62.7667 66.1481 64.3811 56.551 67.6098 48.9506C70.8386 41.3503 74.9068 35.3601 79.8145 30.9802C84.8513 26.6004 90.0173 23.5087 95.3124 21.7052C100.608 19.9017 105.386 19 109.648 19C113.523 19 117.397 19.3865 121.271 20.1594C125.146 20.9323 128.375 22.2205 130.958 24.024C133.541 25.8275 134.832 28.3394 134.832 31.5599C134.832 35.1669 133.799 37.7433 131.733 39.2891C129.795 40.835 127.6 41.6079 125.146 41.6079C123.467 41.6079 122.111 41.0282 121.078 39.8688C120.045 38.5806 118.882 37.1636 117.591 35.6178C116.041 33.5567 114.039 31.5599 111.585 29.6276C109.131 27.6953 105.644 26.7292 101.124 26.7292C96.9914 26.7292 92.9877 28.0174 89.1132 30.5938C85.3679 33.0414 82.2683 36.9704 79.8145 42.3808C77.4898 47.7913 76.3274 54.8764 76.3274 63.6361V74.2638C76.3274 75.8096 76.7794 76.7757 77.6835 77.1622C78.7167 77.5487 79.879 77.8707 81.1705 78.1284C84.7867 78.5148 88.5321 78.8369 92.4066 79.0945C96.4102 79.3521 100.22 79.481 103.836 79.481C107.323 79.481 110.358 79.3521 112.941 79.0945C115.524 78.8369 117.268 78.5148 118.172 78.1284C119.98 77.0978 121.724 76.0672 123.402 75.0367C125.081 73.8773 126.76 72.7823 128.439 71.7518C128.956 71.4941 129.472 71.4297 129.989 71.5585C130.506 71.6874 130.764 72.0094 130.764 72.5247C130.635 74.7146 130.312 78.1283 129.795 82.7659C129.408 87.4034 129.214 93.9088 129.214 102.282V142.281C129.214 145.115 130.118 147.111 131.926 148.271C133.734 149.301 135.607 150.139 137.544 150.783C138.578 151.169 139.546 151.62 140.45 152.135C141.483 152.522 142 153.23 142 154.261C142 155.034 141.483 155.485 140.45 155.614C139.546 155.871 138.771 156 138.126 156C135.543 156 133.476 155.871 131.926 155.614C130.506 155.485 129.15 155.356 127.858 155.227C126.567 155.098 124.759 155.034 122.434 155.034C120.238 155.034 118.43 155.098 117.01 155.227C115.718 155.356 114.297 155.485 112.748 155.614C111.327 155.871 109.325 156 106.742 156C106.096 156 105.257 155.871 104.224 155.614C103.32 155.485 102.868 155.034 102.868 154.261C102.868 153.23 103.32 152.522 104.224 152.135C105.257 151.62 106.29 151.169 107.323 150.783C109.261 150.139 111.133 149.301 112.941 148.271C114.749 147.111 115.653 145.115 115.653 142.281V101.509C115.653 97.9022 114.943 94.8105 113.523 92.2341C112.102 89.6577 109.713 88.0475 106.355 87.4034C106.096 87.2746 104.934 87.2102 102.868 87.2102C100.93 87.2102 98.6057 87.2102 95.8936 87.2102C93.9563 87.2102 91.9545 87.2102 89.8881 87.2102C87.8217 87.2102 85.8845 87.2746 84.0764 87.4034C80.3311 87.5322 78.0709 87.9187 77.296 88.5628C76.6503 89.2069 76.3274 90.1086 76.3274 91.268V142.281C76.3274 145.115 77.2315 147.111 79.0396 148.271C80.8477 149.301 82.7203 150.139 84.6576 150.783C85.6908 151.169 86.6594 151.62 87.5634 152.135C88.5966 152.522 89.1132 153.23 89.1132 154.261C89.1132 155.034 88.5966 155.485 87.5634 155.614C86.6594 155.871 85.8845 156 85.2387 156C82.6558 156 80.5894 155.871 79.0396 155.614C77.6189 155.485 76.2628 155.356 74.9714 155.227C73.6799 155.098 71.8718 155.034 69.5471 155.034C67.3515 155.034 65.5434 155.098 64.1228 155.227C62.8313 155.356 61.4106 155.485 59.8608 155.614C58.4402 155.871 56.4384 156 53.8554 156Z" fill="black"/>
</svg>
