<svg width="253" height="223" viewBox="0 0 253 223" fill="none" xmlns="http://www.w3.org/2000/svg">
<path d="M63.8879 5.30859C64.9918 5.34387 65.9156 4.47746 65.9513 3.37342C65.9869 2.26938 65.1208 1.34578 64.0168 1.3105L63.8879 5.30859ZM9.62023 30.4055L10.6125 28.6687L10.5118 28.6112L10.4052 28.5657L9.62023 30.4055ZM33.3988 39.0113C34.288 38.3557 34.4776 37.1035 33.8224 36.2145L23.1443 21.7268C22.4891 20.8378 21.2371 20.6485 20.3479 21.3041C19.4587 21.9596 19.2691 23.2118 19.9243 24.1008L29.4159 36.9788L16.5359 46.4748C15.6468 47.1303 15.4571 48.3825 16.1124 49.2715C16.7676 50.1606 18.0196 50.3498 18.9088 49.6943L33.3988 39.0113ZM64.0168 1.3105C55.2557 1.03055 41.8332 0.637871 29.8451 1.6339C23.8571 2.13141 18.1302 2.98221 13.4803 4.40661C8.93515 5.7989 4.93646 7.88097 3.05916 11.1928L6.53868 13.1647C7.6141 11.2675 10.2926 9.5663 14.6507 8.2313C18.904 6.92841 24.3063 6.1079 30.1751 5.62029C41.9007 4.64607 55.1022 5.02785 63.8879 5.30859L64.0168 1.3105ZM3.05916 11.1928C-0.16579 16.8822 -0.0911713 21.6937 1.66132 25.4033C3.35406 28.9863 6.46827 31.2359 8.83529 32.2453L10.4052 28.5657C8.70448 27.8404 6.45532 26.1857 5.27796 23.6936C4.16037 21.328 3.85818 17.8935 6.53868 13.1647L3.05916 11.1928ZM8.62793 32.1423C11.6929 33.893 20.426 37.6426 31.9129 39.3791L32.5119 35.4239C21.4912 33.7579 13.2309 30.1643 10.6125 28.6687L8.62793 32.1423Z" fill="#FF9900"/>
<path d="M188.065 170.21C187.692 169.17 186.548 168.628 185.509 169.001C184.47 169.374 183.93 170.52 184.302 171.561L188.065 170.21ZM252.556 190.01C252.85 188.944 252.225 187.842 251.161 187.548L233.822 182.751C232.758 182.457 231.658 183.082 231.364 184.148C231.07 185.213 231.695 186.315 232.759 186.61L248.171 190.873L243.918 206.306C243.625 207.372 244.249 208.474 245.313 208.768C246.377 209.063 247.478 208.438 247.771 207.372L252.556 190.01ZM184.302 171.561C190.427 188.664 202.339 196.527 215.268 198.556C228.045 200.561 241.677 196.863 251.616 191.218L249.643 187.736C240.3 193.043 227.577 196.436 215.886 194.602C204.346 192.791 193.677 185.883 188.065 170.21L184.302 171.561Z" fill="#FF9900"/>
<path d="M172.483 215.656L172.498 215.665L172.513 215.674C179.61 219.843 187.931 221.907 197.438 221.903C202.796 221.901 207.858 221.282 212.62 220.041C217.51 219.02 221.126 217.77 223.332 216.229C224.04 215.755 224.634 215.162 225.109 214.456C225.806 213.519 226.208 212.507 226.207 211.437C226.207 210.231 225.844 209.164 225.048 208.341C224.251 207.312 223.157 206.777 221.848 206.778C215.99 206.78 211.066 206.479 207.066 205.883C203.149 205.098 199.526 203.534 196.187 201.183C193.057 198.835 189.674 195.075 186.046 189.843C182.403 184.386 178.042 177.095 172.961 167.962L172.96 167.96L148.23 123.754C148.229 123.751 148.228 123.749 148.226 123.747C145.396 118.499 143.49 114.69 142.488 112.298C141.675 109.668 140.853 107.504 140.016 105.825C139.638 104.875 139.355 103.929 139.167 102.988C139.045 102.382 139.256 101.459 140.206 100.123C142.476 97.2323 144.535 94.0378 146.385 90.5423C148.438 86.8448 150.384 82.7444 152.225 78.2434C152.225 78.2427 152.226 78.2419 152.226 78.2412L162.592 53.2296L162.594 53.223C163.903 50.0001 165.174 47.4129 166.404 45.4445C167.642 43.4638 168.797 42.1755 169.848 41.4749L169.871 41.4595L169.893 41.4428C172.149 39.7505 174.783 38.8956 177.838 38.8945C180.062 38.8937 182.644 39.6355 185.609 41.2143L185.643 41.2325L185.679 41.248C189.031 42.7123 192.22 43.4646 195.236 43.4634C198.184 43.4624 200.953 42.2096 203.526 39.8557C206.473 37.3516 207.83 33.3506 207.828 28.1225C207.826 23.9287 206.986 20.2961 205.258 17.2689C203.338 13.6926 198.721 12.1796 192.172 12.182C184.726 12.1848 178.348 13.6331 173.082 16.5792C167.871 19.2927 163.585 22.951 160.239 27.5518L160.231 27.5641L160.222 27.5766C157.126 32.1181 154.549 37.0685 152.49 42.4251L152.49 42.4258L140.907 72.618C140.907 72.6195 140.906 72.6211 140.906 72.6227C137.096 82.25 131.695 90.0406 124.715 96.0248L124.709 96.0295L124.704 96.0342C117.986 101.963 109.785 104.941 100.037 104.944L89.05 104.948C88.8121 104.948 88.7191 104.891 88.6826 104.862C88.643 104.831 88.558 104.741 88.494 104.486C88.3242 103.808 88.2179 102.4 88.2171 100.153L88.1976 47.3835C88.1955 41.5679 88.9982 37.059 90.5338 33.7883C92.1436 30.5807 96.3911 28.1187 103.85 26.7045C107.345 26.0864 110.038 25.2455 111.829 24.1258C113.635 22.9967 114.74 21.5003 114.74 19.6163C114.739 18.7587 114.442 17.9904 113.835 17.3842C113.266 16.8157 112.486 16.4502 111.595 16.2212C109.82 15.5673 107.569 15.2636 104.887 15.2646C99.389 15.2666 95.2879 15.3697 92.6028 15.5771C89.9718 15.7804 87.5406 15.9836 85.3096 16.1869L85.3071 16.1869L85.2951 16.1869L85.2831 16.1869L85.271 16.1869L85.2589 16.1869L85.2469 16.1869L85.2348 16.187L85.2226 16.187L85.2105 16.187L85.1984 16.187L85.1862 16.187L85.174 16.187L85.1618 16.187L85.1496 16.187L85.1373 16.187L85.125 16.187L85.1128 16.187L85.1005 16.187L85.0881 16.187L85.0758 16.187L85.0634 16.187L85.051 16.187L85.0387 16.187L85.0262 16.187L85.0138 16.187L85.0014 16.187L84.9889 16.187L84.9764 16.187L84.9639 16.1871L84.9514 16.1871L84.9388 16.1871L84.9262 16.1871L84.9137 16.1871L84.9011 16.1871L84.8884 16.1871L84.8758 16.1871L84.8631 16.1871L84.8505 16.1871L84.8378 16.1871L84.8251 16.1871L84.8123 16.1871L84.7996 16.1871L84.7868 16.1871L84.774 16.1871L84.7612 16.1871L84.7484 16.1871L84.7355 16.1871L84.7227 16.1871L84.7098 16.1871L84.6969 16.1872L84.684 16.1872L84.671 16.1872L84.6581 16.1872L84.6451 16.1872L84.6321 16.1872L84.6191 16.1872L84.6061 16.1872L84.593 16.1872L84.58 16.1872L84.5669 16.1872L84.5538 16.1872L84.5406 16.1872L84.5275 16.1872L84.5143 16.1872L84.5012 16.1872L84.488 16.1872L84.4748 16.1872L84.4615 16.1872L84.4483 16.1872L84.435 16.1872L84.4217 16.1873L84.4084 16.1873L84.3951 16.1873L84.3817 16.1873L84.3684 16.1873L84.355 16.1873L84.3416 16.1873L84.3281 16.1873L84.3147 16.1873L84.3012 16.1873L84.2878 16.1873L84.2743 16.1873L84.2608 16.1873L84.2472 16.1873L84.2337 16.1873L84.2201 16.1873L84.2065 16.1873L84.1929 16.1873L84.1793 16.1873L84.1656 16.1873L84.152 16.1874L84.1383 16.1874L84.1246 16.1874L84.1109 16.1874L84.0971 16.1874L84.0834 16.1874L84.0696 16.1874L84.0558 16.1874L84.042 16.1874L84.0282 16.1874L84.0143 16.1874L84.0004 16.1874L83.9866 16.1874L83.9727 16.1874L83.9587 16.1874L83.9448 16.1874L83.9308 16.1874L83.9168 16.1874L83.9028 16.1874L83.8888 16.1875L83.8748 16.1875L83.8607 16.1875L83.8467 16.1875L83.8326 16.1875L83.8185 16.1875L83.8043 16.1875L83.7902 16.1875L83.776 16.1875L83.7618 16.1875L83.7476 16.1875L83.7334 16.1875L83.7192 16.1875L83.7049 16.1875L83.6906 16.1875L83.6763 16.1875L83.662 16.1875L83.6477 16.1875L83.6333 16.1875L83.619 16.1876L83.6046 16.1876L83.5902 16.1876L83.5757 16.1876L83.5613 16.1876L83.5468 16.1876L83.5323 16.1876L83.5178 16.1876L83.5033 16.1876L83.4888 16.1876L83.4742 16.1876L83.4596 16.1876L83.445 16.1876L83.4304 16.1876L83.4158 16.1876L83.4012 16.1876L83.3865 16.1876L83.3718 16.1876L83.3571 16.1876L83.3424 16.1877L83.3276 16.1877L83.3129 16.1877L83.2981 16.1877L83.2833 16.1877L83.2685 16.1877L83.2536 16.1877L83.2388 16.1877L83.2239 16.1877L83.209 16.1877L83.1941 16.1877L83.1792 16.1877L83.1642 16.1877L83.1492 16.1877L83.1343 16.1877L83.1192 16.1877L83.1042 16.1877L83.0892 16.1877L83.0741 16.1878L83.059 16.1878L83.0439 16.1878L83.0288 16.1878L83.0137 16.1878L82.9985 16.1878L82.9834 16.1878L82.9682 16.1878L82.953 16.1878L82.9377 16.1878L82.9225 16.1878L82.9072 16.1878L82.8919 16.1878L82.8766 16.1878L82.8613 16.1878L82.846 16.1878L82.8306 16.1878L82.8152 16.1878L82.7998 16.1879L82.7844 16.1879L82.769 16.1879L82.7535 16.1879L82.7381 16.1879L82.7226 16.1879L82.7071 16.1879L82.6916 16.1879L82.676 16.1879L82.6604 16.1879L82.6449 16.1879L82.6293 16.1879L82.6136 16.1879L82.598 16.1879L82.5823 16.1879L82.5667 16.1879L82.551 16.1879L82.5353 16.188L82.5195 16.188L82.5038 16.188L82.488 16.188L82.4722 16.188L82.4564 16.188L82.4406 16.188L82.4248 16.188L82.4089 16.188L82.393 16.188L82.3771 16.188L82.3612 16.188L82.3453 16.188L82.3293 16.188L82.3133 16.188L82.2973 16.188L82.2813 16.188L82.2653 16.1881L82.2493 16.1881L82.2332 16.1881L82.2171 16.1881L82.201 16.1881L82.1849 16.1881L82.1687 16.1881L82.1526 16.1881L82.1364 16.1881L82.1202 16.1881L82.104 16.1881L82.0878 16.1881L82.0715 16.1881L82.0552 16.1881L82.0389 16.1881L82.0226 16.1881L82.0063 16.1881L81.99 16.1882L81.9736 16.1882L81.9572 16.1882L81.9408 16.1882L81.9244 16.1882L81.9079 16.1882L81.8915 16.1882L81.875 16.1882L81.8585 16.1882L81.842 16.1882L81.8255 16.1882L81.8089 16.1882L81.7924 16.1882L81.7758 16.1882L81.7592 16.1882L81.7425 16.1882L81.7259 16.1883L81.7092 16.1883L81.6925 16.1883L81.6758 16.1883L81.6591 16.1883L81.6424 16.1883L81.6256 16.1883L81.6089 16.1883L81.5921 16.1883L81.5753 16.1883L81.5584 16.1883L81.5416 16.1883L81.5247 16.1883L81.5078 16.1883L81.4909 16.1883L81.474 16.1883L81.4571 16.1884L81.4401 16.1884L81.4231 16.1884L81.4061 16.1884L81.3891 16.1884L81.3721 16.1884L81.355 16.1884L81.3379 16.1884L81.3208 16.1884L81.3037 16.1884L81.2866 16.1884L81.2695 16.1884L81.2523 16.1884L81.2351 16.1884L81.2179 16.1884L81.2007 16.1884L81.1834 16.1885L81.1662 16.1885L81.1489 16.1885L81.1316 16.1885L81.1143 16.1885L81.097 16.1885L81.0796 16.1885L81.0622 16.1885L81.0449 16.1885L81.0275 16.1885L81.01 16.1885L80.9926 16.1885L80.9751 16.1885L80.9576 16.1885L80.9401 16.1885L80.9226 16.1885L80.9051 16.1886L80.8875 16.1886L80.8699 16.1886L80.8524 16.1886L80.8347 16.1886L80.8171 16.1886L80.7995 16.1886L80.7818 16.1886L80.7641 16.1886L80.7464 16.1886L80.7287 16.1886L80.7109 16.1886L80.6932 16.1886L80.6754 16.1886L80.6576 16.1886L80.6398 16.1887L80.6219 16.1887L80.6041 16.1887L80.5862 16.1887L80.5683 16.1887L80.5504 16.1887L80.5325 16.1887L80.5145 16.1887L80.4966 16.1887L80.4786 16.1887L80.4606 16.1887L80.4426 16.1887L80.4245 16.1887L80.4064 16.1887L80.3884 16.1887L80.3703 16.1888L80.3522 16.1888L80.334 16.1888L80.3159 16.1888L80.2977 16.1888L80.2795 16.1888L80.2613 16.1888L80.2431 16.1888L80.2248 16.1888L80.2066 16.1888L80.1883 16.1888L80.17 16.1888L80.1517 16.1888L80.1333 16.1888L80.115 16.1888L80.0966 16.1889L80.0782 16.1889L80.0598 16.1889L80.0413 16.1889L80.0229 16.1889L80.0044 16.1889L79.9859 16.1889L79.9674 16.1889L79.9489 16.1889L79.9304 16.1889L79.9118 16.1889L79.8932 16.1889L79.8746 16.1889L79.856 16.1889L79.8374 16.189L79.8187 16.189L79.8 16.189L79.7813 16.189L79.7626 16.189L79.7439 16.189L79.7251 16.189L79.7064 16.189L79.6876 16.189L79.6688 16.189L79.65 16.189L79.6311 16.189L79.6123 16.189L79.5934 16.189L79.5745 16.189L79.5556 16.1891L79.5366 16.1891L79.5177 16.1891L79.4987 16.1891L79.4797 16.1891L79.4607 16.1891L79.4417 16.1891L79.4226 16.1891L79.4036 16.1891L79.3845 16.1891L79.3654 16.1891L79.3463 16.1891L79.3271 16.1891L79.308 16.1891L79.2888 16.1892L79.2696 16.1892L79.2504 16.1892L79.2311 16.1892L79.2119 16.1892L79.1926 16.1892L79.1733 16.1892L79.154 16.1892L79.1347 16.1892L79.1153 16.1892L79.096 16.1892L79.0766 16.1892L79.0572 16.1892L79.0378 16.1892L79.0183 16.1893L78.9989 16.1893L78.9794 16.1893L78.9599 16.1893L78.9404 16.1893L78.9209 16.1893L78.9013 16.1893L78.8818 16.1893L78.8622 16.1893L78.8426 16.1893L78.8229 16.1893L78.8033 16.1893L78.7836 16.1893L78.764 16.1893L78.7443 16.1894L78.7245 16.1894L78.7048 16.1894L78.685 16.1894L78.6653 16.1894L78.6455 16.1894L78.6257 16.1894L78.6058 16.1894L78.586 16.1894L78.5661 16.1894L78.5462 16.1894L78.5263 16.1894L78.5064 16.1894L78.4865 16.1895L78.4665 16.1895L78.4465 16.1895L78.4265 16.1895L78.4065 16.1895L78.3865 16.1895L78.3664 16.1895L78.3464 16.1895L78.3263 16.1895L78.3062 16.1895L78.286 16.1895L78.2659 16.1895L78.2457 16.1895L78.2255 16.1895L78.2053 16.1896L78.1851 16.1896L78.1649 16.1896L78.1446 16.1896L78.1244 16.1896L78.1041 16.1896L78.0837 16.1896L78.0634 16.1896L78.0431 16.1896L78.0227 16.1896L78.0023 16.1896L77.9819 16.1896L77.9615 16.1896L77.941 16.1897L77.9206 16.1897L77.9001 16.1897L77.8796 16.1897L77.8591 16.1897L77.8385 16.1897L77.818 16.1897L77.7974 16.1897L77.7768 16.1897L77.7562 16.1897L77.7356 16.1897L77.7149 16.1897L77.6942 16.1897L77.6736 16.1898L77.6529 16.1898L77.6321 16.1898L77.6114 16.1898L77.5906 16.1898L77.5699 16.1898L77.5491 16.1898L77.5282 16.1898L77.5074 16.1898L77.4865 16.1898L77.4657 16.1898L77.4448 16.1898L77.4239 16.1898L77.4029 16.1899L77.382 16.1899L77.361 16.1899L77.3401 16.1899L77.319 16.1899L77.298 16.1899L77.277 16.1899L77.2559 16.1899L77.2348 16.1899L77.2138 16.1899L77.1926 16.1899L77.1715 16.1899L77.1504 16.1899L77.1292 16.19L77.108 16.19L77.0868 16.19L77.0656 16.19L77.0443 16.19L77.0231 16.19L77.0018 16.19L76.9805 16.19L76.9591 16.19L76.9378 16.19L76.9165 16.19L76.8951 16.19L76.8737 16.19L76.8523 16.1901L76.8308 16.1901L76.8094 16.1901L76.782 16.1901L76.7546 16.1901L76.7272 16.1901L76.6998 16.1901L76.6725 16.1901L76.6452 16.1901L76.6179 16.1901L76.5906 16.1902L76.5633 16.1902L76.536 16.1902L76.5088 16.1902L76.4815 16.1902L76.4543 16.1902L76.4271 16.1902L76.3999 16.1902L76.3728 16.1902L76.3456 16.1902L76.3185 16.1903L76.2914 16.1903L76.2643 16.1903L76.2372 16.1903L76.2101 16.1903L76.183 16.1903L76.156 16.1903L76.129 16.1903L76.102 16.1903L76.075 16.1903L76.048 16.1904L76.0211 16.1904L75.9941 16.1904L75.9672 16.1904L75.9403 16.1904L75.9134 16.1904L75.8865 16.1904L75.8597 16.1904L75.8328 16.1904L75.806 16.1904L75.7792 16.1905L75.7524 16.1905L75.7256 16.1905L75.6989 16.1905L75.6721 16.1905L75.6454 16.1905L75.6187 16.1905L75.592 16.1905L75.5653 16.1905L75.5387 16.1905L75.512 16.1906L75.4854 16.1906L75.4588 16.1906L75.4322 16.1906L75.4056 16.1906L75.379 16.1906L75.3525 16.1906L75.3259 16.1906L75.2994 16.1906L75.2729 16.1906L75.2464 16.1906L75.22 16.1907L75.1935 16.1907L75.1671 16.1907L75.1407 16.1907L75.1143 16.1907L75.0879 16.1907L75.0615 16.1907L75.0352 16.1907L75.0088 16.1907L74.9825 16.1907L74.9562 16.1908L74.9299 16.1908L74.9037 16.1908L74.8774 16.1908L74.8512 16.1908L74.8249 16.1908L74.7987 16.1908L74.7725 16.1908L74.7464 16.1908L74.7202 16.1908L74.6941 16.1909L74.6679 16.1909L74.6418 16.1909L74.6157 16.1909L74.5897 16.1909L74.5636 16.1909L74.5376 16.1909L74.5115 16.1909L74.4855 16.1909L74.4595 16.1909L74.4336 16.1909L74.4076 16.191L74.3817 16.191L74.3557 16.191L74.3298 16.191L74.3039 16.191L74.278 16.191L74.2522 16.191L74.2263 16.191L74.2005 16.191L74.1747 16.191L74.1489 16.1911L74.1231 16.1911L74.0973 16.1911L74.0716 16.1911L74.0459 16.1911L74.0201 16.1911L73.9944 16.1911L73.9688 16.1911L73.9431 16.1911L73.9174 16.1911L73.8918 16.1912L73.8662 16.1912L73.8406 16.1912L73.815 16.1912L73.7894 16.1912L73.7639 16.1912L73.7383 16.1912L73.7128 16.1912L73.6873 16.1912L73.6618 16.1912L73.6363 16.1912L73.6109 16.1913L73.5854 16.1913L73.56 16.1913L73.5346 16.1913L73.5092 16.1913L73.4839 16.1913L73.4585 16.1913L73.4331 16.1913L73.4078 16.1913L73.3825 16.1913L73.3572 16.1913L73.3319 16.1914L73.3067 16.1914L73.2814 16.1914L73.2562 16.1914L73.231 16.1914L73.2058 16.1914L73.1806 16.1914L73.1555 16.1914L73.1303 16.1914L73.1052 16.1914L73.0801 16.1915L73.055 16.1915L73.0299 16.1915L73.0048 16.1915L72.9798 16.1915L72.9548 16.1915L72.9297 16.1915L72.9047 16.1915L72.8798 16.1915L72.8548 16.1915L72.8298 16.1915L72.8049 16.1916L72.78 16.1916L72.7551 16.1916L72.7302 16.1916L72.7053 16.1916L72.6805 16.1916L72.6556 16.1916L72.6308 16.1916L72.606 16.1916L72.5812 16.1916L72.5565 16.1916L72.5317 16.1917L72.507 16.1917L72.4822 16.1917L72.4575 16.1917L72.4328 16.1917L72.4082 16.1917L72.3835 16.1917L72.3589 16.1917L72.3342 16.1917L72.3096 16.1917L72.285 16.1917L72.2605 16.1918L72.2359 16.1918L72.2114 16.1918L72.1868 16.1918L72.1623 16.1918L72.1378 16.1918L72.1134 16.1918L72.0889 16.1918L72.0644 16.1918L72.04 16.1918L72.0156 16.1918L71.9912 16.1919L71.9668 16.1919L71.9425 16.1919L71.9181 16.1919L71.8938 16.1919L71.8695 16.1919L71.8452 16.1919L71.8209 16.1919L71.7966 16.1919L71.7724 16.1919L71.7481 16.1919L71.7239 16.192L71.6997 16.192L71.6755 16.192L71.6514 16.192L71.6272 16.192L71.6031 16.192L71.579 16.192L71.5549 16.192L71.5308 16.192L71.5067 16.192L71.4826 16.192L71.4586 16.1921L71.4346 16.1921L71.4106 16.1921L71.3866 16.1921L71.3626 16.1921L71.3387 16.1921L71.3147 16.1921L71.2908 16.1921L71.2669 16.1921L71.243 16.1921L71.2191 16.1921L71.1953 16.1921L71.1714 16.1922L71.1476 16.1922L71.1238 16.1922L71.1 16.1922L71.0762 16.1922L71.0525 16.1922L71.0287 16.1922L71.005 16.1922L70.9813 16.1922L70.9576 16.1922L70.9339 16.1922L70.9102 16.1923L70.8866 16.1923L70.863 16.1923L70.8393 16.1923L70.8157 16.1923L70.7922 16.1923L70.7686 16.1923L70.7451 16.1923L70.7215 16.1923L70.698 16.1923L70.6745 16.1923L70.651 16.1923L70.6276 16.1924L70.6041 16.1924L70.5807 16.1924L70.5572 16.1924L70.5338 16.1924L70.5105 16.1924L70.4871 16.1924L70.4637 16.1924L70.4404 16.1924L70.4171 16.1924L70.3938 16.1924L70.3705 16.1925L70.3472 16.1925L70.324 16.1925L70.3007 16.1925L70.2775 16.1925L70.2543 16.1925L70.2311 16.1925L70.2079 16.1925L70.1848 16.1925L70.1616 16.1925L70.1385 16.1925L70.1154 16.1925L70.0923 16.1926L70.0692 16.1926L70.0462 16.1926L70.0231 16.1926L70.0001 16.1926L69.9771 16.1926L69.9541 16.1926L69.9311 16.1926L69.9081 16.1926L69.8852 16.1926L69.8623 16.1926L69.8394 16.1926L69.8165 16.1927L69.7936 16.1927L69.7707 16.1927L69.7479 16.1927L69.725 16.1927L69.7022 16.1927L69.6794 16.1927L69.6566 16.1927L69.6339 16.1927L69.6111 16.1927L69.5884 16.1927L69.5657 16.1928L69.543 16.1928L69.5203 16.1928L69.4976 16.1928L69.475 16.1928L69.4523 16.1928L69.4297 16.1928L69.4071 16.1928L69.3845 16.1928L69.3619 16.1928L69.3394 16.1928L69.3168 16.1928L69.2943 16.1929L69.2718 16.1929L69.2493 16.1929L69.2269 16.1929L69.2044 16.1929L69.182 16.1929L69.1595 16.1929L69.1371 16.1929L69.1147 16.1929L69.0924 16.1929L69.07 16.1929L69.0477 16.1929L69.0253 16.193L69.003 16.193L68.9807 16.193L68.9584 16.193L68.9362 16.193L68.9139 16.193L68.8917 16.193L68.8695 16.193L68.8473 16.193L68.8251 16.193L68.803 16.193L68.7808 16.193L68.7587 16.193L68.7366 16.1931L68.7145 16.1931L68.6924 16.1931L68.6703 16.1931L68.6483 16.1931L68.6262 16.1931L68.6042 16.1931L68.5822 16.1931L68.5602 16.1931L68.5383 16.1931L68.5163 16.1931L68.4944 16.1931L68.4725 16.1932L68.4506 16.1932L68.4287 16.1932L68.4068 16.1932L68.385 16.1932L68.3631 16.1932L68.3413 16.1932L68.3195 16.1932L68.2977 16.1932L68.2759 16.1932L68.2542 16.1932L68.2324 16.1932L68.2107 16.1933L68.189 16.1933L68.1673 16.1933L68.1456 16.1933L68.124 16.1933L68.1023 16.1933L68.0807 16.1933L68.0591 16.1933L68.0375 16.1933L68.0159 16.1933L67.9944 16.1933L67.9728 16.1933L67.9513 16.1933L67.9298 16.1934L67.9083 16.1934L67.8868 16.1934L67.8653 16.1934L67.8439 16.1934L67.8225 16.1934L67.8011 16.1934L67.7797 16.1934L67.7583 16.1934L67.7369 16.1934L67.7156 16.1934L67.6942 16.1934L67.6729 16.1935L67.6516 16.1935L67.6303 16.1935L67.6091 16.1935L67.5878 16.1935L67.5666 16.1935L67.5454 16.1935L67.5242 16.1935L67.503 16.1935L67.4818 16.1935L67.4607 16.1935L67.4395 16.1935L67.4184 16.1935L67.3973 16.1936L67.3762 16.1936L67.3551 16.1936L67.3341 16.1936L67.313 16.1936L67.292 16.1936L67.271 16.1936L67.25 16.1936L67.229 16.1936L67.2081 16.1936L67.1871 16.1936L67.1662 16.1936L67.1453 16.1936L67.1244 16.1937L67.1035 16.1937L67.0827 16.1937L67.0618 16.1937L67.041 16.1937L67.0202 16.1937L66.9994 16.1937L66.9786 16.1937L66.9579 16.1937L66.9371 16.1937L66.9164 16.1937L66.8957 16.1937L66.875 16.1937L66.8543 16.1938L66.8336 16.1938L66.813 16.1938L66.7924 16.1938L66.7718 16.1938L66.7512 16.1938L66.7306 16.1938L66.71 16.1938L66.6895 16.1938L66.6689 16.1938L66.6484 16.1938L66.6279 16.1938L66.6074 16.1938L66.5869 16.1939L66.5665 16.1939L66.5461 16.1939L66.5256 16.1939L66.5052 16.1939L66.4849 16.1939L66.4645 16.1939L66.4441 16.1939L66.4238 16.1939L66.4035 16.1939L66.3832 16.1939L66.3629 16.1939L66.3426 16.1939L66.3223 16.194L66.3021 16.194L66.2819 16.194L66.2617 16.194L66.2415 16.194L66.2213 16.194L66.2011 16.194L66.181 16.194L66.1609 16.194L66.1408 16.194L66.1207 16.194L66.1006 16.194L66.0805 16.194L66.0605 16.194L66.0405 16.1941L66.0204 16.1941L66.0005 16.1941L65.9805 16.1941L65.9605 16.1941L65.9406 16.1941L65.9206 16.1941L65.9007 16.1941L65.8808 16.1941L65.8609 16.1941L65.8411 16.1941L65.8212 16.1941L65.8014 16.1941L65.7816 16.1942L65.7618 16.1942L65.742 16.1942L65.7222 16.1942L65.7025 16.1942L65.6827 16.1942L65.663 16.1942L65.6433 16.1942L65.6236 16.1942L65.604 16.1942L65.5843 16.1942L65.5647 16.1942L65.5451 16.1942L65.5254 16.1942L65.5059 16.1943L65.4863 16.1943L65.4667 16.1943L65.4472 16.1943L65.4277 16.1943L65.4082 16.1943L65.3887 16.1943L65.3692 16.1943L65.3497 16.1943L65.3303 16.1943L65.3109 16.1943L65.2915 16.1943L65.2721 16.1943L65.2527 16.1943L65.2333 16.1944L65.214 16.1944L65.1947 16.1944L65.1754 16.1944L65.1561 16.1944L65.1368 16.1944L65.1175 16.1944L65.0983 16.1944L65.079 16.1944L65.0598 16.1944L65.0406 16.1944L65.0214 16.1944L65.0023 16.1944L64.9831 16.1944L64.964 16.1945L64.9449 16.1945L64.9379 16.1945C61.6894 15.9928 58.239 15.7913 54.5868 15.5899C51.1007 15.3863 46.6034 15.2862 41.101 15.2882C38.4188 15.2892 36.1684 15.5945 34.3941 16.2497C33.5033 16.4794 32.7233 16.8455 32.1545 17.4144C31.548 18.0211 31.2516 18.7896 31.2519 19.6471C31.2526 21.5462 32.4014 23.0409 34.2533 24.1617C36.0863 25.271 38.7445 26.1104 42.1461 26.7273C49.827 28.1386 54.8463 30.326 57.4677 33.1311L57.4913 33.1563L57.5165 33.1798C60.2625 35.7394 61.7792 40.3682 61.7818 47.3933L61.8325 184.655C61.8352 192.08 60.3251 197.276 57.5107 200.466L57.508 200.469C54.8889 203.463 49.8807 205.751 42.2115 207.166C38.8194 207.784 36.1788 208.57 34.3612 209.562C32.5581 210.546 31.3228 211.878 31.3234 213.644C31.3238 214.501 31.6207 215.27 32.2277 215.876C32.7969 216.444 33.5772 216.81 34.4681 217.039C36.2428 217.693 38.4936 217.997 41.1758 217.996C46.6912 217.994 51.4079 217.788 55.3192 217.375C59.1695 216.968 62.9171 216.663 66.562 216.459L66.5867 216.458L66.6112 216.456C70.4347 216.052 74.7732 215.848 79.6298 215.846C83.471 215.845 86.4547 216.046 88.6072 216.437L88.6548 216.445L88.703 216.449C91.1221 216.65 93.7476 216.952 96.5801 217.355L96.5893 217.356C99.7065 217.77 104.031 217.972 109.54 217.97C112.222 217.969 114.473 217.664 116.247 217.009C117.138 216.779 117.918 216.413 118.486 215.844C119.093 215.237 119.389 214.469 119.389 213.611C119.388 211.698 118.248 210.289 116.393 209.363C114.634 208.484 111.978 207.755 108.5 207.142C103.526 206.148 99.6217 204.473 96.7299 202.163C93.8154 199.834 91.6818 196.929 90.3198 193.433C88.943 189.898 88.2488 186.057 88.2472 181.9L88.225 121.505C88.2246 120.55 88.32 119.38 88.5188 117.986C88.5978 117.432 88.7752 117.148 88.9498 116.996C89.1231 116.844 89.4218 116.709 89.97 116.709C92.795 116.708 95.826 116.807 99.0636 117.008L99.0948 117.01L99.126 117.01C102.319 117.009 105.407 117.307 108.391 117.903C112.156 118.654 116.354 121.42 120.978 126.44L120.985 126.448L120.992 126.455C125.577 131.233 129.59 137.432 133.016 145.079L133.019 145.085L154.705 192.659C159.635 203.531 165.542 211.244 172.483 215.656Z" stroke="black" stroke-width="2"/>
</svg>
