<svg width="216" height="216" viewBox="0 0 216 216" fill="none" xmlns="http://www.w3.org/2000/svg">
<path d="M63.5 185.5L68.5 175.5L55.6272 169.064L50 178L63.5 185.5Z" fill="#FF9900"/>
<path d="M179 72L151.5 72L151.5 85L179 85L179 72Z" fill="#FF9900"/>
<mask id="path-3-outside-1_368_146" maskUnits="userSpaceOnUse" x="-0.000737564" y="-0.00105265" width="216.08" height="216.08" fill="black">
<rect fill="white" x="-0.000737564" y="-0.00105265" width="216.08" height="216.08"/>
<path d="M24.6384 214.003C17.2242 214.005 11.61 212.313 7.79579 208.925C3.98147 205.325 2.07334 200.878 2.07138 195.582C2.06982 191.346 2.91594 188.062 4.60974 185.731C6.30354 183.4 8.10369 182.235 10.0102 182.234C12.3407 183.08 15.9421 183.926 20.8146 184.772C25.6871 185.617 30.7712 186.039 36.067 186.037C41.3628 186.035 46.234 183.492 50.6806 178.406C55.339 173.109 59.3607 164.634 62.7457 152.982C66.3425 141.119 69.0905 125.337 70.9897 105.636C72.889 85.9354 73.8332 61.5749 73.8225 32.5546C73.8202 26.4117 72.4417 21.8579 69.6867 18.8933C66.9317 15.717 61.5292 13.3889 53.479 11.909C46.488 10.6407 42.992 8.52369 42.9909 5.55812C42.9904 4.28716 43.8375 3.43953 45.532 3.01525C47.2264 2.37913 49.4505 2.06057 52.2043 2.05955C54.3227 2.05877 56.9706 2.1637 60.1482 2.37437C63.3257 2.58501 66.8211 2.79555 70.6341 3.00596C74.659 3.21629 78.578 3.32076 82.391 3.31935C88.3223 3.31715 94.1477 3.315 99.8671 3.31288C105.587 3.31076 111.2 3.30869 116.708 3.30665C122.215 3.30461 127.723 3.30257 133.231 3.30054C138.738 3.2985 144.246 3.29646 149.754 3.29442C155.473 3.08048 161.299 2.97241 167.23 2.97022C171.89 2.9685 175.703 2.96708 178.669 2.96599C181.634 2.75307 184.812 2.54007 188.201 2.32699C191.59 2.1139 196.145 2.00629 201.864 2.00418C204.618 2.00316 206.842 2.32008 208.537 2.95494C210.232 3.37797 211.08 4.22497 211.08 5.49592C211.081 6.97871 210.234 8.24998 208.54 9.30974C206.845 10.3695 204.198 11.2178 200.597 11.8546C192.759 13.3403 187.041 15.6725 183.441 18.8512C179.841 22.03 178.042 27.3263 178.045 34.7403L178.098 178.359C178.101 185.773 180.327 191.174 184.777 194.561C189.226 197.949 195.37 200.383 203.209 201.862C206.81 202.497 209.458 203.237 211.153 204.084C212.848 204.93 213.696 206.095 213.697 207.578C213.697 208.849 212.85 209.696 211.156 210.121C209.461 210.757 207.237 211.075 204.483 211.076C198.764 211.079 193.997 210.869 190.184 210.446C186.583 210.236 183.088 210.025 179.698 209.815C176.309 209.604 172.178 209.5 167.306 209.502C162.01 209.503 157.35 209.611 153.325 209.824C149.512 210.038 145.488 210.251 141.251 210.464C137.226 210.89 132.354 211.103 126.635 211.105C123.881 211.106 121.657 210.789 119.962 210.155C118.267 209.731 117.419 208.884 117.419 207.614C117.418 205.072 120.912 203.164 127.902 201.89C135.951 200.405 142.094 197.754 146.329 193.94C150.564 189.914 152.68 184.617 152.678 178.051L152.624 33.161C152.622 27.6535 151.879 23.3113 150.395 20.1344C149.123 16.9575 146.475 15.3698 142.45 15.3713L97.3296 15.388C93.9403 15.3892 91.5046 16.4493 90.0225 18.5681C88.7523 20.6868 88.1182 24.2881 88.12 29.372C88.1321 61.9933 86.5534 89.3196 83.384 111.351C80.2147 133.382 76.0906 151.283 71.0117 165.053C66.1445 178.612 60.8525 188.994 55.1357 196.198C49.4188 203.19 43.8069 207.853 38.3002 210.185C33.0053 212.729 28.4513 214.001 24.6384 214.003Z"/>
</mask>
<path d="M24.6384 214.003C17.2242 214.005 11.61 212.313 7.79579 208.925C3.98147 205.325 2.07334 200.878 2.07138 195.582C2.06982 191.346 2.91594 188.062 4.60974 185.731C6.30354 183.4 8.10369 182.235 10.0102 182.234C12.3407 183.08 15.9421 183.926 20.8146 184.772C25.6871 185.617 30.7712 186.039 36.067 186.037C41.3628 186.035 46.234 183.492 50.6806 178.406C55.339 173.109 59.3607 164.634 62.7457 152.982C66.3425 141.119 69.0905 125.337 70.9897 105.636C72.889 85.9354 73.8332 61.5749 73.8225 32.5546C73.8202 26.4117 72.4417 21.8579 69.6867 18.8933C66.9317 15.717 61.5292 13.3889 53.479 11.909C46.488 10.6407 42.992 8.52369 42.9909 5.55812C42.9904 4.28716 43.8375 3.43953 45.532 3.01525C47.2264 2.37913 49.4505 2.06057 52.2043 2.05955C54.3227 2.05877 56.9706 2.1637 60.1482 2.37437C63.3257 2.58501 66.8211 2.79555 70.6341 3.00596C74.659 3.21629 78.578 3.32076 82.391 3.31935C88.3223 3.31715 94.1477 3.315 99.8671 3.31288C105.587 3.31076 111.2 3.30869 116.708 3.30665C122.215 3.30461 127.723 3.30257 133.231 3.30054C138.738 3.2985 144.246 3.29646 149.754 3.29442C155.473 3.08048 161.299 2.97241 167.23 2.97022C171.89 2.9685 175.703 2.96708 178.669 2.96599C181.634 2.75307 184.812 2.54007 188.201 2.32699C191.59 2.1139 196.145 2.00629 201.864 2.00418C204.618 2.00316 206.842 2.32008 208.537 2.95494C210.232 3.37797 211.08 4.22497 211.08 5.49592C211.081 6.97871 210.234 8.24998 208.54 9.30974C206.845 10.3695 204.198 11.2178 200.597 11.8546C192.759 13.3403 187.041 15.6725 183.441 18.8512C179.841 22.03 178.042 27.3263 178.045 34.7403L178.098 178.359C178.101 185.773 180.327 191.174 184.777 194.561C189.226 197.949 195.37 200.383 203.209 201.862C206.81 202.497 209.458 203.237 211.153 204.084C212.848 204.93 213.696 206.095 213.697 207.578C213.697 208.849 212.85 209.696 211.156 210.121C209.461 210.757 207.237 211.075 204.483 211.076C198.764 211.079 193.997 210.869 190.184 210.446C186.583 210.236 183.088 210.025 179.698 209.815C176.309 209.604 172.178 209.5 167.306 209.502C162.01 209.503 157.35 209.611 153.325 209.824C149.512 210.038 145.488 210.251 141.251 210.464C137.226 210.89 132.354 211.103 126.635 211.105C123.881 211.106 121.657 210.789 119.962 210.155C118.267 209.731 117.419 208.884 117.419 207.614C117.418 205.072 120.912 203.164 127.902 201.89C135.951 200.405 142.094 197.754 146.329 193.94C150.564 189.914 152.68 184.617 152.678 178.051L152.624 33.161C152.622 27.6535 151.879 23.3113 150.395 20.1344C149.123 16.9575 146.475 15.3698 142.45 15.3713L97.3296 15.388C93.9403 15.3892 91.5046 16.4493 90.0225 18.5681C88.7523 20.6868 88.1182 24.2881 88.12 29.372C88.1321 61.9933 86.5534 89.3196 83.384 111.351C80.2147 133.382 76.0906 151.283 71.0117 165.053C66.1445 178.612 60.8525 188.994 55.1357 196.198C49.4188 203.19 43.8069 207.853 38.3002 210.185C33.0053 212.729 28.4513 214.001 24.6384 214.003Z" stroke="black" stroke-width="4" mask="url(#path-3-outside-1_368_146)"/>
</svg>
