<svg width="1260" height="449" viewBox="0 0 1260 449" fill="none" xmlns="http://www.w3.org/2000/svg">
<path d="M1229.2 156.704C1228.97 156.704 1228.78 156.639 1228.65 156.507C1228.52 156.375 1228.45 156.244 1228.45 156.112C1228.45 155.816 1228.7 155.602 1229.2 155.47C1230.46 155.141 1231.49 154.844 1232.29 154.581C1233.12 154.285 1233.72 153.889 1234.09 153.396C1234.49 152.869 1234.69 152.128 1234.69 151.173V132.308C1234.69 131.682 1234.49 131.205 1234.09 130.876C1233.69 130.547 1233.17 130.316 1232.54 130.184C1231.91 130.053 1231.23 129.97 1230.5 129.937C1230.16 129.905 1229.87 129.822 1229.6 129.691C1229.33 129.559 1229.2 129.361 1229.2 129.098C1229.2 128.867 1229.32 128.67 1229.55 128.505C1229.82 128.341 1230.11 128.242 1230.45 128.209C1231.94 127.978 1233.27 127.699 1234.44 127.369C1235.63 127.007 1236.8 126.266 1237.93 125.147C1237.96 125.114 1237.99 125.098 1238.03 125.098C1238.09 125.098 1238.14 125.098 1238.18 125.098C1238.34 125.098 1238.49 125.147 1238.63 125.246C1238.76 125.312 1238.81 125.41 1238.78 125.542C1238.71 126.036 1238.66 126.579 1238.63 127.172C1238.59 127.732 1238.58 128.357 1238.58 129.049V151.766C1238.58 152.589 1238.73 153.215 1239.03 153.643C1239.36 154.071 1239.91 154.416 1240.67 154.68C1241.44 154.91 1242.5 155.19 1243.86 155.519C1244.06 155.552 1244.25 155.634 1244.41 155.766C1244.61 155.865 1244.71 155.997 1244.71 156.161C1244.71 156.523 1244.48 156.704 1244.01 156.704C1243.08 156.704 1242.22 156.672 1241.42 156.606C1240.65 156.573 1239.89 156.54 1239.12 156.507C1238.39 156.474 1237.58 156.458 1236.68 156.458C1235.78 156.458 1234.94 156.474 1234.14 156.507C1233.34 156.54 1232.54 156.573 1231.74 156.606C1230.95 156.672 1230.1 156.704 1229.2 156.704Z" fill="black"/>
<path d="M967.622 371.62C967.383 371.62 967.009 371.604 966.498 371.571C965.987 371.537 965.408 371.504 964.761 371.471C964.114 371.437 963.433 371.404 962.718 371.371C962.037 371.338 961.373 371.321 960.726 371.321C960.079 371.321 959.159 371.338 957.968 371.371C956.776 371.404 955.516 371.437 954.188 371.471C952.893 371.471 951.753 371.487 950.765 371.521C949.778 371.554 949.148 371.571 948.875 371.571C948.739 371.571 948.535 371.471 948.262 371.271C947.99 371.038 947.854 370.855 947.854 370.722C947.854 370.555 947.888 370.439 947.956 370.372C948.024 370.306 948.126 370.206 948.262 370.073L956.997 361.235C958.7 359.504 960.113 357.573 961.237 355.443C962.36 353.279 962.922 351.099 962.922 348.902C962.922 347.137 962.378 345.756 961.288 344.757C960.198 343.725 958.921 343.209 957.457 343.209C956.061 343.209 954.766 343.592 953.575 344.358C952.383 345.09 951.429 346.055 950.714 347.254C950.612 347.454 950.476 347.62 950.305 347.753C950.169 347.886 950.016 347.953 949.846 347.953C949.709 347.953 949.539 347.82 949.335 347.553C949.165 347.254 949.079 346.888 949.079 346.455C949.079 346.055 949.318 345.506 949.795 344.807C950.305 344.108 951.004 343.392 951.889 342.66C952.774 341.928 953.83 341.312 955.056 340.813C956.282 340.28 957.61 340.014 959.04 340.014C960.743 340.014 962.207 340.363 963.433 341.062C964.659 341.761 965.596 342.727 966.243 343.958C966.89 345.19 967.213 346.621 967.213 348.252C967.213 349.151 967.043 350.117 966.702 351.148C966.396 352.18 965.953 353.196 965.374 354.194C964.829 355.193 964.199 356.125 963.484 356.99C963.042 357.523 962.378 358.239 961.492 359.138C960.641 360.003 959.704 360.935 958.683 361.934C957.695 362.932 956.742 363.881 955.822 364.78C954.937 365.645 954.205 366.378 953.626 366.977C953.047 367.543 952.757 367.859 952.757 367.926C952.757 368.092 952.996 368.208 953.472 368.275C954.051 368.308 954.698 368.342 955.413 368.375C956.163 368.408 957.014 368.425 957.968 368.425C958.955 368.425 959.943 368.408 960.93 368.375C961.918 368.342 962.871 368.308 963.791 368.275C964.778 368.208 965.545 368.125 966.089 368.025C966.634 367.926 967.094 367.726 967.469 367.426C967.843 367.093 968.235 366.594 968.643 365.928C968.78 365.729 968.95 365.496 969.154 365.229C969.393 364.93 969.648 364.78 969.92 364.78C970.091 364.78 970.193 364.846 970.227 364.98C970.261 365.113 970.278 365.246 970.278 365.379C970.278 365.545 970.176 365.878 969.972 366.378C969.801 366.844 969.597 367.426 969.359 368.125C969.12 368.824 968.916 369.59 968.746 370.422C968.643 370.955 968.473 371.288 968.235 371.421C967.996 371.554 967.792 371.62 967.622 371.62Z" fill="black"/>
<path d="M636.714 417.255C635.99 417.255 635.218 417.129 634.399 416.877C633.58 416.656 632.887 416.388 632.32 416.072C631.753 415.757 631.47 415.473 631.47 415.221C631.47 415 631.596 414.716 631.848 414.369C632.1 414.022 632.383 413.722 632.698 413.47C633.045 413.186 633.328 413.044 633.549 413.044C633.895 413.044 634.21 413.139 634.493 413.328C634.777 413.517 635.076 413.738 635.391 413.99C635.801 414.337 636.273 414.669 636.808 414.984C637.344 415.3 638.053 415.457 638.934 415.457C640.1 415.457 641.202 415.158 642.242 414.558C643.281 413.959 644.131 413.139 644.793 412.098C645.486 411.025 645.832 409.842 645.832 408.549C645.832 407.319 645.628 406.136 645.218 405.001C644.809 403.865 644.194 402.934 643.376 402.209C642.588 401.452 641.58 401.073 640.352 401.073C640.005 401.073 639.533 401.121 638.934 401.215C638.368 401.278 637.816 401.468 637.281 401.783C637.123 401.878 636.934 401.878 636.714 401.783C636.525 401.657 636.446 401.515 636.478 401.357C636.604 400.947 636.793 400.616 637.045 400.364C637.297 400.08 637.58 399.875 637.895 399.748C638.179 399.622 638.635 399.386 639.265 399.039C639.895 398.66 640.557 398.203 641.249 397.667C641.974 397.099 642.588 396.468 643.092 395.774C643.596 395.048 643.848 394.26 643.848 393.408C643.848 392.115 643.423 390.979 642.572 390.001C641.753 388.992 640.698 388.487 639.407 388.487C638.179 388.487 637.186 388.708 636.43 389.15C635.706 389.56 635.123 390.049 634.682 390.617C634.241 391.153 633.911 391.642 633.69 392.083C633.47 392.493 633.265 392.698 633.076 392.698C632.95 392.698 632.793 392.604 632.604 392.415C632.415 392.225 632.32 392.02 632.32 391.799C632.32 391.389 632.493 390.853 632.84 390.191C633.186 389.497 633.722 388.803 634.446 388.109C635.202 387.415 636.147 386.831 637.281 386.358C638.446 385.885 639.832 385.648 641.438 385.648C642.478 385.648 643.454 385.885 644.368 386.358C645.313 386.8 646.084 387.431 646.683 388.251C647.281 389.039 647.58 389.97 647.58 391.042C647.58 391.799 647.423 392.588 647.108 393.408C646.793 394.228 646.273 395.048 645.549 395.869C644.824 396.657 643.848 397.414 642.62 398.14C642.525 398.171 642.478 398.234 642.478 398.329C642.478 398.392 642.541 398.424 642.667 398.424C644.021 398.424 645.234 398.771 646.305 399.465C647.376 400.127 648.226 401.026 648.856 402.162C649.517 403.266 649.848 404.496 649.848 405.852C649.848 407.619 649.47 409.212 648.714 410.631C647.958 412.019 646.95 413.218 645.691 414.227C644.431 415.205 643.013 415.946 641.438 416.451C639.895 416.987 638.32 417.255 636.714 417.255Z" fill="black"/>
<path d="M273.392 298.829C273.229 298.829 273.034 298.78 272.805 298.682C272.609 298.584 272.512 298.421 272.512 298.192C272.512 298.029 272.609 297.898 272.805 297.8C273.001 297.702 273.197 297.637 273.392 297.604C274.925 297.408 275.937 297.082 276.426 296.624C276.915 296.167 277.16 295.546 277.16 294.762V290.205C277.16 290.042 277.046 289.927 276.817 289.862C276.589 289.797 276.459 289.764 276.426 289.764C275.089 289.764 273.833 289.797 272.658 289.862C271.517 289.895 270.31 289.944 269.038 290.009C267.765 290.042 266.265 290.074 264.536 290.107C264.406 290.107 264.292 290.058 264.194 289.96C264.096 289.829 264.047 289.715 264.047 289.617C264.047 289.552 264.063 289.503 264.096 289.47C264.52 288.947 264.83 288.588 265.025 288.392C265.221 288.163 265.384 287.984 265.515 287.853C265.645 287.69 265.808 287.461 266.004 287.167L278.921 268.595C279.117 268.301 279.345 268.007 279.606 267.713C279.9 267.386 280.161 267.223 280.389 267.223H281.417C281.58 267.223 281.596 267.337 281.466 267.566C281.368 267.794 281.319 267.909 281.319 267.909L268.108 286.922C268.075 286.987 268.043 287.085 268.01 287.216C267.978 287.314 268.01 287.363 268.108 287.363H276.573C276.703 287.363 276.834 287.33 276.964 287.265C277.095 287.167 277.16 287.069 277.16 286.971V279.375C277.16 279.016 277.176 278.771 277.209 278.64C277.274 278.51 277.405 278.395 277.6 278.297C278.09 278.036 278.611 277.873 279.166 277.807C279.721 277.709 280.112 277.66 280.34 277.66C280.699 277.66 280.911 277.922 280.976 278.444C281.042 278.967 281.074 279.751 281.074 280.796V287.118C281.074 287.314 281.156 287.412 281.319 287.412C281.678 287.444 282.02 287.461 282.346 287.461C282.673 287.461 282.982 287.461 283.276 287.461C283.733 287.461 284.189 287.461 284.646 287.461C285.135 287.428 285.641 287.395 286.163 287.363C286.522 287.363 286.701 287.493 286.701 287.755C286.701 288.016 286.62 288.294 286.456 288.588C286.326 288.882 286.179 289.127 286.016 289.323C285.853 289.519 285.739 289.617 285.674 289.617C285.315 289.617 284.923 289.617 284.499 289.617C284.075 289.584 283.667 289.568 283.276 289.568C282.982 289.568 282.705 289.584 282.444 289.617C282.183 289.617 281.955 289.633 281.759 289.666C281.629 289.699 281.482 289.748 281.319 289.813C281.188 289.878 281.123 289.927 281.123 289.96V294.566C281.123 295.514 281.335 296.167 281.759 296.526C282.216 296.886 283.097 297.245 284.401 297.604C284.597 297.637 284.793 297.719 284.989 297.849C285.184 297.98 285.282 298.127 285.282 298.29C285.282 298.421 285.201 298.552 285.037 298.682C284.907 298.78 284.744 298.829 284.548 298.829C283.635 298.829 282.901 298.797 282.346 298.731C281.824 298.699 281.335 298.666 280.879 298.633C280.422 298.601 279.802 298.584 279.019 298.584C278.204 298.584 277.535 298.601 277.013 298.633C276.524 298.666 276.018 298.699 275.496 298.731C274.974 298.797 274.273 298.829 273.392 298.829Z" fill="black"/>
<path d="M18.9704 117.607C18.6225 117.607 18.2429 117.559 17.8317 117.464C17.4205 117.401 17.2148 117.258 17.2148 117.037C17.2148 116.783 17.4205 116.561 17.8317 116.371C18.2745 116.213 18.6383 116.134 18.923 116.134C21.422 116.134 23.4781 115.69 25.0913 114.803C26.7362 113.885 27.9541 112.744 28.7449 111.382C29.5673 110.02 29.9785 108.657 29.9785 107.295C29.9785 106.06 29.6148 104.967 28.8872 104.016C28.1597 103.066 26.9576 102.195 25.2811 101.403C23.6362 100.611 21.4061 99.8506 18.5909 99.122C18.1796 98.7735 17.8791 98.425 17.6893 98.0766C17.5312 97.7281 17.4521 97.348 17.4521 96.9361C17.4521 96.4926 17.5312 95.9541 17.6893 95.3205C17.8791 94.6869 18.1006 94.0216 18.3536 93.3247C18.6067 92.5961 18.8597 91.8833 19.1128 91.1863C19.3658 90.4894 19.5715 89.8875 19.7296 89.3806C19.8878 88.9054 20.125 88.5411 20.4414 88.2877C20.7577 88.0026 21.1689 87.7967 21.675 87.6699C22.4026 87.4799 23.1459 87.3056 23.9051 87.1472C24.6643 86.9888 25.4551 86.8463 26.2775 86.7196C27.1 86.5612 27.9382 86.4345 28.7923 86.3394C29.678 86.2127 30.5795 86.1018 31.4969 86.0068C31.7499 85.9751 31.9239 86.0543 32.0188 86.2444C32.1454 86.4028 32.1454 86.5929 32.0188 86.8146C31.8923 87.068 31.7499 87.3373 31.5918 87.6224C31.4653 87.8759 31.3387 88.1293 31.2122 88.3827C30.9908 88.8579 30.7377 89.2222 30.453 89.4757C30.2 89.6974 29.8678 89.84 29.4566 89.9033C28.8556 89.9667 28.1597 90.0459 27.3689 90.1409C26.578 90.2043 25.7872 90.2835 24.9964 90.3785C24.2056 90.4419 23.4781 90.5052 22.8138 90.5686C22.1495 90.632 21.6434 90.6953 21.2954 90.7587C21.074 90.7904 20.8051 91.0755 20.4888 91.614C20.1725 92.1209 19.8878 92.6753 19.6347 93.2772C19.3817 93.8474 19.2393 94.2592 19.2077 94.5127C19.1761 94.7344 19.1919 94.9245 19.2551 95.0829C19.35 95.2413 19.5398 95.3522 19.8245 95.4155C21.5959 95.9224 23.2092 96.4451 24.6643 96.9836C26.1194 97.4905 27.3847 98.0291 28.4602 98.5993C30.2316 99.518 31.5443 100.611 32.3984 101.878C33.2841 103.114 33.727 104.698 33.727 106.63C33.727 108.372 33.205 110.004 32.1612 111.524C31.1173 113.045 29.7097 114.312 27.9382 115.326C27.0842 115.801 26.1826 116.197 25.2337 116.514C24.2847 116.862 23.2883 117.132 22.2444 117.322C21.2005 117.512 20.1092 117.607 18.9704 117.607Z" fill="black"/>
<path d="M318.832 51.7201C317.2 51.7201 315.633 51.3517 314.13 50.615C312.626 49.8782 311.395 48.7731 310.435 47.2996C309.476 45.794 308.996 43.9201 308.996 41.6778C308.996 39.884 309.204 38.2503 309.62 36.7768C310.036 35.3033 310.563 34.0059 311.203 32.8848C311.843 31.7316 312.483 30.7546 313.122 29.9538C313.794 29.1209 314.354 28.4803 314.801 28.0318C315.601 27.1989 316.625 26.27 317.872 25.2449C319.12 24.2199 320.559 23.2429 322.19 22.3139C323.853 21.385 325.661 20.6642 327.612 20.1517C327.9 20.0877 328.123 20.1037 328.283 20.1998C328.475 20.2959 328.539 20.392 328.475 20.4881C328.347 20.7764 328.139 21.0006 327.852 21.1608C327.596 21.2889 327.388 21.385 327.228 21.4491C325.085 22.378 323.23 23.4351 321.662 24.6203C320.127 25.8055 318.752 27.279 317.536 29.0408C317.024 29.8096 316.417 30.8667 315.713 32.2121C315.009 33.5254 314.402 34.999 313.89 36.6326C313.378 38.2663 313.122 39.916 313.122 41.5817C313.154 43.3435 313.522 44.8491 314.226 46.0983C314.929 47.3156 315.793 48.2445 316.817 48.8852C317.872 49.5259 318.928 49.8622 319.983 49.8942C321.295 49.9263 322.446 49.4778 323.438 48.5489C324.429 47.5879 324.925 46.1144 324.925 44.1283C324.925 43.1353 324.733 42.2224 324.349 41.3895C323.997 40.5246 323.486 39.8199 322.814 39.2753C322.174 38.7308 321.422 38.4585 320.559 38.4585C319.727 38.4585 319.008 38.5065 318.4 38.6026C317.824 38.6987 317.264 38.8909 316.721 39.1792C316.433 39.3074 316.257 39.3074 316.193 39.1792C316.161 39.0191 316.225 38.8429 316.385 38.6507C316.641 38.3944 316.849 38.1862 317.008 38.0261C317.2 37.8659 317.424 37.6897 317.68 37.4975C318.032 37.2413 318.672 36.9209 319.599 36.5365C320.559 36.1201 321.486 35.9119 322.382 35.9119C323.502 35.9119 324.525 36.1682 325.453 36.6807C326.412 37.1932 327.18 37.8979 327.756 38.7948C328.363 39.6597 328.667 40.6688 328.667 41.822C328.667 43.3275 328.379 44.6889 327.804 45.9061C327.228 47.1234 326.46 48.1645 325.501 49.0293C324.541 49.8942 323.47 50.5509 322.286 50.9994C321.135 51.4799 319.983 51.7201 318.832 51.7201Z" fill="black"/>
<path d="M450.123 31.6068C449.772 31.6068 449.516 31.4787 449.356 31.2226C449.196 30.9984 449.116 30.7102 449.116 30.3579C449.116 30.2619 449.228 30.0057 449.452 29.5894C449.676 29.1731 449.9 28.7728 450.123 28.3885L463.697 4.08295C463.761 3.98688 463.777 3.89081 463.745 3.79474C463.745 3.69867 463.569 3.63463 463.217 3.6026H450.939C450.171 3.6026 449.5 3.74671 448.924 4.03491C448.349 4.32312 447.789 4.91555 447.246 5.8122C447.182 5.90827 447.086 6.05237 446.958 6.24451C446.862 6.43665 446.734 6.61278 446.574 6.77289C446.414 6.93301 446.254 7.01307 446.095 7.01307C445.967 7.01307 445.871 6.93301 445.807 6.77289C445.775 6.61278 445.759 6.46867 445.759 6.34058C445.759 6.18047 445.775 6.00434 445.807 5.8122C445.871 5.58804 445.919 5.41191 445.951 5.28382C446.111 4.57931 446.254 3.76272 446.382 2.83405C446.542 1.90538 446.654 1.13682 446.718 0.528383C446.75 0.304221 446.814 0.160116 446.91 0.096071C447.038 0.0320237 447.134 0 447.198 0C447.262 0 447.693 0.0800577 448.493 0.240173C449.324 0.368266 450.235 0.432312 451.227 0.432312C451.706 0.432312 452.154 0.432312 452.57 0.432312C453.017 0.432312 453.513 0.448324 454.056 0.480346C454.6 0.480346 455.239 0.480346 455.975 0.480346C457.542 0.480346 459.108 0.480346 460.675 0.480346C462.274 0.448324 463.649 0.416301 464.8 0.384278C465.983 0.320233 466.719 0.272198 467.006 0.240173C467.07 0.240173 467.134 0.320231 467.198 0.480346C467.262 0.608439 467.294 0.736532 467.294 0.864625C467.294 1.12081 467.166 1.47306 466.91 1.92139C466.687 2.33769 466.431 2.75399 466.143 3.17029C465.855 3.58659 465.631 3.93884 465.472 4.22705L451.035 30.3099C450.907 30.5661 450.747 30.8383 450.555 31.1265C450.363 31.4467 450.219 31.6068 450.123 31.6068Z" fill="black"/>
<path d="M835.379 55.7915C833.859 55.7915 832.422 55.4776 831.067 54.8499C829.746 54.1891 828.672 53.2805 827.846 52.1241C827.02 50.9677 826.607 49.6296 826.607 48.1098C826.607 46.6561 826.987 45.4171 827.747 44.3929C828.507 43.3687 829.399 42.5262 830.423 41.8654C831.48 41.1715 832.422 40.5933 833.248 40.1308C833.479 39.9986 833.562 39.8995 833.496 39.8334C833.43 39.7674 833.298 39.6517 833.099 39.4865C832.108 38.6275 831.167 37.818 830.274 37.0581C829.415 36.2652 828.705 35.3896 828.143 34.4315C827.615 33.4403 827.35 32.2509 827.35 30.8632C827.35 29.5747 827.797 28.4018 828.689 27.3445C829.581 26.2873 830.72 25.4448 832.108 24.817C833.496 24.1893 834.917 23.8754 836.37 23.8754C837.692 23.8754 838.947 24.1562 840.137 24.7179C841.359 25.2465 842.35 26.0064 843.11 26.9976C843.87 27.9888 844.25 29.1617 844.25 30.5163C844.25 31.7057 843.953 32.6804 843.358 33.4403C842.763 34.1672 842.185 34.7784 841.624 35.274C841.161 35.6705 840.748 36.0174 840.385 36.3147C840.021 36.5791 839.559 36.926 838.997 37.3555C838.567 37.6528 838.353 37.8676 838.353 37.9998C838.353 38.0989 838.485 38.231 838.749 38.3962C840.005 39.2553 841.111 40.0978 842.07 40.9237C843.028 41.7497 843.771 42.6418 844.3 43.5999C844.861 44.5581 845.142 45.6814 845.142 46.97C845.142 48.688 844.663 50.2078 843.705 51.5294C842.747 52.851 841.524 53.8917 840.038 54.6516C838.551 55.4115 836.998 55.7915 835.379 55.7915ZM836.073 54.3543C837.527 54.3543 838.733 53.8256 839.691 52.7684C840.682 51.6781 841.177 50.4061 841.177 48.9523C841.177 47.9281 840.88 46.9534 840.285 46.0283C839.724 45.1032 838.997 44.2442 838.105 43.4513C837.213 42.6253 836.288 41.8819 835.329 41.2211C835.131 41.0559 834.95 40.9403 834.784 40.8742C834.652 40.7751 834.504 40.7255 834.338 40.7255C834.206 40.7255 834.008 40.8246 833.744 41.0229C832.686 41.8819 831.893 42.7574 831.365 43.6495C830.836 44.5085 830.572 45.731 830.572 47.3169C830.572 48.4733 830.787 49.5966 831.216 50.6869C831.646 51.7442 832.273 52.6197 833.099 53.3135C833.925 54.0074 834.917 54.3543 836.073 54.3543ZM837.659 37.3555C838.815 36.3973 839.559 35.3401 839.889 34.1837C840.252 33.0273 840.434 31.6892 840.434 30.1694C840.434 28.7818 840.071 27.5923 839.344 26.6012C838.65 25.5769 837.576 25.0648 836.122 25.0648C835.363 25.0648 834.603 25.2796 833.843 25.7091C833.083 26.1386 832.439 26.7168 831.91 27.4437C831.414 28.1705 831.167 28.98 831.167 29.8721C831.167 31.1276 831.398 32.1187 831.86 32.8456C832.356 33.5725 833.033 34.2498 833.892 34.8775C834.784 35.4722 835.809 36.2487 836.965 37.2068C837.064 37.2729 837.18 37.339 837.312 37.405C837.444 37.4381 837.56 37.4216 837.659 37.3555Z" fill="black"/>
<path d="M997.207 50.7045C996.952 50.7045 996.776 50.6566 996.681 50.5608C996.585 50.497 996.537 50.4172 996.537 50.3214C996.537 50.1617 996.601 50.034 996.728 49.9383C996.888 49.8744 997.047 49.8425 997.207 49.8425C998.163 49.8425 999.263 49.5392 1000.51 48.9326C1001.78 48.2941 1003.06 47.448 1004.33 46.3945C1005.64 45.309 1006.8 44.1117 1007.82 42.8028C1008.84 41.4619 1009.66 40.1529 1010.26 38.8759C1010.9 37.5988 1011.36 36.2899 1011.65 34.949C1011.93 33.5761 1012.08 32.1235 1012.08 30.591C1012.08 29.4417 1011.89 28.2924 1011.5 27.143C1011.15 25.9937 1010.66 24.9401 1010.02 23.9823C1009.42 23.0246 1008.7 22.2583 1007.87 21.6837C1007.07 21.109 1006.24 20.8217 1005.38 20.8217C1004.36 20.8217 1003.5 21.109 1002.8 21.6837C1002.1 22.2264 1001.57 22.9128 1001.22 23.7429C1000.87 24.5411 1000.7 25.3392 1000.7 26.1374C1000.7 27.0951 1000.92 28.037 1001.37 28.9628C1001.84 29.8887 1002.47 30.6549 1003.23 31.2615C1004 31.8362 1004.79 32.1235 1005.62 32.1235C1006.61 32.1235 1007.34 31.9958 1007.82 31.7404C1008.3 31.4531 1008.84 31.1657 1009.45 30.8784C1009.58 30.8145 1009.67 30.8624 1009.74 31.022C1009.83 31.1817 1009.85 31.3094 1009.78 31.4052C1009.62 31.7244 1009.38 32.0437 1009.07 32.3629C1008.75 32.6503 1008.46 32.8897 1008.2 33.0813C1007.98 33.2409 1007.63 33.4484 1007.15 33.7038C1006.67 33.9593 1006.15 34.1827 1005.57 34.3743C1005 34.5658 1004.41 34.6616 1003.81 34.6616C1002.72 34.6616 1001.65 34.4062 1000.6 33.8954C999.582 33.3527 998.737 32.6343 998.067 31.7404C997.43 30.8145 997.111 29.7769 997.111 28.6276C997.111 27.5421 997.35 26.4407 997.828 25.3232C998.306 24.2058 998.976 23.1842 999.837 22.2583C1000.73 21.3006 1001.78 20.5343 1002.99 19.9597C1004.2 19.385 1005.53 19.0977 1006.96 19.0977C1008.11 19.0977 1009.22 19.4169 1010.31 20.0554C1011.42 20.662 1012.41 21.4921 1013.27 22.5457C1014.17 23.5673 1014.87 24.7326 1015.38 26.0416C1015.89 27.3505 1016.14 28.6914 1016.14 30.0643C1016.14 32.0437 1015.87 33.8794 1015.33 35.5715C1014.79 37.2317 1014.01 38.828 1012.99 40.3604C1011.97 41.8929 1010.72 43.4573 1009.26 45.0536C1008.4 46.0113 1007.44 46.8414 1006.39 47.5438C1005.34 48.2462 1004.27 48.8368 1003.18 49.3157C1002.1 49.7946 1001.03 50.1458 999.98 50.3693C998.96 50.5927 998.035 50.7045 997.207 50.7045Z" fill="black"/>
<path d="M426.631 36.3945H475.406L509.357 70.3958" stroke="black" stroke-width="1.91557"/>
<path d="M261.178 90.1895L295.667 55.6495L343.681 55.6495" stroke="black" stroke-width="1.91557"/>
<path d="M0 121.438H48.7752L82.7265 155.439" stroke="black" stroke-width="1.91557"/>
<path d="M247.311 303.805L302.231 303.115L339.981 264.349" stroke="black" stroke-width="1.91557"/>
<path d="M576 382.074L614.838 420.969L668.906 420.969" stroke="black" stroke-width="1.91557"/>
<path d="M895.254 337.396L934.092 376.291L988.16 376.291" stroke="black" stroke-width="1.91557"/>
<path d="M1259.44 161.492L1204.52 161.492L1166.29 199.78" stroke="black" stroke-width="1.91557"/>
<path d="M1069.47 95.0664L1030.63 56.1716L976.567 56.1716" stroke="black" stroke-width="1.91557"/>
<path d="M862.029 58.7344L807.104 58.7344L768.872 97.0226" stroke="black" stroke-width="1.91557"/>
</svg>
