<svg width="285" height="255" viewBox="0 0 285 255" fill="none" xmlns="http://www.w3.org/2000/svg">
<path d="M109.761 237.927L109.768 237.929L109.775 237.931C122.126 241.826 134.939 243.368 148.207 242.561C164.859 241.548 179.47 237.738 192.016 231.104C204.532 224.488 214.832 215.977 222.9 205.569C230.955 195.178 236.81 183.506 240.465 170.562C244.117 157.631 245.535 144.43 244.718 130.965C243.816 116.094 240.285 102.764 234.108 90.9933C227.935 79.0537 219.953 69.0263 210.162 60.9242C200.367 52.6291 189.289 46.5324 176.937 42.6365C164.572 38.5411 151.75 36.8982 138.48 37.7056C121.828 38.7187 107.217 42.529 94.6703 49.1621C82.1548 55.779 71.8544 64.2897 63.7865 74.6978C55.7321 85.0885 49.8772 96.7592 46.2219 109.702C42.5565 122.438 41.1399 135.64 41.9686 149.301C42.8707 164.174 46.408 177.602 52.5951 189.569L52.598 189.574C58.7601 201.316 66.7404 211.34 76.538 219.637L76.5469 219.645C86.3291 227.739 97.4031 233.833 109.761 237.927ZM209.697 188.504L209.695 188.511C205.48 200.194 198.579 209.556 188.987 216.629C179.404 223.486 167.044 227.409 151.843 228.334C139.435 229.088 128.496 227.185 118.997 222.659C109.455 217.919 101.259 211.127 94.4057 202.266C87.7378 193.374 82.4528 183.001 78.5588 171.134C74.8608 159.245 72.5881 146.364 71.7463 132.487C70.8099 117.049 72.5747 103.587 77.003 92.0737L77.0053 92.0676C81.4182 80.3668 88.4263 71.0959 98.0298 64.2216C107.617 57.3591 119.781 53.4495 134.581 52.5491C146.993 51.7941 157.933 53.6991 167.434 58.2268C176.959 62.7663 185.045 69.4614 191.697 78.3303L191.704 78.3402L191.712 78.3499C198.562 87.0272 203.938 97.292 207.831 109.158C211.727 121.033 214.093 133.806 214.922 147.481C215.859 162.917 214.107 176.584 209.697 188.504Z" stroke="black" stroke-width="2"/>
<line y1="-2" x2="377.215" y2="-2" transform="matrix(0.746483 0.665403 -0.66431 0.747458 0 3.10449)" stroke="#FF9900" stroke-width="4"/>
</svg>
