<svg width="294" height="451" viewBox="0 0 294 451" fill="none" xmlns="http://www.w3.org/2000/svg">
<path d="M253.052 429.727C252.844 429.727 252.657 429.644 252.491 429.478C252.325 429.27 252.242 429.041 252.242 428.791C252.242 428.583 252.304 428.375 252.429 428.167C252.595 427.917 252.803 427.792 253.052 427.792C253.634 427.751 254.195 427.688 254.735 427.605C255.275 427.522 255.732 427.293 256.106 426.918C256.48 426.544 256.667 425.94 256.667 425.108V415.744C256.667 414.912 256.314 414.267 255.608 413.809C254.943 413.31 254.195 412.998 253.364 412.873C253.114 412.831 252.907 412.727 252.74 412.561C252.574 412.394 252.491 412.228 252.491 412.061C252.491 411.562 252.699 411.271 253.114 411.187C254.693 411.021 256.002 410.626 257.041 410.001C258.122 409.377 258.828 408.878 259.161 408.503C259.244 408.42 259.348 408.358 259.472 408.316C259.597 408.274 259.68 408.254 259.722 408.254C260.179 408.254 260.366 408.545 260.283 409.127C260.241 409.544 260.158 410.126 260.033 410.875C259.95 411.624 259.909 412.498 259.909 413.497V425.108C259.909 426.19 260.116 426.856 260.532 427.106C260.989 427.355 261.903 427.584 263.275 427.792C263.524 427.834 263.711 427.959 263.836 428.167C263.96 428.375 264.022 428.583 264.022 428.791C264.022 428.999 263.96 429.207 263.836 429.415C263.711 429.623 263.524 429.727 263.275 429.727C262.111 429.727 261.28 429.707 260.781 429.665C260.324 429.623 259.929 429.603 259.597 429.603C259.306 429.561 258.828 429.54 258.163 429.54C257.498 429.54 257 429.561 256.667 429.603C256.335 429.603 255.919 429.623 255.421 429.665C254.964 429.707 254.174 429.727 253.052 429.727ZM284.717 406.631C285.008 406.173 285.34 405.881 285.714 405.757C286.13 405.632 286.608 405.569 287.148 405.569C287.356 405.569 287.543 405.653 287.709 405.819C287.917 405.985 288.02 406.173 288.02 406.381C288.02 406.506 288 406.589 287.958 406.631L260.657 450.015C260.407 450.431 260.075 450.681 259.659 450.764C259.285 450.889 258.87 450.952 258.413 450.952C258.163 450.952 257.914 450.868 257.665 450.702C257.457 450.535 257.353 450.369 257.353 450.202C257.353 450.119 257.374 450.057 257.415 450.015L284.717 406.631ZM290.888 448.142C290.015 448.142 289.184 448.122 288.394 448.08C287.605 448.038 286.857 447.997 286.15 447.955C285.486 447.914 284.8 447.893 284.093 447.893C283.47 447.893 282.764 447.893 281.974 447.893C281.185 447.934 280.437 447.955 279.73 447.955C279.024 447.997 278.463 448.018 278.047 448.018C277.881 448.018 277.715 447.934 277.549 447.768C277.382 447.643 277.299 447.518 277.299 447.393C277.299 447.269 277.465 447.06 277.798 446.769L280.229 444.584C281.102 443.794 282.078 442.816 283.159 441.65C284.239 440.485 285.174 439.237 285.963 437.905C286.753 436.573 287.148 435.346 287.148 434.222C287.148 432.89 286.815 431.871 286.15 431.163C285.527 430.456 284.696 430.102 283.657 430.102C282.577 430.102 281.683 430.289 280.977 430.664C280.312 431.038 279.543 431.704 278.671 432.661C278.504 432.911 278.317 433.036 278.11 433.036C277.985 433.036 277.881 432.953 277.798 432.786C277.715 432.578 277.673 432.37 277.673 432.162C277.673 431.787 277.943 431.184 278.484 430.352C279.065 429.519 279.896 428.749 280.977 428.042C282.099 427.293 283.429 426.918 284.966 426.918C286.878 426.918 288.291 427.501 289.205 428.666C290.16 429.79 290.638 431.142 290.638 432.724C290.638 433.556 290.41 434.472 289.953 435.47C289.496 436.469 288.893 437.426 288.145 438.342C287.605 439.008 287.065 439.653 286.524 440.277C285.984 440.901 285.444 441.484 284.904 442.025C284.405 442.566 283.948 443.045 283.532 443.461C283.117 443.877 282.764 444.189 282.473 444.397C282.348 444.522 282.39 444.605 282.598 444.647C282.805 444.688 282.972 444.709 283.096 444.709H287.646C288.602 444.709 289.392 444.418 290.015 443.835C290.68 443.253 291.345 442.503 292.01 441.588C292.176 441.38 292.301 441.213 292.384 441.089C292.508 440.964 292.695 440.901 292.945 440.901C293.111 440.901 293.194 440.964 293.194 441.089C293.194 441.213 293.194 441.317 293.194 441.401C293.194 441.484 292.965 442.129 292.508 443.336C292.093 444.543 291.74 445.874 291.449 447.331C291.407 447.664 291.324 447.872 291.199 447.955C291.075 448.08 290.971 448.142 290.888 448.142Z" fill="black"/>
<path d="M274.769 303.26C273.723 303.26 272.796 302.879 271.988 302.117C271.227 301.308 270.847 300.379 270.847 299.332C270.847 298.237 271.227 297.308 271.988 296.546C272.796 295.784 273.723 295.403 274.769 295.403C275.863 295.403 276.79 295.784 277.551 296.546C278.312 297.308 278.692 298.237 278.692 299.332C278.692 300.379 278.312 301.308 277.551 302.117C276.79 302.879 275.863 303.26 274.769 303.26ZM269.991 332.545C269.135 332.545 268.707 332.283 268.707 331.76C268.707 331.569 268.778 331.379 268.921 331.188C269.111 331.045 269.373 330.95 269.706 330.903C270.752 330.664 271.798 330.26 272.844 329.688C273.89 329.117 274.769 328.284 275.483 327.188C276.196 326.141 276.552 324.784 276.552 323.117C276.552 322.546 276.291 321.903 275.768 321.188C275.245 320.427 274.579 320.022 273.771 319.974C272.725 319.879 271.893 319.546 271.275 318.974C270.704 318.403 270.419 317.736 270.419 316.974C270.419 316.022 270.799 315.236 271.56 314.617C272.368 313.998 273.295 313.689 274.341 313.689C276.053 313.689 277.456 314.355 278.549 315.689C279.691 316.974 280.261 318.617 280.261 320.617C280.261 322.427 279.905 324.046 279.191 325.474C278.478 326.95 277.575 328.212 276.481 329.26C275.388 330.307 274.246 331.117 273.058 331.688C271.917 332.26 270.894 332.545 269.991 332.545Z" fill="black"/>
<path d="M83.8743 451C83.6834 451 83.4766 450.814 83.2539 450.443C82.7766 449.545 82.2517 448.694 81.679 447.889C81.1063 447.116 80.5019 446.373 79.8656 445.661C79.2293 444.949 78.5611 444.253 77.8612 443.572C77.1931 442.891 76.5091 442.225 75.8091 441.575C75.6819 441.42 75.5546 441.235 75.4273 441.018C75.3319 440.77 75.2842 440.538 75.2842 440.322C75.2842 440.074 75.3478 439.935 75.4751 439.904C75.6023 439.842 75.7137 439.842 75.8091 439.904C76.7954 440.275 77.718 440.709 78.577 441.204C79.4361 441.699 80.2155 442.21 80.9155 442.736C81.6154 443.262 82.2358 443.788 82.7766 444.314V418.687C82.363 419.058 81.8222 419.507 81.1541 420.033C80.5178 420.528 79.8337 421.023 79.102 421.519C78.3702 421.983 77.6862 422.385 77.0499 422.726C76.4454 423.035 75.9682 423.19 75.6182 423.19C75.491 423.19 75.3955 423.144 75.3319 423.051C75.3001 422.958 75.2842 422.849 75.2842 422.726C75.2842 422.509 75.3319 422.277 75.4273 422.029C75.5546 421.782 75.6819 421.596 75.8091 421.472C76.5091 420.822 77.1931 420.157 77.8612 419.476C78.5611 418.795 79.2293 418.098 79.8656 417.387C80.5019 416.675 81.1063 415.932 81.679 415.158C82.2517 414.353 82.7766 413.502 83.2539 412.605C83.4129 412.295 83.5243 412.125 83.5879 412.094C83.6516 412.032 83.747 412.001 83.8743 412.001C84.0333 412.001 84.1447 412.047 84.2083 412.14C84.2719 412.202 84.3674 412.341 84.4947 412.558C84.9719 413.456 85.4968 414.307 86.0695 415.112C86.6422 415.885 87.2467 416.628 87.883 417.34C88.5193 418.052 89.1715 418.748 89.8396 419.429C90.5395 420.11 91.2395 420.776 91.9394 421.426C92.0985 421.55 92.2257 421.735 92.3212 421.983C92.4166 422.23 92.4643 422.463 92.4643 422.679C92.4643 422.989 92.353 423.144 92.1303 423.144C92.0985 423.144 92.0667 423.144 92.0348 423.144C92.0348 423.144 92.003 423.128 91.9394 423.097C90.9531 422.726 90.0305 422.292 89.1715 421.797C88.3125 421.302 87.533 420.791 86.8331 420.265C86.1331 419.708 85.5127 419.182 84.9719 418.687V444.314C85.5446 443.788 86.1809 443.247 86.8808 442.689C87.5807 442.163 88.3443 441.653 89.1715 441.157C90.0305 440.662 90.9531 440.229 91.9394 439.857C92.003 439.826 92.0348 439.811 92.0348 439.811C92.0667 439.811 92.0985 439.811 92.1303 439.811C92.353 439.811 92.4643 439.966 92.4643 440.275C92.4643 440.492 92.4166 440.724 92.3212 440.972C92.2257 441.188 92.0985 441.374 91.9394 441.529C91.2395 442.179 90.5395 442.844 89.8396 443.525C89.1715 444.206 88.5193 444.902 87.883 445.614C87.2467 446.326 86.6422 447.069 86.0695 447.843C85.4968 448.648 84.9719 449.499 84.4947 450.396C84.3674 450.706 84.2719 450.876 84.2083 450.907C84.1447 450.969 84.0333 451 83.8743 451Z" fill="black"/>
<path d="M202.365 197.767C202.241 197.767 202.116 197.704 201.992 197.58C201.899 197.424 201.853 197.284 201.853 197.16C201.853 196.942 201.93 196.568 202.085 196.039C202.241 195.479 202.535 195.106 202.97 194.919L220.662 187.73C220.724 187.699 220.755 187.668 220.755 187.637C220.786 187.574 220.771 187.528 220.709 187.497L203.342 180.308C202.846 180.09 202.473 179.716 202.225 179.187C202.008 178.627 201.899 178.207 201.899 177.927C201.899 177.647 201.977 177.507 202.132 177.507C202.287 177.507 202.411 177.507 202.504 177.507L222.851 185.909C223.316 186.096 223.689 186.454 223.968 186.983C224.247 187.481 224.387 187.839 224.387 188.057C224.387 188.181 224.17 188.384 223.735 188.664C223.332 188.944 222.913 189.162 222.478 189.317L202.504 197.72C202.473 197.72 202.442 197.735 202.411 197.767C202.411 197.767 202.396 197.767 202.365 197.767ZM202.365 198.84H223.223C223.627 198.84 223.952 199.089 224.201 199.587C224.48 200.054 224.62 200.552 224.62 201.081C224.62 201.205 224.558 201.33 224.434 201.454C224.309 201.548 224.17 201.594 224.015 201.594H202.83C202.489 201.594 202.241 201.454 202.085 201.174C201.93 200.863 201.822 200.536 201.759 200.194C201.728 199.821 201.713 199.556 201.713 199.4C201.713 199.276 201.775 199.151 201.899 199.027C202.054 198.902 202.21 198.84 202.365 198.84Z" fill="black"/>
<path d="M26.9329 450.825C26.4008 450.825 25.9518 450.61 25.5859 450.178C25.2533 449.779 24.954 449.297 24.6879 448.732C24.4218 448.167 24.1225 447.669 23.7899 447.237C23.5904 446.971 23.2245 446.307 22.6923 445.243C22.1935 444.18 21.5948 442.884 20.8963 441.356C20.1979 439.828 19.4496 438.233 18.6513 436.571C17.8864 434.877 17.1547 433.282 16.4562 431.787C15.7578 430.258 15.1425 428.979 14.6103 427.949C14.1114 426.886 13.7622 426.238 13.5627 426.005C13.3299 425.706 13.1303 425.507 12.964 425.407C12.7977 425.274 12.648 425.208 12.515 425.208C12.3487 425.208 12.2323 425.341 12.1658 425.607C12.0993 425.839 12.066 426.055 12.066 426.254C12.066 427.484 12.066 428.813 12.066 430.242C12.066 431.67 12.0494 433.149 12.0161 434.677C11.9829 436.173 11.9496 437.651 11.9163 439.113C11.9163 440.542 11.8831 441.904 11.8166 443.2C11.75 445.127 11.5006 446.656 11.0682 447.785C10.6359 448.915 10.1203 449.712 9.52166 450.178C8.923 450.643 8.29107 450.875 7.62588 450.875C6.76114 450.909 6.01281 450.659 5.38088 450.128C4.74895 449.596 4.43299 448.882 4.43299 447.985C4.43299 447.619 4.58266 447.403 4.88199 447.337C5.18132 447.27 5.54718 447.204 5.97955 447.137C6.41192 447.038 6.86092 446.872 7.32655 446.639C7.82544 446.406 8.25781 445.941 8.62366 445.243C9.02277 444.512 9.27222 443.399 9.372 441.904C9.43852 440.841 9.57155 438.631 9.77111 435.275C10.0039 431.92 10.1203 427.8 10.1203 422.915C10.1203 422.251 9.95403 421.686 9.62144 421.221C9.28885 420.756 8.7567 420.357 8.02499 420.025C7.32655 419.692 6.37866 419.426 5.18132 419.227C5.04829 419.194 4.74895 419.061 4.28332 418.828C3.85095 418.596 3.63477 418.33 3.63477 418.031C3.63477 417.732 3.78443 417.549 4.08377 417.483C4.3831 417.383 4.61592 417.333 4.78221 417.333C6.07932 417.366 7.11036 417.4 7.87533 417.433C8.64029 417.466 9.38863 417.499 10.1203 417.533C10.852 417.566 11.8166 417.582 13.0139 417.582C13.3132 417.582 13.546 417.665 13.7123 417.832C13.8786 417.998 14.0449 418.197 14.2112 418.43C14.3775 418.629 14.7267 419.31 15.2589 420.473C15.791 421.603 16.423 422.998 17.1547 424.66C17.9196 426.321 18.7012 428.065 19.4995 429.893C20.2977 431.72 21.0626 433.481 21.7943 435.176C22.5261 436.837 23.1414 438.249 23.6402 439.412C24.1391 440.542 24.4551 441.24 24.5881 441.505C24.6546 441.638 24.8043 441.838 25.0371 442.104C25.2699 442.369 25.4861 442.502 25.6857 442.502C25.985 442.502 26.1513 442.153 26.1846 441.456C26.2178 440.99 26.2511 440.21 26.2844 439.113C26.3509 437.983 26.4008 436.704 26.434 435.275C26.4673 433.847 26.4839 432.385 26.4839 430.89C26.5172 429.361 26.5338 427.949 26.5338 426.653C26.5338 424.028 26.7832 422.035 27.2821 420.672C27.781 419.277 28.413 418.33 29.1779 417.832C29.9761 417.333 30.8076 417.084 31.6724 417.084C32.4373 417.084 32.9861 417.3 33.3187 417.732C33.6846 418.131 33.8675 418.513 33.8675 418.878C33.8675 419.31 33.5016 419.642 32.7699 419.875C32.0382 420.074 31.3398 420.423 30.6746 420.922C30.0427 421.42 29.5271 422.217 29.128 423.314C28.7289 424.377 28.5294 425.922 28.5294 427.949C28.5294 428.182 28.4961 428.813 28.4296 429.843C28.3963 430.873 28.3464 432.202 28.2799 433.83C28.2134 435.425 28.1469 437.186 28.0804 439.113C28.0471 441.007 28.0305 442.934 28.0305 444.895C28.0305 445.227 28.0305 445.642 28.0305 446.141C28.0637 446.639 28.0804 447.121 28.0804 447.586C28.0804 448.018 28.0804 448.35 28.0804 448.583C28.0804 448.915 28.097 449.264 28.1302 449.629C28.1968 449.962 28.1469 450.244 27.9806 450.477C27.8475 450.709 27.4983 450.825 26.9329 450.825ZM44.3941 438.067C44.5603 438.067 44.71 438.116 44.8431 438.216C45.0093 438.316 45.0925 438.449 45.0925 438.615C45.0925 438.648 45.0759 438.681 45.0426 438.714C45.0426 438.714 45.0426 438.731 45.0426 438.764C44.8763 439.097 44.6601 439.362 44.3941 439.562C44.1612 439.728 43.8619 439.811 43.496 439.811H32.8198C32.6535 439.811 32.4872 439.744 32.3209 439.612C32.1879 439.479 32.1214 439.346 32.1214 439.213C32.1214 438.98 32.2378 438.731 32.4706 438.465C32.7034 438.199 32.9861 438.067 33.3187 438.067H44.3941ZM38.2577 434.478C37.1601 434.478 36.1457 434.229 35.2145 433.73C34.2832 433.232 33.5349 432.534 32.9695 431.637C32.4041 430.74 32.1214 429.693 32.1214 428.497C32.1214 427.268 32.4207 426.138 33.0194 425.108C33.6513 424.078 34.4661 423.264 35.4639 422.666C36.495 422.035 37.6258 421.719 38.8564 421.719C39.9539 421.719 40.9683 422.002 41.8996 422.566C42.8309 423.098 43.5792 423.812 44.1446 424.709C44.7433 425.607 45.0426 426.603 45.0426 427.7C45.0426 428.863 44.7932 429.959 44.2943 430.989C43.7954 432.019 43.0304 432.867 41.9994 433.531C41.0016 434.162 39.7544 434.478 38.2577 434.478ZM38.8564 433.033C39.5881 433.033 40.1701 432.817 40.6025 432.385C41.0681 431.953 41.4007 431.388 41.6003 430.69C41.7998 429.992 41.8996 429.245 41.8996 428.447C41.8996 427.584 41.7499 426.753 41.4506 425.955C41.1845 425.158 40.7854 424.51 40.2533 424.012C39.7211 423.513 39.0726 423.264 38.3076 423.264C37.5759 423.264 36.9772 423.48 36.5116 423.912C36.0792 424.344 35.7633 424.909 35.5637 425.607C35.3641 426.304 35.2644 427.035 35.2644 427.8C35.2644 428.697 35.414 429.544 35.7134 430.341C36.0127 431.139 36.4284 431.787 36.9606 432.285C37.4927 432.784 38.1247 433.033 38.8564 433.033Z" fill="black"/>
<path d="M269.592 273.729C266.596 273.729 263.791 273.181 261.176 272.086C258.608 270.943 256.326 269.372 254.329 267.372C252.379 265.372 250.834 263.086 249.693 260.515C248.599 257.896 248.052 255.087 248.052 252.087C248.052 249.087 248.599 246.301 249.693 243.73C250.834 241.111 252.403 238.801 254.4 236.801C256.397 234.801 258.679 233.254 261.247 232.159C263.862 231.016 266.667 230.444 269.663 230.444C272.658 230.444 275.44 231.016 278.008 232.159C280.623 233.254 282.929 234.801 284.926 236.801C286.923 238.801 288.468 241.111 289.562 243.73C290.703 246.301 291.273 249.087 291.273 252.087C291.273 255.087 290.703 257.896 289.562 260.515C288.468 263.086 286.923 265.372 284.926 267.372C282.929 269.372 280.623 270.943 278.008 272.086C275.392 273.181 272.587 273.729 269.592 273.729ZM270.59 264.444C268.355 264.444 266.311 263.848 264.456 262.658C262.602 261.467 261.128 259.92 260.034 258.015C258.941 256.11 258.394 254.11 258.394 252.015C258.394 249.634 259.036 247.563 260.32 245.801C261.651 244.039 263.363 242.658 265.455 241.658C267.547 240.658 269.758 240.158 272.088 240.158C272.944 240.158 273.895 240.254 274.941 240.444C276.034 240.635 276.985 240.849 277.794 241.087C278.174 241.182 278.435 241.277 278.578 241.373C278.768 241.42 278.887 241.635 278.935 242.016C279.077 242.587 279.149 243.325 279.149 244.23C279.149 245.087 279.125 245.754 279.077 246.23C279.077 246.373 279.006 246.563 278.863 246.801C278.721 246.992 278.554 247.063 278.364 247.015C278.174 247.015 278.008 246.92 277.865 246.73C277.722 246.492 277.603 246.23 277.508 245.944C277.318 245.42 277.057 244.968 276.724 244.587C276.438 244.158 276.034 243.777 275.511 243.444C274.988 243.063 274.37 242.777 273.657 242.587C272.991 242.396 272.254 242.301 271.446 242.301C269.021 242.301 267.071 243.23 265.597 245.087C264.123 246.944 263.387 249.182 263.387 251.801C263.387 253.515 263.696 255.182 264.314 256.801C264.979 258.42 265.93 259.753 267.167 260.801C268.403 261.801 269.948 262.301 271.803 262.301C273.134 262.301 274.346 262.11 275.44 261.729C276.534 261.301 277.366 260.515 277.936 259.372C278.126 258.991 278.34 258.729 278.578 258.587C278.816 258.396 279.006 258.301 279.149 258.301C279.386 258.301 279.505 258.61 279.505 259.229C279.505 259.563 279.386 260.063 279.149 260.729C278.911 261.348 278.673 261.872 278.435 262.301C278.15 262.729 277.984 262.967 277.936 263.015C277.889 263.015 277.651 263.182 277.223 263.515C276.462 263.848 275.464 264.086 274.227 264.229C273.039 264.372 271.826 264.444 270.59 264.444ZM269.592 271.301C272.207 271.301 274.655 270.801 276.938 269.801C279.22 268.801 281.217 267.42 282.929 265.658C284.64 263.848 285.972 261.801 286.923 259.515C287.921 257.182 288.421 254.706 288.421 252.087C288.421 249.515 287.921 247.087 286.923 244.801C285.972 242.468 284.64 240.42 282.929 238.658C281.217 236.849 279.22 235.444 276.938 234.444C274.655 233.397 272.23 232.873 269.663 232.873C267.095 232.873 264.67 233.397 262.388 234.444C260.106 235.444 258.109 236.849 256.397 238.658C254.685 240.42 253.33 242.468 252.332 244.801C251.381 247.087 250.905 249.515 250.905 252.087C250.905 254.706 251.381 257.182 252.332 259.515C253.283 261.801 254.614 263.848 256.326 265.658C258.037 267.42 260.011 268.801 262.245 269.801C264.528 270.801 266.976 271.301 269.592 271.301Z" fill="black"/>
<path d="M262.229 46.3561C262.039 46.3561 261.873 46.2609 261.73 46.0704C261.588 45.88 261.516 45.6895 261.516 45.499V45.2847L264.654 32.6422L260.161 32.8564C259.923 32.8564 259.686 32.785 259.448 32.6422C259.258 32.4517 259.163 32.2374 259.163 31.9993C259.163 31.7612 259.186 31.3803 259.234 30.8565C259.329 30.2851 259.495 29.7613 259.733 29.2851C260.018 28.8089 260.399 28.5708 260.874 28.5708L265.653 28.3565L268.078 18.4996L263.513 18.7139C263.276 18.7139 263.038 18.6425 262.8 18.4996C262.61 18.3091 262.515 18.0948 262.515 17.8568C262.515 17.6187 262.539 17.2377 262.586 16.7139C262.681 16.1425 262.848 15.6187 263.085 15.1425C263.371 14.6664 263.751 14.4283 264.226 14.4283L269.148 14.214L272.143 1.99996C272.238 1.47616 272.524 1.14283 272.999 0.999978C273.522 0.857126 274.021 0.7857 274.497 0.7857C274.687 0.7857 274.83 0.880936 274.925 1.07141C275.02 1.21426 275.067 1.40473 275.067 1.64282C275.067 1.69044 275.044 1.73806 274.996 1.78568C274.996 1.8333 274.996 1.90472 274.996 1.99996L272.072 14.0711L280.131 13.6426L283.198 1.21426C283.293 0.690464 283.579 0.357138 284.054 0.214283C284.577 0.0714275 285.076 0 285.552 0C285.742 0 285.885 0.0952362 285.98 0.285709C286.075 0.428564 286.122 0.619036 286.122 0.857126C286.122 0.904743 286.099 0.952361 286.051 0.999978C286.051 1.0476 286.051 1.11903 286.051 1.21426L283.056 13.4997L287.264 13.2854C287.501 13.2854 287.715 13.3569 287.905 13.4997C288.096 13.6426 288.191 13.833 288.191 14.0711C288.191 14.3092 288.119 14.714 287.977 15.2854C287.834 15.8092 287.596 16.3092 287.264 16.7854C286.931 17.2615 286.503 17.5234 285.98 17.571L281.986 17.7853L279.561 27.6423L283.911 27.428C284.149 27.428 284.363 27.5232 284.553 27.7137C284.743 27.8565 284.839 28.047 284.839 28.2851C284.839 28.5232 284.767 28.9279 284.625 29.4994C284.482 30.0232 284.244 30.5231 283.911 30.9993C283.579 31.4279 283.151 31.666 282.628 31.7136L278.491 31.9279L275.424 44.499C275.329 44.9752 275.067 45.2609 274.639 45.3562C274.212 45.499 273.76 45.5704 273.284 45.5704C273.094 45.5704 272.928 45.4752 272.785 45.2847C272.642 45.0943 272.571 44.9038 272.571 44.7133V44.499L275.638 32.0707L267.507 32.4993L264.369 45.2847C264.274 45.7609 264.013 46.0466 263.585 46.1419C263.157 46.2847 262.705 46.3561 262.229 46.3561ZM268.577 28.2137L276.708 27.7851L279.061 17.9282L271.002 18.3567L268.577 28.2137Z" fill="black"/>
<path d="M212.699 153.285C212.366 153.285 212.081 153.166 211.843 152.928C211.653 152.642 211.534 152.333 211.486 152L210.559 145.428C209.751 146 208.871 146.571 207.92 147.143C207.017 147.714 206.018 148.333 204.925 149C204.83 149.095 204.711 149.166 204.568 149.214C204.425 149.262 204.283 149.285 204.14 149.285C203.855 149.285 203.57 149.214 203.284 149.071C202.999 148.881 202.856 148.619 202.856 148.285C202.856 147.904 203.07 147.5 203.498 147.071L208.705 142.928C207.801 142.5 206.874 142.047 205.923 141.571C204.972 141.095 203.95 140.547 202.856 139.928C202.619 139.833 202.405 139.666 202.214 139.428C202.072 139.143 202 138.881 202 138.643C202 138.119 202.214 137.809 202.642 137.714C203.118 137.619 203.498 137.619 203.784 137.714C204.925 138.19 206.018 138.643 207.064 139.071C208.11 139.452 209.085 139.833 209.989 140.214C209.893 139.214 209.798 138.167 209.703 137.071C209.656 135.976 209.608 134.809 209.561 133.571C209.561 133.19 209.656 132.833 209.846 132.5C210.036 132.167 210.345 132 210.773 132C211.106 132 211.367 132.143 211.558 132.429C211.795 132.667 211.938 132.952 211.986 133.286L212.913 139.857C213.721 139.286 214.601 138.714 215.552 138.143C216.503 137.524 217.501 136.905 218.547 136.286C218.642 136.19 218.761 136.119 218.904 136.071C219.046 136.024 219.189 136 219.332 136C219.617 136 219.902 136.071 220.188 136.214C220.473 136.357 220.616 136.619 220.616 137C220.616 137.381 220.402 137.786 219.974 138.214L214.767 142.357C215.718 142.785 216.645 143.238 217.549 143.714C218.5 144.143 219.522 144.69 220.616 145.357C220.853 145.452 221.043 145.643 221.186 145.928C221.376 146.166 221.471 146.404 221.471 146.643C221.471 147.119 221.234 147.428 220.758 147.571C220.33 147.666 219.974 147.666 219.688 147.571C218.547 147.047 217.454 146.595 216.408 146.214C215.409 145.833 214.434 145.452 213.483 145.071C213.578 146.071 213.65 147.119 213.697 148.214C213.792 149.309 213.864 150.476 213.911 151.714C213.911 152.095 213.816 152.452 213.626 152.785C213.436 153.119 213.127 153.285 212.699 153.285Z" fill="black"/>
<path d="M219.568 373.511C218.331 373.511 217.166 373.273 216.073 372.797C214.979 372.321 213.909 371.821 212.863 371.297C211.912 370.773 210.938 370.297 209.939 369.868C208.988 369.44 207.99 369.225 206.944 369.225C205.755 369.225 204.685 369.559 203.734 370.225C202.831 370.844 202.094 371.487 201.523 372.154C200.953 372.821 200.596 373.154 200.453 373.154C200.168 373.154 199.859 373.059 199.526 372.868C199.241 372.63 199.098 372.392 199.098 372.154C199.098 371.678 199.312 371.035 199.74 370.225C200.168 369.416 200.762 368.606 201.523 367.797C202.331 366.987 203.259 366.297 204.305 365.725C205.351 365.154 206.492 364.868 207.728 364.868C208.964 364.868 210.082 365.106 211.08 365.583C212.126 366.059 213.101 366.559 214.004 367.083C214.955 367.654 215.883 368.178 216.786 368.654C217.689 369.082 218.617 369.297 219.568 369.297C220.376 369.297 221.16 369.082 221.921 368.654C222.682 368.178 223.348 367.654 223.918 367.083C224.536 366.464 225.036 365.94 225.416 365.511C225.844 365.035 226.105 364.797 226.201 364.797C226.391 364.797 226.676 364.916 227.056 365.154C227.437 365.392 227.627 365.749 227.627 366.225C227.627 366.94 227.365 367.725 226.842 368.583C226.367 369.44 225.725 370.249 224.917 371.011C224.108 371.725 223.229 372.321 222.278 372.797C221.327 373.273 220.423 373.511 219.568 373.511Z" fill="black"/>
<path d="M197.621 44.0186C197.339 44.0186 197.058 43.9381 196.776 43.7771C196.494 43.6161 196.353 43.3948 196.353 43.1131C196.353 42.9923 196.715 42.5697 197.44 41.8453C198.165 41.0806 199.131 40.1147 200.339 38.9475C201.546 37.7804 202.855 36.5126 204.264 35.1442C205.673 33.7758 207.062 32.4276 208.43 31.0994C209.799 29.7311 211.027 28.5035 212.114 27.4169C213.241 26.29 214.087 25.4247 214.65 24.821C214.811 24.6197 214.791 24.3984 214.59 24.1569C213.463 23.1507 212.114 21.883 210.544 20.3536C209.014 18.8242 207.424 17.2546 205.773 15.6447C204.163 13.9946 202.653 12.425 201.244 10.9359C199.835 9.44677 198.688 8.21925 197.802 7.25333C196.957 6.28741 196.534 5.72396 196.534 5.56297C196.534 5.16051 196.655 4.87878 196.897 4.71779C197.138 4.55681 197.339 4.47631 197.5 4.47631C199.755 4.51656 202.029 4.55681 204.324 4.59705C206.659 4.6373 209.175 4.65742 211.873 4.65742C213.362 4.65742 214.872 4.65742 216.402 4.65742C217.972 4.65742 219.582 4.6373 221.233 4.59705C222.118 4.59705 222.903 4.49644 223.588 4.29521C224.272 4.09397 224.856 3.83237 225.339 3.5104C225.661 3.30916 226.003 3.12805 226.365 2.96707C226.728 2.80608 226.989 2.72559 227.151 2.72559C227.312 2.72559 227.493 2.78596 227.694 2.9067C227.895 3.02744 228.016 3.30916 228.056 3.75188C228.177 5.12026 228.358 6.52889 228.6 7.97777C228.841 9.3864 229.002 10.4328 229.083 11.117C229.123 11.3182 229.143 11.5396 229.143 11.7811C229.184 12.0226 229.204 12.2439 229.204 12.4451C229.204 12.7269 229.163 12.9683 229.083 13.1696C229.002 13.3306 228.841 13.4111 228.6 13.4111C228.157 13.4111 227.855 13.1897 227.694 12.747C227.573 12.264 227.432 11.8414 227.271 11.4792C226.627 9.94985 225.923 8.88332 225.158 8.27962C224.433 7.63567 223.306 7.27345 221.776 7.19296C221.011 7.11247 219.944 7.0521 218.576 7.01185C217.207 6.93136 215.717 6.85086 214.107 6.77037C212.497 6.68988 210.947 6.62951 209.457 6.58926C207.968 6.54902 206.719 6.52889 205.713 6.52889C205.27 6.52889 204.968 6.56914 204.807 6.64963C204.646 6.73012 204.566 6.83074 204.566 6.95148C204.566 7.07222 204.646 7.25333 204.807 7.49481C205.29 8.09851 206.055 8.96381 207.102 10.0907C208.189 11.2176 209.437 12.4653 210.846 13.8337C212.295 15.202 213.765 16.5704 215.254 17.9388C216.784 19.3072 218.233 20.5347 219.602 21.6214C219.964 21.9031 220.065 22.1647 219.904 22.4062C219.783 22.6074 219.662 22.7885 219.542 22.9495C216.965 25.485 214.389 28.0206 211.812 30.5561C209.236 33.0514 206.639 35.5668 204.022 38.1024C203.781 38.3438 203.72 38.5652 203.841 38.7664C203.962 38.9677 204.183 39.0884 204.505 39.1286C205.431 39.2091 206.579 39.2695 207.947 39.3098C209.356 39.35 210.866 39.3902 212.476 39.4305C214.127 39.4305 215.757 39.4305 217.368 39.4305C218.978 39.4305 220.448 39.4305 221.776 39.4305C223.225 39.4305 224.453 39.2293 225.46 38.8268C226.506 38.3841 227.452 37.3578 228.298 35.7479C228.58 35.265 228.861 34.8223 229.143 34.4198C229.425 34.0173 229.767 33.8161 230.17 33.8161C230.331 33.8161 230.452 33.8765 230.532 33.9972C230.653 34.0777 230.713 34.1984 230.713 34.3594C230.713 34.3997 230.693 34.4399 230.653 34.4802C230.653 34.5204 230.653 34.5607 230.653 34.6009C230.291 35.6071 229.928 36.6736 229.566 37.8005C229.244 38.8872 228.962 39.8933 228.721 40.819C228.479 41.7044 228.298 42.4087 228.177 42.932C228.137 43.2137 228.056 43.4552 227.936 43.6564C227.855 43.8576 227.654 43.9582 227.332 43.9582C226.446 43.9582 225.621 43.8979 224.856 43.7771C224.131 43.6966 223.346 43.6564 222.501 43.6564C220.568 43.6161 218.676 43.596 216.824 43.596C214.972 43.596 213.181 43.596 211.45 43.596C210.202 43.596 208.974 43.596 207.766 43.596C206.599 43.596 205.471 43.6161 204.385 43.6564C203.378 43.6564 202.553 43.6765 201.909 43.7168C201.265 43.7973 200.62 43.8576 199.976 43.8979C199.372 43.9784 198.587 44.0186 197.621 44.0186Z" fill="black"/>
<path d="M132.954 449.892V408.599H146.329C149.147 408.599 151.463 409.158 153.277 410.276C155.13 411.355 156.5 412.878 157.388 414.845C158.276 416.772 158.72 419.028 158.72 421.611V439.366H154.03V421.669C154.03 419.664 153.702 417.987 153.046 416.637C152.389 415.288 151.444 414.286 150.208 413.63C149.012 412.936 147.526 412.589 145.75 412.589H137.644V449.892H132.954ZM143.492 419.124H148.182V445.901H156.056C158.025 445.901 159.666 445.554 160.978 444.86C162.29 444.166 163.275 443.144 163.931 441.795C164.587 440.407 164.915 438.73 164.915 436.763V408.599H169.605V436.763C169.605 439.27 169.161 441.525 168.273 443.53C167.386 445.496 165.977 447.058 164.047 448.214C162.117 449.333 159.588 449.892 156.462 449.892H143.492V419.124Z" fill="black"/>
<path d="M276.935 213.872C275.293 213.766 273.703 213.484 272.166 213.026C270.629 212.567 269.354 211.844 268.341 210.856C267.363 209.904 266.874 208.599 266.874 206.941C266.874 205.072 266.979 203.449 267.188 202.074C267.433 200.663 267.555 199.146 267.555 197.523C267.555 196.5 267.328 195.601 266.874 194.825C266.42 194.014 265.843 193.361 265.145 192.867C264.481 192.338 263.765 191.986 262.996 191.809C262.752 191.739 262.525 191.633 262.315 191.492C262.105 191.315 262 191.121 262 190.91C262 190.733 262.088 190.557 262.262 190.381C262.437 190.169 262.717 190.01 263.101 189.904C264.044 189.658 264.848 189.305 265.511 188.846C266.175 188.388 266.682 187.806 267.031 187.1C267.38 186.36 267.555 185.478 267.555 184.455C267.555 182.797 267.433 181.28 267.188 179.905C266.979 178.494 266.874 176.871 266.874 175.037C266.874 173.379 267.38 172.056 268.393 171.069C269.407 170.046 270.699 169.305 272.271 168.847C273.843 168.353 275.45 168.071 277.092 168C277.337 168 277.546 168.071 277.721 168.212C277.931 168.353 278.035 168.547 278.035 168.794C278.035 169.076 277.878 169.27 277.564 169.376C277.249 169.446 276.952 169.499 276.673 169.534C275.555 169.675 274.594 169.905 273.791 170.222C272.987 170.54 272.376 171.051 271.957 171.757C271.538 172.462 271.328 173.467 271.328 174.772C271.328 175.972 271.38 177.083 271.485 178.106C271.625 179.093 271.747 180.063 271.852 181.016C271.957 181.933 272.009 182.903 272.009 183.926C272.009 185.09 271.642 186.148 270.909 187.1C270.21 188.017 269.372 188.793 268.393 189.428C267.415 190.063 266.559 190.539 265.826 190.857C265.721 190.892 265.686 190.927 265.721 190.963C265.791 190.998 265.861 191.033 265.931 191.068C266.35 191.174 266.891 191.439 267.555 191.862C268.254 192.285 268.935 192.814 269.599 193.449C270.297 194.084 270.874 194.79 271.328 195.566C271.782 196.342 272.009 197.171 272.009 198.052C272.009 199.075 271.957 200.063 271.852 201.015C271.747 201.932 271.625 202.902 271.485 203.925C271.38 204.913 271.328 206.006 271.328 207.206C271.328 208.476 271.52 209.463 271.904 210.169C272.324 210.909 272.917 211.438 273.686 211.756C274.455 212.109 275.398 212.338 276.516 212.444C276.795 212.479 277.092 212.514 277.406 212.55C277.721 212.62 277.878 212.796 277.878 213.079C277.878 213.326 277.773 213.52 277.564 213.661C277.389 213.837 277.179 213.908 276.935 213.872Z" fill="black"/>
<path d="M289.305 356.207C289.029 356.207 288.812 356.031 288.654 355.678C288.536 355.326 288.457 355.012 288.417 354.738C288.339 353.993 287.984 353.288 287.353 352.622C286.762 351.916 285.697 351.564 284.159 351.564H268.014C266.398 351.564 265.235 351.74 264.525 352.093C263.815 352.445 263.125 353.131 262.455 354.15C262.297 354.424 262.021 354.738 261.627 355.091C261.272 355.443 260.937 355.62 260.622 355.62C260.464 355.62 260.346 355.58 260.267 355.502C260.188 355.384 260.149 355.247 260.149 355.091C260.149 354.816 260.227 354.542 260.385 354.268C260.937 353.131 261.41 352.034 261.804 350.976C262.238 349.918 262.632 348.782 262.987 347.567C263.106 347.214 263.283 346.959 263.52 346.803C263.756 346.607 263.953 346.509 264.111 346.509C264.269 346.509 264.426 346.587 264.584 346.744C264.742 346.861 264.899 346.999 265.057 347.155C265.373 347.469 265.925 347.684 266.713 347.802C267.541 347.919 268.349 347.978 269.138 347.978H286.407C287.274 347.978 288.122 347.919 288.95 347.802C289.778 347.645 290.369 347.43 290.724 347.155C290.882 347.038 291.039 346.94 291.197 346.861C291.355 346.744 291.532 346.685 291.729 346.685C292.045 346.685 292.202 346.901 292.202 347.332C292.202 347.488 292.183 347.606 292.143 347.684C291.71 348.703 291.335 349.859 291.02 351.152C290.744 352.445 290.507 353.621 290.31 354.679C290.271 354.993 290.172 355.326 290.014 355.678C289.857 356.031 289.62 356.207 289.305 356.207ZM284.396 371.725C284.238 371.725 284.061 371.568 283.864 371.255C283.667 370.941 283.529 370.647 283.45 370.373C283.331 369.707 283.115 369.158 282.799 368.727C282.523 368.296 281.991 368.081 281.202 368.081H270.202C269.256 368.081 268.586 368.277 268.192 368.668C267.837 369.06 267.502 369.609 267.186 370.314C267.107 370.51 266.95 370.804 266.713 371.196C266.477 371.549 266.24 371.725 266.003 371.725C265.688 371.725 265.53 371.411 265.53 370.784C265.53 370.628 265.53 370.471 265.53 370.314C265.57 370.158 265.609 370.001 265.649 369.844C265.727 369.491 265.826 368.982 265.944 368.316C266.063 367.61 266.181 366.885 266.299 366.141C266.457 365.357 266.575 364.652 266.654 364.025C266.733 363.398 266.792 362.947 266.831 362.673C266.91 362.124 267.009 361.772 267.127 361.615C267.245 361.419 267.383 361.321 267.541 361.321C267.699 361.321 267.856 361.419 268.014 361.615C268.172 361.811 268.27 362.085 268.31 362.438C268.389 362.869 268.665 363.28 269.138 363.672C269.65 364.064 270.104 364.26 270.498 364.26H282.385C282.779 364.26 283.174 364.103 283.568 363.79C283.962 363.437 284.278 363.084 284.514 362.732C284.711 362.418 284.889 362.183 285.046 362.026C285.204 361.87 285.382 361.791 285.579 361.791C285.736 361.791 285.874 361.87 285.993 362.026C286.111 362.144 286.131 362.36 286.052 362.673C285.815 363.731 285.618 364.73 285.46 365.671C285.303 366.611 285.184 367.473 285.106 368.257C285.027 369.041 284.987 369.726 284.987 370.314C284.987 370.628 284.928 370.941 284.81 371.255C284.731 371.568 284.593 371.725 284.396 371.725ZM259.912 386.655C259.675 386.655 259.459 386.557 259.261 386.361C259.104 386.165 259.025 385.969 259.025 385.773C259.025 385.42 259.143 384.931 259.38 384.304C259.656 383.637 259.932 382.952 260.208 382.246C260.405 381.815 260.582 381.365 260.74 380.894C260.937 380.385 261.095 379.895 261.213 379.425C261.371 378.916 261.469 378.504 261.509 378.191C261.666 377.329 261.962 376.897 262.396 376.897C262.632 376.897 262.79 377.035 262.869 377.309C262.987 377.544 263.046 377.779 263.046 378.014C263.125 379.033 263.165 379.876 263.165 380.542C263.204 381.208 263.441 381.698 263.874 382.011C264.348 382.325 265.215 382.481 266.477 382.481H285.224C286.801 382.481 288.102 382.05 289.127 381.188C290.192 380.326 290.921 379.347 291.315 378.249C291.394 378.014 291.591 377.681 291.907 377.25C292.222 376.78 292.577 376.545 292.971 376.545C293.168 376.545 293.287 376.604 293.326 376.721C293.366 376.839 293.385 376.995 293.385 377.191V377.779C293.385 378.132 293.228 378.778 292.912 379.719C292.597 380.62 292.262 381.6 291.907 382.658C291.591 383.716 291.394 384.656 291.315 385.479C291.276 385.754 291.197 386.008 291.079 386.243C291 386.518 290.803 386.655 290.487 386.655C290.487 386.655 290.31 386.616 289.955 386.537C289.64 386.459 289.009 386.38 288.063 386.302C287.156 386.224 285.815 386.185 284.041 386.185H264.939C263.48 386.185 262.278 386.263 261.331 386.42C260.385 386.576 259.912 386.655 259.912 386.655Z" fill="black"/>
<path d="M208.72 449.948C207.853 448.239 206.893 446.393 205.841 444.41C204.788 442.458 203.767 440.52 202.776 438.598C201.786 436.676 200.934 434.937 200.222 433.381C200.099 433.137 199.99 432.924 199.897 432.741C199.835 432.527 199.82 432.344 199.851 432.191C199.789 431.947 199.913 431.581 200.222 431.093C201.027 429.537 201.925 427.798 202.915 425.876C203.906 423.924 204.912 421.956 205.934 419.973C206.955 417.959 207.899 416.098 208.766 414.39H214.477C215.158 415.946 215.901 417.578 216.706 419.286C217.542 420.995 218.347 422.658 219.121 424.274C219.894 425.861 220.591 427.295 221.21 428.576C221.829 429.827 222.278 430.773 222.557 431.413C222.619 431.566 222.665 431.719 222.696 431.871C222.758 432.024 222.758 432.13 222.696 432.191C222.789 432.375 222.742 432.649 222.557 433.015C222.278 433.656 221.829 434.617 221.21 435.898C220.622 437.149 219.941 438.568 219.167 440.154C218.393 441.741 217.604 443.388 216.799 445.097C215.994 446.805 215.251 448.422 214.57 449.948H208.72ZM211.598 448.025C211.567 448.025 211.645 447.827 211.831 447.431C213.1 444.685 214.245 442.214 215.267 440.017C216.319 437.82 217.155 436.051 217.774 434.708C218.393 433.336 218.703 432.512 218.703 432.237C218.703 432.085 218.548 431.642 218.238 430.91C217.96 430.147 217.573 429.217 217.078 428.119C216.582 427.02 216.041 425.83 215.452 424.549C214.864 423.237 214.245 421.941 213.595 420.659C212.976 419.347 212.388 418.142 211.831 417.044C211.645 416.647 211.567 416.449 211.598 416.449C211.567 416.449 211.459 416.617 211.273 416.952L203.612 432.237L211.273 447.476C211.459 447.842 211.567 448.025 211.598 448.025Z" fill="black"/>
<path d="M81.0455 325.431C80.1897 325.431 79.7617 325.169 79.7617 324.645C79.7617 324.455 79.833 324.264 79.9757 324.074C80.1659 323.931 80.4274 323.836 80.7602 323.788C81.8063 323.55 82.8523 323.145 83.8984 322.574C84.9445 322.002 85.8241 321.169 86.5373 320.074C87.2505 319.026 87.6072 317.669 87.6072 316.003C87.6072 315.431 87.3456 314.788 86.8226 314.074C86.2996 313.312 85.6339 312.907 84.8256 312.86C83.7795 312.765 82.9474 312.431 82.3293 311.86C81.7587 311.288 81.4734 310.622 81.4734 309.86C81.4734 308.908 81.8538 308.122 82.6146 307.503C83.4229 306.884 84.3501 306.574 85.3962 306.574C87.1079 306.574 88.5106 307.241 89.6042 308.574C90.7453 309.86 91.3159 311.503 91.3159 313.503C91.3159 315.312 90.9593 316.931 90.2461 318.36C89.5329 319.836 88.6294 321.098 87.5358 322.145C86.4422 323.193 85.3011 324.002 84.1124 324.574C82.9712 325.145 81.9489 325.431 81.0455 325.431Z" fill="black"/>
<path d="M24.6794 45.5704C21.4937 45.5704 18.4744 45.0228 15.6215 43.9276C12.7686 42.88 10.2486 41.3562 8.06138 39.3563C5.87417 37.3563 4.13866 34.9992 2.85486 32.285C1.61861 29.5708 1.00049 26.5708 1.00049 23.2852C1.00049 19.4758 1.68994 16.1187 3.06883 13.214C4.49527 10.3093 6.42097 7.88078 8.84592 5.92844C11.3184 3.9761 14.1 2.49994 17.1906 1.49997C20.2812 0.499989 23.5383 0 26.9617 0C29.6244 0 32.1683 0.523798 34.5932 1.5714C37.0182 2.57137 39.1816 3.9761 41.0835 5.78559C42.9855 7.54745 44.4832 9.59503 45.5768 11.9283C46.718 14.2616 47.2886 16.7615 47.2886 19.4281C47.2886 22.19 46.5753 24.5947 45.1489 26.6423C43.77 28.6422 41.9632 30.1898 39.7284 31.285C37.4936 32.3326 35.0925 32.8564 32.5249 32.8564C31.5739 32.8564 30.8607 32.6421 30.3852 32.2136C29.9097 31.7374 29.5531 31.285 29.3154 30.8565C29.1252 30.4279 28.9112 30.2136 28.6735 30.2136C28.4357 30.2136 27.9365 30.4279 27.1757 30.8565C26.4625 31.285 25.5353 31.7374 24.3941 32.2136C23.253 32.6421 21.9216 32.8564 20.4001 32.8564C18.0703 32.8564 16.0732 32.1898 14.409 30.8565C12.7924 29.4755 11.9841 27.547 11.9841 25.0709C11.9841 22.1662 12.6973 19.6662 14.1238 17.571C15.5502 15.4282 17.4046 13.7854 19.6869 12.6426C21.9692 11.4521 24.4179 10.8569 27.0331 10.8569C27.7463 10.8569 28.5784 10.9283 29.5293 11.0712C30.5279 11.1664 31.2411 11.2855 31.669 11.4283C32.192 11.6188 32.5486 11.7378 32.7388 11.7855C32.9766 11.8331 33.1668 11.8569 33.3094 11.8569C33.5472 11.8569 33.7611 11.7378 33.9513 11.4997C34.1415 11.2617 34.3079 11.0474 34.4506 10.8569C34.6408 10.6188 34.8547 10.4998 35.0925 10.4998C35.1876 10.4998 35.354 10.5236 35.5917 10.5712C35.8295 10.6188 36.0434 10.6902 36.2336 10.7855C36.4238 10.8807 36.4714 10.976 36.3763 11.0712C36.0434 11.9283 35.7106 12.9521 35.3778 14.1425C35.0925 15.333 34.9023 16.2139 34.8072 16.7853L33.3094 26.2137C33.2619 26.547 33.2143 26.8804 33.1668 27.2137C33.1192 27.4994 33.0954 27.8089 33.0954 28.1422C33.0954 28.666 33.1905 29.1422 33.3807 29.5708C33.5709 29.9993 33.9038 30.2136 34.3792 30.2136C36.0434 30.2136 37.5887 29.8327 39.0152 29.0708C40.4892 28.2613 41.6779 27.1185 42.5813 25.6423C43.4847 24.1661 43.9364 22.4519 43.9364 20.4996C43.9364 17.1663 43.0805 14.1902 41.3688 11.5712C39.7046 8.90457 37.4699 6.78557 34.6645 5.21417C31.9067 3.64278 28.8637 2.85708 25.5353 2.85708C22.73 2.85708 20.0435 3.30945 17.4759 4.21419C14.9559 5.11894 12.6973 6.45224 10.7003 8.21411C8.75083 9.92835 7.20551 11.9997 6.06436 14.4283C4.92321 16.8568 4.35263 19.571 4.35263 22.5709C4.35263 25.428 4.89943 28.0708 5.99304 30.4993C7.13419 32.9279 8.67951 35.0469 10.629 36.8563C12.626 38.7134 14.8845 40.142 17.4046 41.142C19.9246 42.1896 22.6111 42.7134 25.464 42.7134C27.0331 42.7134 28.721 42.4515 30.5279 41.9277C32.3822 41.4515 34.1653 40.7848 35.877 39.9277C37.5887 39.1182 39.039 38.2135 40.2277 37.2135C40.4654 37.023 40.6794 36.8563 40.8696 36.7135C41.1073 36.5706 41.3213 36.4992 41.5115 36.4992C42.1771 36.4992 42.51 36.8087 42.51 37.4278C42.51 37.8563 41.9394 38.4992 40.7982 39.3563C39.7046 40.261 38.2544 41.1896 36.4476 42.1419C34.6883 43.0943 32.7626 43.9038 30.6705 44.5705C28.6259 45.2371 26.6289 45.5704 24.6794 45.5704ZM22.9677 30.4279C23.8236 30.4279 24.5606 30.2851 25.1787 29.9993C25.8444 29.7136 26.5338 29.3327 27.247 28.8565C27.675 28.5708 28.0554 28.1899 28.3882 27.7137C28.721 27.2375 28.9825 26.4518 29.1727 25.3566L30.5279 17.9996C30.5754 17.8568 30.5992 17.7139 30.5992 17.571C30.5992 17.4282 30.5992 17.2853 30.5992 17.1425C30.5992 15.8092 30.1237 14.7854 29.1727 14.0711C28.2218 13.3569 26.9855 12.9997 25.464 12.9997C24.1326 12.9997 22.8013 13.4045 21.4699 14.214C20.1861 15.0235 19.1163 16.2377 18.2604 17.8568C17.4521 19.4281 17.048 21.3805 17.048 23.7138C17.048 25.428 17.357 26.7851 17.9752 27.7851C18.5933 28.7375 19.3541 29.4279 20.2575 29.8565C21.1609 30.2374 22.0643 30.4279 22.9677 30.4279Z" fill="black"/>
<path d="M11.9636 204.551C9.77641 204.551 7.85071 203.955 6.18653 202.765C4.52235 201.574 3.21477 200.027 2.26381 198.122C1.3604 196.17 0.908691 194.098 0.908691 191.908C0.908691 189.575 1.43172 187.337 2.47778 185.194C3.57138 183.051 5.06915 181.289 6.97107 179.908C8.873 178.527 11.0364 177.837 13.4614 177.837C15.4109 177.837 17.075 178.265 18.4539 179.123C19.8328 179.932 21.0929 181.051 22.234 182.48C23.3752 183.908 24.5163 185.527 25.6575 187.337C25.8477 187.622 26.0141 187.718 26.1567 187.622C26.3469 187.527 26.5133 187.361 26.656 187.122C27.3217 185.884 28.1537 184.551 29.1523 183.123C30.1983 181.694 31.4583 180.456 32.9323 179.408C34.4063 178.361 36.1894 177.837 38.2815 177.837C40.4687 177.837 42.3944 178.432 44.0586 179.623C45.7228 180.813 47.0066 182.384 47.91 184.337C48.8609 186.241 49.3364 188.289 49.3364 190.479C49.3364 192.813 48.7896 195.051 47.696 197.194C46.6499 199.336 45.176 201.098 43.274 202.479C41.4197 203.86 39.2562 204.551 36.7837 204.551C34.8818 204.551 33.2176 204.122 31.7912 203.265C30.4123 202.408 29.1523 201.265 28.0111 199.836C26.8699 198.36 25.7288 196.717 24.5876 194.908C24.2548 194.384 23.922 194.456 23.5891 195.122C22.9235 196.313 22.0914 197.646 21.0929 199.122C20.0943 200.598 18.8343 201.884 17.3128 202.979C15.8388 204.027 14.0557 204.551 11.9636 204.551ZM13.1048 199.408C15.3871 199.408 17.2415 198.932 18.6679 197.979C20.1419 196.979 21.497 195.717 22.7333 194.194C23.0186 193.813 23.1612 193.527 23.1612 193.337C23.1612 193.098 23.0899 192.884 22.9472 192.694C22.8521 192.456 22.6857 192.194 22.448 191.908C21.497 190.527 20.451 189.146 19.3098 187.765C18.1686 186.337 16.9324 185.17 15.601 184.265C14.3173 183.313 12.9384 182.837 11.4644 182.837C9.94283 182.837 8.54016 183.218 7.25636 183.98C5.97256 184.742 4.9265 185.742 4.11819 186.98C3.35742 188.17 2.97703 189.48 2.97703 190.908C2.97703 192.622 3.45251 194.122 4.40348 195.408C5.40199 196.646 6.66201 197.622 8.18355 198.336C9.75264 199.051 11.393 199.408 13.1048 199.408ZM39.066 199.694C40.5876 199.694 41.9665 199.313 43.2027 198.551C44.439 197.741 45.4137 196.717 46.1269 195.479C46.8877 194.194 47.2681 192.86 47.2681 191.479C47.2681 189.765 46.7688 188.265 45.7703 186.98C44.8193 185.694 43.5593 184.718 41.9902 184.051C40.4687 183.337 38.8521 182.98 37.1403 182.98C34.858 182.98 33.0274 183.48 31.6485 184.48C30.2696 185.48 28.9621 186.741 27.7258 188.265C27.4405 188.599 27.2979 188.884 27.2979 189.122C27.2979 189.313 27.3692 189.527 27.5118 189.765C27.6545 190.003 27.8209 190.265 28.0111 190.551C28.9621 191.932 30.0081 193.337 31.1493 194.765C32.2904 196.146 33.5267 197.313 34.858 198.265C36.1894 199.217 37.592 199.694 39.066 199.694Z" fill="black"/>
<path d="M19.4683 263.393C19.0403 263.393 18.8264 263.108 18.8264 262.536C18.8264 262.441 18.8502 262.346 18.8977 262.251C18.9452 262.108 18.9928 261.989 19.0403 261.893C20.3717 259.846 21.6555 258.108 22.8917 256.679C24.1755 255.251 25.388 254.036 26.5292 253.036C27.7179 251.989 28.8353 251.06 29.8813 250.251C30.1666 250.013 30.3092 249.846 30.3092 249.751C30.3092 249.608 30.1666 249.441 29.8813 249.251C28.8353 248.441 27.7179 247.56 26.5292 246.608C25.388 245.608 24.1755 244.418 22.8917 243.037C21.6555 241.608 20.3717 239.894 19.0403 237.894C18.9453 237.703 18.8502 237.537 18.7551 237.394C18.7075 237.203 18.6837 237.013 18.6837 236.823C18.6837 236.394 18.8264 236.18 19.1117 236.18C19.5396 236.18 19.9438 236.346 20.3241 236.68C20.7045 237.013 20.9898 237.275 21.18 237.465C22.4163 238.656 23.605 239.727 24.7461 240.68C25.9348 241.632 27.1473 242.561 28.3835 243.465C29.6198 244.322 30.9511 245.227 32.3776 246.179C33.8516 247.084 35.492 248.084 37.2988 249.179C37.4415 249.227 37.5128 249.394 37.5128 249.679C37.5128 250.013 37.3939 250.394 37.1562 250.822C36.9184 251.251 36.6094 251.56 36.229 251.751C35.1829 252.227 34.0655 252.822 32.8768 253.536C31.6881 254.203 30.4519 254.989 29.1681 255.894C27.9318 256.751 26.6718 257.703 25.388 258.751C24.1042 259.798 22.8442 260.917 21.6079 262.108C21.4178 262.298 21.1325 262.56 20.7521 262.893C20.3717 263.227 19.9438 263.393 19.4683 263.393ZM4.41931 263.393C3.99138 263.393 3.77741 263.108 3.77741 262.536C3.77741 262.441 3.80118 262.346 3.84873 262.251C3.89628 262.108 3.94383 261.989 3.99138 261.893C5.32272 259.846 6.60652 258.108 7.84277 256.679C9.12657 255.251 10.339 254.036 11.4802 253.036C12.6689 251.989 13.7863 251.06 14.8323 250.251C15.1176 250.013 15.2603 249.846 15.2603 249.751C15.2603 249.608 15.1176 249.441 14.8323 249.251C13.7863 248.441 12.6689 247.56 11.4802 246.608C10.339 245.608 9.12657 244.418 7.84277 243.037C6.60652 241.608 5.32272 239.894 3.99138 237.894C3.89628 237.703 3.80118 237.537 3.70609 237.394C3.65854 237.203 3.63477 237.013 3.63477 236.823C3.63477 236.394 3.77741 236.18 4.0627 236.18C4.49063 236.18 4.89479 236.346 5.27517 236.68C5.65556 237.013 5.94085 237.275 6.13104 237.465C7.36729 238.656 8.55599 239.727 9.69715 240.68C10.8858 241.632 12.0983 242.561 13.3346 243.465C14.5708 244.322 15.9022 245.227 17.3286 246.179C18.8026 247.084 20.443 248.084 22.2498 249.179C22.3925 249.227 22.4638 249.394 22.4638 249.679C22.4638 250.013 22.3449 250.394 22.1072 250.822C21.8695 251.251 21.5604 251.56 21.18 251.751C20.134 252.227 19.0166 252.822 17.8279 253.536C16.6392 254.203 15.4029 254.989 14.1191 255.894C12.8829 256.751 11.6228 257.703 10.339 258.751C9.05525 259.798 7.79522 260.917 6.55897 262.108C6.36878 262.298 6.08349 262.56 5.70311 262.893C5.32272 263.227 4.89479 263.393 4.41931 263.393Z" fill="black"/>
<path d="M7.23509 315.802C6.18903 315.802 5.14298 315.564 4.09692 315.088C3.05086 314.612 2.52783 313.873 2.52783 312.873C2.52783 312.35 2.6467 311.921 2.88444 311.588C3.16973 311.207 3.47879 311.016 3.81163 311.016C4.04937 311.016 4.28711 311.088 4.52485 311.231C4.76259 311.326 4.90524 311.421 4.95278 311.516C5.7611 312.135 6.47432 312.635 7.09245 313.016C7.71057 313.397 8.49512 313.588 9.44608 313.588C10.6348 313.588 11.562 313.112 12.2276 312.159C12.9409 311.159 13.2975 309.897 13.2975 308.374C13.2975 307.421 12.8695 306.469 12.0137 305.516C11.1578 304.517 10.088 304.017 8.80418 304.017C8.42379 304.017 7.97209 304.112 7.44906 304.302C6.92603 304.445 6.45055 304.517 6.02262 304.517C5.83242 304.517 5.61846 304.445 5.38072 304.302C5.19052 304.159 5.09543 304.017 5.09543 303.874C5.09543 303.493 5.40449 303.136 6.02262 302.802C6.68829 302.469 7.37774 302.183 8.09096 301.945C8.85173 301.659 9.35098 301.469 9.58872 301.374C10.5397 300.945 11.2767 300.421 11.7997 299.802C12.3703 299.183 12.6556 298.35 12.6556 297.302C12.6556 296.398 12.299 295.66 11.5857 295.088C10.8725 294.469 10.0642 294.16 9.16079 294.16C8.11473 294.16 7.16377 294.398 6.3079 294.874C5.49959 295.302 4.76259 295.993 4.09692 296.945C4.04937 297.04 3.95427 297.16 3.81163 297.302C3.71653 297.398 3.57389 297.445 3.3837 297.445C3.24105 297.445 3.07463 297.302 2.88444 297.017C2.7418 296.731 2.67048 296.517 2.67048 296.374C2.67048 295.802 3.02709 295.136 3.74031 294.374C4.50108 293.564 5.45204 292.85 6.59319 292.231C7.73435 291.612 8.92305 291.303 10.1593 291.303C11.6808 291.303 13.0835 291.779 14.3673 292.731C15.6511 293.636 16.293 294.85 16.293 296.374C16.293 297.707 15.9126 298.707 15.1518 299.374C14.4386 300.04 13.4877 300.683 12.299 301.302C12.1563 301.35 12.085 301.421 12.085 301.517C12.085 301.564 12.1563 301.612 12.299 301.659C13.5828 302.088 14.7477 302.731 15.7937 303.588C16.8398 304.397 17.3628 305.469 17.3628 306.802C17.3628 308.564 16.8874 310.135 15.9364 311.516C14.9854 312.85 13.7254 313.897 12.1563 314.659C10.6348 315.421 8.99437 315.802 7.23509 315.802ZM36.1919 288.588C36.5247 288.064 36.9051 287.731 37.333 287.588C37.8085 287.445 38.3553 287.374 38.9734 287.374C39.2112 287.374 39.4251 287.469 39.6153 287.66C39.8531 287.85 39.9719 288.064 39.9719 288.303C39.9719 288.445 39.9482 288.541 39.9006 288.588L8.66154 338.23C8.37625 338.706 7.99586 338.992 7.52038 339.087C7.09245 339.23 6.61697 339.301 6.09394 339.301C5.80865 339.301 5.52336 339.206 5.23807 339.016C5.00033 338.825 4.88146 338.635 4.88146 338.444C4.88146 338.349 4.90524 338.278 4.95278 338.23L36.1919 288.588ZM34.4801 337.159C33.1963 337.159 31.9601 336.921 30.7714 336.444C29.5827 335.968 28.608 335.278 27.8472 334.373C27.0864 333.421 26.706 332.325 26.706 331.087C26.706 329.421 27.3004 328.111 28.4891 327.159C29.6778 326.207 31.0091 325.349 32.4831 324.587C32.6258 324.492 32.6733 324.397 32.6258 324.302C32.5782 324.207 32.5069 324.135 32.4118 324.088C31.128 322.992 30.0106 322.016 29.0597 321.159C28.1563 320.302 27.7045 319.135 27.7045 317.659C27.7045 316.516 28.0849 315.516 28.8457 314.659C29.6065 313.802 30.5574 313.135 31.6986 312.659C32.8873 312.135 34.076 311.873 35.2647 311.873C36.4058 311.873 37.4757 312.088 38.4742 312.516C39.5202 312.897 40.3523 313.469 40.9705 314.231C41.6361 314.945 41.969 315.85 41.969 316.945C41.969 317.85 41.755 318.635 41.3271 319.302C40.8991 319.969 40.3286 320.564 39.6153 321.088C38.9497 321.611 38.2364 322.135 37.4757 322.659C37.0477 322.992 36.9764 323.23 37.2617 323.373C38.8308 324.278 40.1859 325.207 41.3271 326.159C42.5158 327.064 43.1101 328.349 43.1101 330.016C43.1101 331.444 42.6822 332.706 41.8263 333.802C41.018 334.849 39.9482 335.659 38.6168 336.23C37.2855 336.849 35.9066 337.159 34.4801 337.159ZM35.0507 335.516C36.287 335.516 37.2617 335.087 37.9749 334.23C38.7357 333.325 39.1161 332.325 39.1161 331.23C39.1161 330.087 38.7119 329.087 37.9036 328.23C37.0953 327.373 36.0017 326.492 34.6228 325.587C34.29 325.349 34.0047 325.23 33.7669 325.23C33.6718 325.23 33.5054 325.302 33.2677 325.445C32.4118 326.111 31.7699 326.754 31.342 327.373C30.914 327.945 30.7001 328.849 30.7001 330.087C30.7001 331.564 31.1042 332.849 31.9126 333.944C32.7209 334.992 33.7669 335.516 35.0507 335.516ZM35.8353 322.373C36.7862 321.611 37.4519 320.921 37.8323 320.302C38.2602 319.683 38.4742 318.826 38.4742 317.731C38.4742 316.683 38.1889 315.707 37.6183 314.802C37.0477 313.897 36.2157 313.445 35.122 313.445C34.1235 313.445 33.2439 313.778 32.4831 314.445C31.7224 315.064 31.342 315.85 31.342 316.802C31.342 318.135 31.6986 319.159 32.4118 319.873C33.125 320.54 34.076 321.349 35.2647 322.302C35.5024 322.492 35.6926 322.516 35.8353 322.373Z" fill="black"/>
<path d="M27.1428 382.841C25.9065 382.841 24.7416 382.603 23.648 382.127C22.5544 381.651 21.4846 381.151 20.4385 380.627C19.4875 380.103 18.5128 379.627 17.5143 379.198C16.5633 378.77 15.5648 378.556 14.5188 378.556C13.3301 378.556 12.2602 378.889 11.3093 379.556C10.4059 380.175 9.66887 380.817 9.09829 381.484C8.52772 382.151 8.1711 382.484 8.02846 382.484C7.74317 382.484 7.43411 382.389 7.10127 382.198C6.81598 381.96 6.67334 381.722 6.67334 381.484C6.67334 381.008 6.88731 380.365 7.31524 379.556C7.74317 378.746 8.33752 377.937 9.09829 377.127C9.90661 376.318 10.8338 375.627 11.8799 375.056C12.9259 374.484 14.0671 374.199 15.3033 374.199C16.5396 374.199 17.6569 374.437 18.6555 374.913C19.7015 375.389 20.6763 375.889 21.5797 376.413C22.5306 376.984 23.4578 377.508 24.3612 377.984C25.2646 378.413 26.1918 378.627 27.1428 378.627C27.9511 378.627 28.7357 378.413 29.4964 377.984C30.2572 377.508 30.9229 376.984 31.4934 376.413C32.1116 375.794 32.6108 375.27 32.9912 374.841C33.4191 374.365 33.6807 374.127 33.7757 374.127C33.9659 374.127 34.2512 374.246 34.6316 374.484C35.012 374.722 35.2022 375.079 35.2022 375.556C35.2022 376.27 34.9407 377.056 34.4176 377.913C33.9422 378.77 33.3003 379.579 32.492 380.341C31.6836 381.056 30.804 381.651 29.853 382.127C28.9021 382.603 27.9987 382.841 27.1428 382.841ZM27.1428 371.627C25.9065 371.627 24.7416 371.389 23.648 370.913C22.5544 370.437 21.4846 369.937 20.4385 369.413C19.4875 368.889 18.5128 368.413 17.5143 367.984C16.5633 367.556 15.5648 367.342 14.5188 367.342C13.3301 367.342 12.2602 367.675 11.3093 368.342C10.4059 368.961 9.66887 369.603 9.09829 370.27C8.52772 370.937 8.1711 371.27 8.02846 371.27C7.74317 371.27 7.43411 371.175 7.10127 370.984C6.81598 370.746 6.67334 370.508 6.67334 370.27C6.67334 369.794 6.88731 369.151 7.31524 368.342C7.74317 367.532 8.33752 366.723 9.09829 365.913C9.90661 365.104 10.8338 364.413 11.8799 363.842C12.9259 363.27 14.0671 362.985 15.3033 362.985C16.5396 362.985 17.6569 363.223 18.6555 363.699C19.7015 364.175 20.6763 364.675 21.5797 365.199C22.5306 365.77 23.4578 366.294 24.3612 366.77C25.2646 367.199 26.1918 367.413 27.1428 367.413C27.9511 367.413 28.7357 367.199 29.4964 366.77C30.2572 366.294 30.9229 365.77 31.4934 365.199C32.1116 364.58 32.6108 364.056 32.9912 363.627C33.4191 363.151 33.6807 362.913 33.7757 362.913C33.9659 362.913 34.2512 363.032 34.6316 363.27C35.012 363.508 35.2022 363.865 35.2022 364.342C35.2022 365.056 34.9407 365.842 34.4176 366.699C33.9422 367.556 33.3003 368.365 32.492 369.127C31.6836 369.842 30.804 370.437 29.853 370.913C28.9021 371.389 27.9987 371.627 27.1428 371.627Z" fill="black"/>
<path d="M85.9881 42.4409C83.8123 42.4409 81.8711 42.0486 80.1646 41.264C78.5007 40.4358 77.1995 39.3243 76.2609 37.9294C75.3223 36.5345 74.853 34.9435 74.853 33.1563C74.853 29.6692 75.8556 26.8141 77.8608 24.591C79.9086 22.3679 82.4684 20.5372 85.5402 19.0987L86.8201 18.5102L85.8601 17.4641C85.4762 16.9846 84.9429 16.3961 84.2603 15.6987C83.6203 15.0013 83.023 14.1731 82.4684 13.2141C81.9565 12.2116 81.7005 11.0782 81.7005 9.81412C81.7005 8.28849 82.1271 6.95901 82.9804 5.82568C83.8763 4.69235 85.0069 3.82056 86.3721 3.2103C87.7373 2.60005 89.1452 2.29492 90.5958 2.29492C92.4303 2.29492 93.9448 2.73082 95.1394 3.60261C96.334 4.43081 97.2299 5.47696 97.8272 6.74106C98.4245 7.96157 98.7231 9.13849 98.7231 10.2718C98.7658 11.9282 98.1898 13.3667 96.9953 14.5872C95.8007 15.8077 94.1368 16.8103 92.0037 17.5949L91.1077 17.9218L91.9397 18.8372C93.5609 20.6243 95.0327 22.1718 96.3553 23.4795C97.6779 24.7871 98.9791 26.4 100.259 28.3179L101.027 29.4948L102.179 28.2525C103.203 27.1192 104.248 25.8551 105.315 24.4602C106.424 23.0654 107.341 21.8013 108.066 20.6679C108.834 19.491 109.218 18.75 109.218 18.4449C109.218 18.1833 109.048 17.8346 108.706 17.3987C108.408 16.9628 107.981 16.7013 107.426 16.6141C107.341 16.5705 107.192 16.4615 106.978 16.2872C106.765 16.1128 106.658 15.982 106.658 15.8949C106.658 15.5462 106.85 15.35 107.234 15.3064C107.661 15.2192 107.938 15.1756 108.066 15.1756C108.194 15.1756 108.557 15.1974 109.154 15.241C109.794 15.2846 110.456 15.35 111.138 15.4372C111.821 15.4808 112.311 15.5026 112.61 15.5026C113.25 15.5026 113.954 15.4372 114.722 15.3064C115.49 15.1321 116.215 14.9577 116.898 14.7833C117.623 14.609 118.242 14.5218 118.754 14.5218C118.839 14.5218 118.988 14.5872 119.201 14.718C119.415 14.8487 119.521 14.9795 119.521 15.1103C119.521 15.3718 119.329 15.6333 118.945 15.8949C118.562 16.1564 118.22 16.309 117.922 16.3526C116.94 16.3961 116.044 16.6359 115.234 17.0718C114.423 17.4641 113.762 17.9 113.25 18.3795C113.079 18.5102 112.589 19.0115 111.778 19.8833C110.967 20.7551 109.986 21.8013 108.834 23.0218C107.725 24.1987 106.637 25.3756 105.571 26.5525C104.504 27.7294 103.608 28.7102 102.883 29.4948C102.158 30.2794 101.795 30.6717 101.795 30.6717L102.883 32.241C104.248 34.2461 105.592 35.8589 106.914 37.0794C108.237 38.2563 109.709 38.8448 111.33 38.8448C112.226 38.8448 113.079 38.7576 113.89 38.5832C114.743 38.4089 115.554 38.1038 116.322 37.6679C116.492 37.5807 116.663 37.5153 116.834 37.4717C117.047 37.3845 117.239 37.3409 117.41 37.3409C117.708 37.3409 117.9 37.4063 117.986 37.5371C118.114 37.6243 118.178 37.8204 118.178 38.1255C118.178 38.4743 117.73 38.9973 116.834 39.6948C115.938 40.3922 114.85 41.0243 113.57 41.5909C112.333 42.1576 111.117 42.4409 109.922 42.4409C108.344 42.4409 107.021 42.1576 105.955 41.5909C104.888 41.0678 103.907 40.2614 103.011 39.1717C102.158 38.0384 101.176 36.5999 100.067 34.8563L99.2351 33.4833L98.8511 33.8756C97.5285 35.3576 96.2486 36.7525 95.0114 38.0602C93.8168 39.3679 92.5156 40.4358 91.1077 41.264C89.6998 42.0486 87.9933 42.4409 85.9881 42.4409ZM87.652 38.1909C89.7852 38.1909 91.6197 37.7332 93.1556 36.8179C94.7341 35.9025 96.3126 34.5948 97.8912 32.8948L98.4671 32.3063L97.6992 31.064C96.6326 29.4076 95.2887 27.7294 93.6675 26.0294C92.089 24.3295 90.3824 22.4769 88.5479 20.4718L87.78 19.6218L86.4361 20.1449C84.4736 20.9295 83.0017 21.932 82.0205 23.1525C81.0819 24.3295 80.4632 25.6153 80.1646 27.0102C79.9086 28.3615 79.7806 29.691 79.7806 30.9987C79.7806 33.0038 80.5059 34.7038 81.9565 36.0986C83.407 37.4935 85.3055 38.1909 87.652 38.1909ZM90.2758 16.8756L91.1077 16.4833C92.3023 15.9167 93.1769 15.0231 93.7315 13.8026C94.3288 12.5385 94.6274 11.2526 94.6274 9.94489C94.6274 8.41926 94.2648 7.04619 93.5395 5.82568C92.8569 4.60517 91.769 3.99492 90.2758 3.99492C88.9959 3.99492 87.8653 4.40902 86.8841 5.23722C85.9028 6.02183 85.4122 7.0026 85.4122 8.17952C85.4122 9.05131 85.4975 9.83592 85.6682 10.5334C85.8388 11.2308 86.2015 11.9718 86.7561 12.7564C87.3107 13.541 88.1426 14.5436 89.2519 15.7641L90.2758 16.8756Z" fill="black"/>
<path d="M71.6997 248.671C71.4951 248.671 71.2904 248.589 71.0857 248.423C70.922 248.257 70.8401 248.092 70.8401 247.926C70.8401 247.637 70.9834 247.347 71.2699 247.057C71.5565 246.767 71.9044 246.602 72.3137 246.56L90.4881 245.318C90.6928 245.318 90.877 245.401 91.0407 245.567C91.2044 245.732 91.2863 245.898 91.2863 246.063C91.2863 246.27 91.0816 246.539 90.6723 246.871C90.263 247.202 89.8332 247.388 89.3829 247.43L71.6997 248.671ZM71.6383 254.881C71.4337 254.881 71.229 254.798 71.0243 254.633C70.8606 254.467 70.7787 254.301 70.7787 254.136C70.7787 253.846 70.922 253.556 71.2085 253.266C71.4951 252.977 71.843 252.811 72.2523 252.77L90.4267 251.528C90.6314 251.528 90.8156 251.611 90.9793 251.776C91.143 251.942 91.2249 252.107 91.2249 252.273C91.2249 252.48 91.0202 252.749 90.6109 253.08C90.2016 253.411 89.7718 253.598 89.3215 253.639L71.6383 254.881ZM88.5233 270.591C86.6404 270.591 85.0031 270.239 83.6113 269.535C82.2196 268.832 80.6846 267.9 79.0063 266.741C78.5561 266.41 78.0649 266.12 77.5327 265.872C77.0006 265.582 76.5094 265.354 76.0591 265.189C75.6089 265.023 75.2814 264.94 75.0767 264.94C74.9539 264.94 74.7288 265.085 74.4013 265.375C74.0739 265.665 73.7259 266.037 73.3575 266.493C72.9891 266.948 72.6617 267.445 72.3751 267.983C71.6793 269.308 70.7992 269.929 69.735 269.846C69.3256 269.846 68.9982 269.68 68.7526 269.349C68.466 269.059 68.3228 268.604 68.3228 267.983C68.3228 267.114 68.5888 266.327 69.121 265.623C69.694 264.92 70.4308 264.319 71.3313 263.823C72.2319 263.284 73.1938 262.912 74.2171 262.705C74.4218 262.663 74.5651 262.581 74.6469 262.456C74.7288 262.291 74.8107 262.125 74.8925 261.96C75.3019 261.173 75.6293 259.993 75.8749 258.42C76.1615 256.806 76.3866 255.005 76.5503 253.018C76.7141 251.031 76.8369 249.085 76.9187 247.181C77.0415 245.111 77.369 243.041 77.9011 240.972C78.4742 238.86 79.2929 236.936 80.3571 235.197C81.4214 233.417 82.7722 231.989 84.4095 230.912C86.0878 229.836 88.0935 229.298 90.4267 229.298C92.5143 229.298 94.0493 229.836 95.0317 230.912C96.055 231.989 96.5667 233.106 96.5667 234.265C96.5667 234.886 96.4644 235.487 96.2597 236.066C96.055 236.604 95.748 237.039 95.3387 237.37C94.9294 237.701 94.4382 237.867 93.8651 237.867C93.5786 237.867 93.3739 237.805 93.2511 237.681C93.1692 237.515 93.1283 237.287 93.1283 236.998C93.1283 236.791 93.1283 236.584 93.1283 236.377C93.1692 236.128 93.1897 235.88 93.1897 235.632C93.1488 234.431 92.7804 233.375 92.0845 232.465C91.3886 231.554 90.4676 231.099 89.3215 231.099C87.8479 231.099 86.6404 231.74 85.6989 233.024C84.7575 234.265 84.0207 236.149 83.4885 238.674C82.9564 241.158 82.5471 244.263 82.2605 247.988C82.1377 249.975 81.7693 251.962 81.1553 253.949C80.5823 255.895 79.9273 257.613 79.1905 259.103C78.4537 260.552 77.7988 261.525 77.2257 262.022C77.1439 262.063 77.1029 262.167 77.1029 262.332C77.1439 262.498 77.2667 262.581 77.4713 262.581C79.1496 262.581 80.6232 262.808 81.8921 263.264C83.202 263.678 84.43 264.133 85.5761 264.63C86.6404 265.044 87.6842 265.437 88.7075 265.81C89.7308 266.182 90.8156 266.368 91.9617 266.368C93.1488 266.368 94.0493 266.099 94.6633 265.561C95.2773 264.982 95.5843 264.319 95.5843 263.574C95.5843 263.036 95.5024 262.498 95.3387 261.96C95.175 261.38 95.0112 260.842 94.8475 260.345C94.6838 259.848 94.6019 259.455 94.6019 259.165C94.6019 258.876 94.7042 258.607 94.9089 258.358C95.1136 258.11 95.3592 257.986 95.6457 257.986C96.4644 257.986 97.0784 258.358 97.4877 259.103C97.897 259.807 98.1017 260.594 98.1017 261.463C98.1017 262.581 97.8561 263.678 97.3649 264.754C96.8737 265.83 96.1778 266.803 95.2773 267.672C94.4177 268.542 93.3944 269.245 92.2073 269.784C91.0612 270.322 89.8332 270.591 88.5233 270.591Z" fill="black"/>
<path d="M82.5935 395.875C79.598 395.875 76.7926 395.327 74.1775 394.232C71.6099 393.089 69.3276 391.518 67.3305 389.518C65.3811 387.518 63.8358 385.232 62.6946 382.661C61.601 380.042 61.0542 377.232 61.0542 374.232C61.0542 371.232 61.601 368.447 62.6946 365.875C63.8358 363.256 65.4048 360.947 67.4019 358.947C69.3989 356.947 71.6812 355.399 74.2488 354.304C76.8639 353.161 79.6693 352.59 82.6648 352.59C85.6603 352.59 88.4419 353.161 91.0095 354.304C93.6246 355.399 95.9307 356.947 97.9277 358.947C99.9248 360.947 101.47 363.256 102.564 365.875C103.705 368.447 104.275 371.232 104.275 374.232C104.275 377.232 103.705 380.042 102.564 382.661C101.47 385.232 99.9248 387.518 97.9277 389.518C95.9307 391.518 93.6246 393.089 91.0095 394.232C88.3943 395.327 85.589 395.875 82.5935 395.875ZM82.5935 393.446C85.2086 393.446 87.6573 392.946 89.9397 391.946C92.222 390.946 94.219 389.565 95.9307 387.803C97.6424 385.994 98.9738 383.946 99.9248 381.661C100.923 379.327 101.423 376.851 101.423 374.232C101.423 371.661 100.923 369.232 99.9248 366.947C98.9738 364.661 97.6424 362.661 95.9307 360.947C94.219 359.233 92.222 357.899 89.9397 356.947C87.6573 355.947 85.2324 355.447 82.6648 355.447C80.0972 355.447 77.6723 355.947 75.3899 356.947C73.1076 357.899 71.1106 359.233 69.3989 360.947C67.6872 362.661 66.332 364.661 65.3335 366.947C64.3826 369.232 63.9071 371.661 63.9071 374.232C63.9071 376.851 64.3826 379.327 65.3335 381.661C66.2845 383.946 67.6158 385.994 69.3276 387.803C71.0393 389.565 73.0125 390.946 75.2473 391.946C77.5296 392.946 79.9783 393.446 82.5935 393.446ZM92.4359 385.232C91.5325 385.232 90.6053 384.899 89.6544 384.232C88.751 383.565 87.8713 382.732 87.0155 381.732C86.2071 380.732 85.4939 379.708 84.8758 378.661C84.2577 377.565 83.806 376.637 83.5207 375.875C83.4256 375.589 83.1641 375.327 82.7361 375.089C82.3557 374.851 81.7138 374.732 80.8104 374.732C80.5251 374.732 80.2636 374.804 80.0259 374.947C79.7881 375.089 79.6693 375.28 79.6693 375.518L79.7406 381.089C79.7406 381.851 80.0021 382.375 80.5251 382.661C81.0482 382.946 81.595 383.184 82.1655 383.375C82.4984 383.47 82.8074 383.613 83.0927 383.803C83.378 383.994 83.5207 384.232 83.5207 384.518C83.5207 384.708 83.378 384.899 83.0927 385.089C82.855 385.232 82.6173 385.303 82.3795 385.303C81.2384 385.303 80.43 385.256 79.9546 385.161C79.4791 385.065 78.7421 385.018 77.7436 385.018C77.0779 385.018 76.5549 385.042 76.1745 385.089C75.8417 385.137 75.485 385.184 75.1047 385.232C74.7243 385.28 74.1537 385.303 73.3929 385.303C73.2027 385.303 72.965 385.232 72.6797 385.089C72.3944 384.899 72.2518 384.708 72.2518 384.518C72.2518 384.232 72.3944 383.994 72.6797 383.803C72.965 383.613 73.2741 383.47 73.6069 383.375C74.1775 383.184 74.6054 382.946 74.8907 382.661C75.2235 382.375 75.3899 381.851 75.3899 381.089V367.161C75.3899 366.161 75.3424 365.494 75.2473 365.161C75.1998 364.78 75.0571 364.566 74.8194 364.518C74.5816 364.423 74.225 364.304 73.7495 364.161C72.8461 363.923 72.3944 363.542 72.3944 363.018C72.3944 362.352 72.8699 362.066 73.8209 362.161C74.439 362.209 75.0571 362.28 75.6752 362.375C76.2934 362.471 76.9115 362.518 77.5296 362.518C78.6232 362.518 79.7168 362.471 80.8104 362.375C81.904 362.28 82.9976 362.209 84.0912 362.161C85.9456 362.066 87.6336 362.518 89.1551 363.518C90.7242 364.471 91.5087 365.899 91.5087 367.804C91.5087 369.28 91.0333 370.518 90.0823 371.518C89.1789 372.47 88.1804 373.137 87.0868 373.518C86.7539 373.613 86.6351 373.78 86.7302 374.018C86.8728 374.256 86.9917 374.494 87.0868 374.732C87.5623 375.97 88.2517 377.232 89.1551 378.518C90.0585 379.804 90.9857 380.875 91.9367 381.732C92.9352 382.589 93.7673 383.018 94.433 383.018C94.5756 383.018 94.7896 382.994 95.0749 382.946C95.4077 382.899 95.5741 383.018 95.5741 383.303C95.5741 383.922 95.2175 384.399 94.5043 384.732C93.7911 385.065 93.1016 385.232 92.4359 385.232ZM81.595 372.804C82.9739 372.804 84.2101 372.375 85.3037 371.518C86.3973 370.613 86.9441 369.47 86.9441 368.09C86.9441 366.947 86.4924 366.018 85.589 365.304C84.6856 364.59 83.6158 364.232 82.3795 364.232C81.3335 364.232 80.6202 364.423 80.2398 364.804C79.8595 365.185 79.6693 365.709 79.6693 366.375V371.375C79.6693 372.042 79.8595 372.447 80.2398 372.589C80.6678 372.732 81.1195 372.804 81.595 372.804Z" fill="black"/>
<path d="M81.7716 200.133C80.9157 200.133 80.4878 199.871 80.4878 199.347C80.4878 199.157 80.5591 198.99 80.7018 198.847C80.892 198.657 81.1535 198.538 81.4863 198.49C82.5324 198.252 83.5784 197.847 84.6245 197.276C85.6705 196.705 86.5502 195.895 87.2634 194.848C87.9766 193.752 88.3332 192.371 88.3332 190.705C88.3332 190.133 88.0717 189.49 87.5487 188.776C87.0257 188.014 86.36 187.61 85.5517 187.562C84.5056 187.467 83.6735 187.133 83.0554 186.562C82.4848 185.991 82.1995 185.324 82.1995 184.562C82.1995 183.61 82.5799 182.824 83.3407 182.205C84.149 181.586 85.0762 181.276 86.1222 181.276C87.834 181.276 89.2366 181.943 90.3302 183.276C91.4714 184.562 92.042 186.205 92.042 188.205C92.042 190.014 91.6854 191.657 90.9721 193.133C90.2589 194.562 89.3555 195.8 88.2619 196.847C87.1683 197.895 86.0271 198.705 84.8384 199.276C83.6973 199.847 82.675 200.133 81.7716 200.133ZM94.3243 200.133C93.4684 200.133 93.0405 199.871 93.0405 199.347C93.0405 199.157 93.1118 198.99 93.2545 198.847C93.4446 198.657 93.7062 198.538 94.039 198.49C95.0851 198.252 96.1311 197.847 97.1772 197.276C98.2232 196.705 99.1029 195.895 99.8161 194.848C100.529 193.752 100.886 192.371 100.886 190.705C100.886 190.133 100.624 189.49 100.101 188.776C99.5783 188.014 98.9127 187.61 98.1044 187.562C97.0583 187.467 96.2262 187.133 95.6081 186.562C95.0375 185.991 94.7522 185.324 94.7522 184.562C94.7522 183.61 95.1326 182.824 95.8934 182.205C96.7017 181.586 97.6289 181.276 98.6749 181.276C100.387 181.276 101.789 181.943 102.883 183.276C104.024 184.562 104.595 186.205 104.595 188.205C104.595 190.014 104.238 191.657 103.525 193.133C102.812 194.562 101.908 195.8 100.815 196.847C99.721 197.895 98.5798 198.705 97.3911 199.276C96.25 199.847 95.2277 200.133 94.3243 200.133Z" fill="black"/>
<path d="M212.179 339.047C211.868 339.047 211.654 338.912 211.537 338.642C211.381 338.218 211.167 337.639 210.895 336.906C210.622 336.212 210.388 335.614 210.194 335.113L202.076 309.366L207.157 309.193L212.588 329.269C212.627 329.423 212.724 329.52 212.88 329.558C213.075 329.597 213.192 329.481 213.231 329.211L220.881 294.265C220.959 293.918 221.057 293.648 221.173 293.455C221.329 293.262 221.524 293.166 221.757 293.166H229.525C229.603 294.015 229.564 294.882 229.408 295.77C229.291 296.618 229.077 297.486 228.766 298.373L223.101 298.315C222.867 298.315 222.672 298.354 222.517 298.431C222.361 298.508 222.244 298.701 222.166 299.01L214.223 333.782C214.185 333.975 214.087 334.341 213.931 334.881C213.815 335.421 213.659 336 213.464 336.617C213.27 337.234 213.055 337.774 212.822 338.237C212.783 338.353 212.686 338.507 212.53 338.7C212.413 338.931 212.296 339.047 212.179 339.047Z" fill="black"/>
<path d="M149.43 396.482C148.343 396.482 147.307 396.242 146.322 395.762C145.371 395.316 144.589 394.665 143.978 393.808C143.4 392.986 143.112 391.992 143.112 390.826C143.112 389.661 143.383 388.615 143.927 387.69C144.47 386.799 145.167 386.079 146.016 385.531C146.899 385.016 147.799 384.759 148.717 384.759C149.872 384.759 150.721 385.016 151.264 385.531C151.808 386.045 152.08 386.696 152.08 387.484C152.08 388.238 151.859 388.838 151.417 389.284C150.976 389.764 150.466 390.004 149.889 390.004C149.549 390.004 149.26 389.935 149.022 389.798C148.785 389.661 148.581 389.507 148.411 389.335C148.207 389.164 148.003 388.992 147.799 388.821C147.596 388.65 147.358 388.564 147.086 388.564C146.678 388.564 146.271 388.77 145.863 389.181C145.456 389.627 145.252 390.295 145.252 391.186C145.252 392.18 145.693 393.003 146.577 393.654C147.494 394.34 148.513 394.682 149.634 394.682C150.483 394.682 151.281 394.46 152.029 394.014C152.81 393.568 153.455 392.797 153.965 391.7C154.474 390.638 154.729 389.198 154.729 387.382V376.79C154.729 376.516 154.678 376.242 154.576 375.968C154.508 375.659 154.338 375.505 154.067 375.505C151.791 375.505 149.634 375.231 147.596 374.682C145.591 374.134 143.825 373.311 142.296 372.214C140.768 371.083 139.562 369.678 138.679 367.998C137.796 366.285 137.354 364.262 137.354 361.931C137.354 358.709 138.101 356.104 139.596 354.116C141.091 352.094 143.214 350.62 145.965 349.695C148.717 348.769 151.995 348.307 155.799 348.307C156.75 348.307 157.718 348.324 158.703 348.358C159.723 348.392 160.623 348.444 161.404 348.512C162.185 348.547 162.695 348.581 162.933 348.615C163.204 348.649 163.391 348.769 163.493 348.975C163.629 349.181 163.697 349.403 163.697 349.643C163.697 349.883 163.629 350.209 163.493 350.62C163.357 350.997 163.187 351.186 162.984 351.186C162.848 351.186 162.236 351.049 161.149 350.775C160.096 350.5 158.924 350.363 157.633 350.363C157.396 350.363 157.175 350.466 156.971 350.672C156.801 350.843 156.716 351.049 156.716 351.289V387.382C156.716 389.541 156.343 391.289 155.595 392.626C154.882 393.963 153.965 394.939 152.844 395.556C151.757 396.173 150.619 396.482 149.43 396.482Z" fill="black"/>
<path d="M137.643 316.496C137.405 316.496 137.168 316.425 136.93 316.282C136.74 316.139 136.645 315.973 136.645 315.782C136.645 315.592 136.668 315.258 136.716 314.782C136.811 314.306 136.977 313.877 137.215 313.497C137.453 313.068 137.809 312.854 138.285 312.854H168.098C168.288 312.854 168.478 312.925 168.668 313.068C168.858 313.211 168.953 313.377 168.953 313.568C168.953 314.235 168.763 314.901 168.383 315.568C168.003 316.187 167.479 316.496 166.814 316.496H137.643ZM152.621 328.21C151.717 328.21 150.933 327.877 150.267 327.211C149.601 326.544 149.269 325.758 149.269 324.853C149.269 323.901 149.601 323.115 150.267 322.496C150.933 321.83 151.717 321.496 152.621 321.496C153.572 321.496 154.356 321.83 154.974 322.496C155.64 323.115 155.973 323.901 155.973 324.853C155.973 325.758 155.64 326.544 154.974 327.211C154.356 327.877 153.572 328.21 152.621 328.21ZM152.549 307.854C151.646 307.854 150.861 307.52 150.196 306.854C149.53 306.187 149.197 305.401 149.197 304.497C149.197 303.544 149.53 302.759 150.196 302.14C150.861 301.473 151.646 301.14 152.549 301.14C153.5 301.14 154.285 301.473 154.903 302.14C155.569 302.759 155.902 303.544 155.902 304.497C155.902 305.401 155.569 306.187 154.903 306.854C154.285 307.52 153.5 307.854 152.549 307.854Z" fill="black"/>
<path d="M154.142 31.7136C153.809 31.7136 153.524 31.5231 153.286 31.1422C153.096 30.7136 152.953 29.9755 152.858 28.9279C152.668 26.8804 152.454 24.6661 152.216 22.2852C151.979 19.8567 151.765 17.452 151.574 15.0711C151.432 12.6902 151.289 10.5236 151.147 8.57124C151.051 6.6189 151.004 5.07132 151.004 3.92849C151.004 2.88089 151.313 1.97615 151.931 1.21426C152.597 0.404753 153.405 0 154.356 0C155.307 0 156.068 0.404753 156.638 1.21426C157.256 1.97615 157.566 2.88089 157.566 3.92849C157.566 5.07132 157.494 6.6189 157.352 8.57124C157.209 10.5236 157.019 12.6902 156.781 15.0711C156.591 17.452 156.377 19.8567 156.139 22.2852C155.901 24.7137 155.664 26.928 155.426 28.9279C155.378 29.6898 155.236 30.3565 154.998 30.9279C154.808 31.4517 154.522 31.7136 154.142 31.7136ZM154.285 47.3561C153.096 47.3561 152.074 46.9513 151.218 46.1418C150.41 45.2847 150.005 44.2609 150.005 43.0705C150.005 41.88 150.41 40.8801 151.218 40.0705C152.074 39.2134 153.096 38.7849 154.285 38.7849C155.473 38.7849 156.472 39.2134 157.28 40.0705C158.136 40.8801 158.564 41.88 158.564 43.0705C158.564 44.2609 158.136 45.2847 157.28 46.1418C156.472 46.9513 155.473 47.3561 154.285 47.3561Z" fill="black"/>
<path d="M136.33 252.886C134.623 252.886 133.201 252.353 132.063 251.287C130.925 250.179 130.051 248.805 129.441 247.164C128.872 245.523 128.588 243.841 128.588 242.118C128.588 240.272 128.933 238.529 129.624 236.888C130.356 235.206 131.392 233.852 132.733 232.827C134.074 231.76 135.639 231.227 137.427 231.227C139.094 231.227 140.475 231.74 141.573 232.765C142.711 233.75 143.564 235.022 144.133 236.58C144.743 238.139 145.048 239.76 145.048 241.441C145.048 243.287 144.702 245.092 144.011 246.856C143.361 248.62 142.386 250.076 141.085 251.225C139.785 252.333 138.2 252.886 136.33 252.886ZM137.001 251.533C138.342 251.533 139.317 251.04 139.927 250.056C140.577 249.071 140.983 247.861 141.146 246.426C141.309 244.949 141.39 243.534 141.39 242.18C141.39 240.785 141.288 239.37 141.085 237.934C140.882 236.498 140.455 235.288 139.805 234.304C139.155 233.278 138.139 232.765 136.757 232.765C135.497 232.765 134.542 233.237 133.892 234.181C133.241 235.083 132.794 236.211 132.55 237.565C132.347 238.878 132.246 240.17 132.246 241.441C132.246 242.549 132.286 243.698 132.368 244.887C132.489 246.036 132.693 247.123 132.977 248.148C133.302 249.133 133.77 249.953 134.379 250.61C135.03 251.225 135.903 251.533 137.001 251.533ZM158.276 229.196C158.561 228.745 158.886 228.458 159.252 228.335C159.658 228.212 160.125 228.15 160.654 228.15C160.857 228.15 161.04 228.232 161.202 228.397C161.406 228.561 161.507 228.745 161.507 228.95C161.507 229.073 161.487 229.155 161.446 229.196L134.745 271.962C134.501 272.372 134.176 272.618 133.77 272.7C133.404 272.823 132.997 272.884 132.55 272.884C132.307 272.884 132.063 272.802 131.819 272.638C131.616 272.474 131.514 272.31 131.514 272.146C131.514 272.064 131.534 272.003 131.575 271.962L158.276 229.196ZM157.667 270.116C155.96 270.116 154.537 269.582 153.399 268.516C152.261 267.408 151.388 266.034 150.778 264.393C150.209 262.752 149.925 261.07 149.925 259.347C149.925 257.501 150.27 255.758 150.961 254.117C151.692 252.435 152.729 251.081 154.07 250.056C155.411 248.989 156.976 248.456 158.764 248.456C160.43 248.456 161.812 248.969 162.909 249.994C164.047 250.979 164.901 252.251 165.47 253.809C166.079 255.368 166.384 256.989 166.384 258.67C166.384 260.516 166.039 262.321 165.348 264.085C164.698 265.849 163.722 267.306 162.422 268.454C161.121 269.562 159.536 270.116 157.667 270.116ZM158.337 268.762C159.678 268.762 160.654 268.27 161.263 267.285C161.914 266.301 162.32 265.09 162.483 263.655C162.645 262.178 162.727 260.763 162.727 259.409C162.727 258.014 162.625 256.599 162.422 255.163C162.219 253.727 161.792 252.517 161.142 251.533C160.491 250.507 159.475 249.994 158.093 249.994C156.834 249.994 155.878 250.466 155.228 251.41C154.578 252.312 154.131 253.44 153.887 254.794C153.684 256.107 153.582 257.399 153.582 258.67C153.582 259.778 153.623 260.927 153.704 262.116C153.826 263.265 154.029 264.352 154.314 265.378C154.639 266.362 155.106 267.182 155.716 267.839C156.366 268.454 157.24 268.762 158.337 268.762Z" fill="black"/>
<path d="M129.511 200.398C129.215 200.398 128.956 200.362 128.734 200.289C128.549 200.217 128.457 200.109 128.457 199.964C128.457 199.819 128.512 199.675 128.623 199.53C128.734 199.386 128.993 199.295 129.4 199.259C130.289 199.15 131.01 198.897 131.565 198.5C132.158 198.066 132.454 197.451 132.454 196.656V181.959C132.454 181.236 132.324 180.802 132.065 180.657C131.806 180.512 131.288 180.44 130.511 180.44H128.457C127.865 180.44 127.291 180.621 126.736 180.982C126.181 181.344 125.774 181.742 125.515 182.176C125.404 182.356 125.2 182.609 124.904 182.935C124.608 183.26 124.312 183.423 124.016 183.423C123.942 183.423 123.849 183.387 123.738 183.314C123.627 183.206 123.572 183.098 123.572 182.989C123.572 182.881 123.59 182.772 123.627 182.664C123.701 182.555 123.757 182.447 123.794 182.338C124.127 181.724 124.367 181.109 124.515 180.494C124.663 179.88 124.793 179.229 124.904 178.542C124.978 178.18 125.108 177.982 125.293 177.945C125.478 177.873 125.607 177.837 125.681 177.837C125.755 177.837 125.885 177.909 126.07 178.054C126.292 178.162 126.458 178.307 126.569 178.488C126.717 178.705 127.05 178.885 127.569 179.03C128.124 179.175 128.642 179.247 129.123 179.247H140.836C141.354 179.247 141.872 179.175 142.39 179.03C142.945 178.849 143.297 178.65 143.445 178.433C143.63 178.18 143.815 178.054 144 178.054C144.185 178.054 144.388 178.054 144.611 178.054C144.685 178.054 144.777 178.108 144.888 178.217C144.999 178.325 145.055 178.452 145.055 178.596C145.055 178.705 145.055 178.813 145.055 178.922C145.055 179.03 145.036 179.157 144.999 179.301C144.925 179.916 144.796 180.494 144.611 181.037C144.463 181.579 144.407 182.103 144.444 182.609C144.444 182.79 144.37 182.989 144.222 183.206C144.074 183.387 143.907 183.459 143.722 183.423C143.5 183.387 143.352 183.242 143.278 182.989C143.204 182.736 143.13 182.537 143.056 182.392C142.945 182.176 142.834 181.922 142.723 181.633C142.612 181.308 142.372 181.037 142.002 180.82C141.668 180.567 141.113 180.44 140.336 180.44C139.411 180.44 138.671 180.458 138.116 180.494C137.561 180.494 137.117 180.512 136.783 180.549C136.524 180.585 136.321 180.693 136.173 180.874C136.062 181.019 136.006 181.236 136.006 181.525V196.656C136.006 197.451 136.265 198.048 136.783 198.445C137.302 198.843 138.005 199.096 138.893 199.205C139.3 199.241 139.596 199.349 139.781 199.53C139.966 199.675 140.059 199.819 140.059 199.964C140.059 200.109 139.948 200.217 139.726 200.289C139.541 200.362 139.3 200.398 139.004 200.398C138.486 200.398 137.986 200.398 137.505 200.398C137.024 200.362 136.524 200.344 136.006 200.344C135.488 200.344 134.915 200.344 134.285 200.344C133.656 200.344 133.083 200.344 132.565 200.344C132.046 200.344 131.547 200.362 131.066 200.398C130.585 200.398 130.067 200.398 129.511 200.398ZM162.541 200.506C162.282 199.928 161.875 199.042 161.319 197.849C160.801 196.62 160.191 195.246 159.488 193.727C158.784 192.173 158.026 190.564 157.212 188.9C156.434 187.237 155.676 185.683 154.936 184.236C154.825 184.019 154.732 183.947 154.658 184.019C154.621 184.092 154.584 184.254 154.547 184.508L153.548 194.92C153.4 196.692 153.492 197.831 153.825 198.337C154.195 198.807 154.788 199.096 155.602 199.205C156.009 199.241 156.305 199.349 156.49 199.53C156.675 199.675 156.767 199.819 156.767 199.964C156.767 200.109 156.656 200.217 156.434 200.289C156.249 200.362 156.009 200.398 155.713 200.398C155.343 200.398 154.954 200.398 154.547 200.398C154.177 200.398 153.788 200.398 153.381 200.398C153.011 200.398 152.623 200.398 152.216 200.398C151.697 200.398 151.161 200.398 150.606 200.398C150.088 200.398 149.57 200.398 149.051 200.398C148.348 200.398 147.997 200.253 147.997 199.964C147.997 199.819 148.089 199.675 148.274 199.53C148.496 199.386 148.811 199.277 149.218 199.205C149.847 199.096 150.365 198.771 150.772 198.229C151.216 197.686 151.512 196.565 151.66 194.866L152.882 183.152C152.956 182.356 152.826 181.796 152.493 181.471C152.16 181.109 151.494 180.765 150.495 180.44C150.014 180.259 149.718 180.115 149.607 180.006C149.533 179.862 149.496 179.717 149.496 179.572C149.496 179.247 149.773 179.084 150.328 179.084H155.213C155.805 179.084 156.212 179.157 156.434 179.301C156.693 179.41 156.842 179.59 156.879 179.844C157.064 180.603 157.267 181.254 157.489 181.796C157.748 182.338 158.044 182.917 158.377 183.531C159.34 185.231 160.246 187.075 161.097 189.063C161.949 191.016 162.837 192.823 163.762 194.486C163.947 194.776 164.095 194.938 164.206 194.975C164.317 195.011 164.447 194.884 164.595 194.595L171.2 181.416C171.496 180.874 171.719 180.35 171.867 179.844C172.015 179.337 172.218 179.084 172.477 179.084H177.917C177.991 179.084 178.158 179.12 178.417 179.193C178.676 179.265 178.805 179.392 178.805 179.572C178.805 179.789 178.731 179.952 178.583 180.06C178.472 180.169 178.232 180.277 177.862 180.386C177.048 180.639 176.4 180.91 175.919 181.199C175.475 181.489 175.271 181.977 175.308 182.664L175.808 197.307C175.845 197.994 176.085 198.464 176.53 198.717C176.974 198.934 177.64 199.096 178.528 199.205C178.935 199.241 179.231 199.349 179.416 199.53C179.601 199.675 179.694 199.819 179.694 199.964C179.694 200.109 179.583 200.217 179.361 200.289C179.176 200.362 178.935 200.398 178.639 200.398C178.195 200.398 177.732 200.398 177.251 200.398C176.807 200.362 176.344 200.344 175.863 200.344C175.419 200.344 174.975 200.344 174.531 200.344C174.05 200.344 173.569 200.344 173.088 200.344C172.607 200.344 172.126 200.362 171.645 200.398C171.2 200.398 170.738 200.398 170.257 200.398C169.554 200.398 169.202 200.253 169.202 199.964C169.202 199.819 169.295 199.675 169.48 199.53C169.702 199.349 170.016 199.241 170.423 199.205C171.126 199.132 171.608 198.988 171.867 198.771C172.163 198.518 172.292 198.012 172.255 197.252L171.922 184.019C171.922 183.658 171.867 183.495 171.756 183.531C171.645 183.568 171.515 183.73 171.367 184.019L162.985 200.506C162.911 200.651 162.837 200.741 162.763 200.777C162.689 200.777 162.615 200.687 162.541 200.506Z" fill="black"/>
<path d="M22.5107 100C22.36 100 22.1904 99.9067 22.0019 99.72C21.8512 99.5707 21.7758 99.384 21.7758 99.16V87.512C21.7758 87.2507 21.6628 87.12 21.4366 87.12H9.84795C9.62183 87.12 9.41455 87.0453 9.22612 86.896C9.07537 86.7467 9 86.5973 9 86.448C9 86.224 9.03769 85.9253 9.11306 85.552C9.22612 85.1787 9.37687 84.8427 9.5653 84.544C9.79142 84.2453 10.0929 84.096 10.4698 84.096H21.2671C21.5309 84.096 21.6816 84.0587 21.7193 83.984C21.757 83.872 21.7758 83.7227 21.7758 83.536V73.792C21.7758 73.3813 21.9454 73.0453 22.2846 72.784C22.6615 72.5227 23.0572 72.336 23.4717 72.224C23.924 72.0747 24.2443 72 24.4327 72C24.6212 72 24.7908 72.0933 24.9415 72.28C25.13 72.4667 25.2242 72.672 25.2242 72.896V83.648C25.2242 83.9467 25.3184 84.096 25.5068 84.096H37.0955C37.3216 84.096 37.5289 84.152 37.7173 84.264C37.9058 84.376 38 84.544 38 84.768C38 85.2533 37.8304 85.776 37.4912 86.336C37.152 86.8587 36.7186 87.12 36.191 87.12H25.6199C25.3561 87.12 25.2242 87.232 25.2242 87.456V98.6C25.2242 98.9733 25.0357 99.272 24.6589 99.496C24.282 99.6827 23.8674 99.8133 23.4152 99.888C23.0006 99.9627 22.6992 100 22.5107 100Z" fill="black"/>
<path d="M141.541 146C141.18 146 141 145.819 141 145.457C141 144.319 141.129 143.311 141.386 142.432C141.644 141.553 141.979 141.088 142.391 141.036C144.966 140.622 147.592 140.235 150.27 139.873C152.948 139.511 155.575 139.226 158.15 139.019C158.459 138.968 158.665 139.019 158.768 139.175C158.923 139.278 159 139.459 159 139.717C159 140.855 158.871 141.812 158.614 142.587C158.408 143.363 157.996 143.802 157.378 143.906C154.906 144.319 152.33 144.707 149.652 145.069C146.974 145.431 144.27 145.741 141.541 146Z" fill="black"/>
<path d="M148.685 107C148.279 107 147.905 106.869 147.562 106.608C147.25 106.38 147.094 106.07 147.094 105.678C147.094 105.613 147.156 105.498 147.281 105.335C147.437 105.172 147.577 104.992 147.702 104.797C147.858 104.633 147.952 104.535 147.983 104.503C148.67 103.654 149.34 102.43 149.996 100.83C150.651 99.2633 151.244 97.4679 151.774 95.444C152.305 93.42 152.726 91.3308 153.038 89.1763C153.382 87.0218 153.553 84.9325 153.553 82.9086C153.553 80.1338 153.257 77.5386 152.664 75.123C152.071 72.6746 151.338 70.5038 150.464 68.6104C149.59 66.7171 148.685 65.2155 147.749 64.1055C147.718 64.0729 147.64 63.975 147.515 63.8118C147.421 63.6159 147.312 63.4363 147.187 63.2731C147.062 63.1099 147 62.9956 147 62.9304C147 62.6692 147.156 62.457 147.468 62.2938C147.811 62.0979 148.092 62 148.311 62C148.591 62 148.872 62.0653 149.153 62.1959C149.465 62.2938 149.699 62.4407 149.855 62.6366C150.698 63.518 151.587 64.7095 152.523 66.2111C153.46 67.6801 154.333 69.3449 155.145 71.2057C155.987 73.0664 156.674 75.0413 157.204 77.1306C157.735 79.2198 158 81.309 158 83.3983C158 85.0305 157.813 86.7769 157.438 88.6377C157.095 90.4657 156.611 92.2938 155.987 94.1219C155.394 95.9499 154.723 97.6801 153.974 99.3123C153.257 100.945 152.523 102.397 151.774 103.67C151.026 104.943 150.323 105.923 149.668 106.608C149.387 106.869 149.06 107 148.685 107Z" fill="black"/>
<path d="M211 85.963C209.917 85.963 208.979 85.572 208.188 84.7901C207.396 84.0082 207 83.0823 207 82.0123C207 80.8601 207.396 79.9136 208.188 79.1728C208.979 78.3909 209.917 78 211 78C212.125 78 213.063 78.3909 213.813 79.1728C214.604 79.9136 215 80.8601 215 82.0123C215 83.0823 214.604 84.0082 213.813 84.7901C213.063 85.572 212.125 85.963 211 85.963ZM211 103C209.917 103 208.979 102.609 208.188 101.827C207.396 101.045 207 100.119 207 99.0494C207 97.8971 207.396 96.9506 208.188 96.2099C208.979 95.428 209.917 95.037 211 95.037C212.125 95.037 213.063 95.428 213.813 96.2099C214.604 96.9506 215 97.8971 215 99.0494C215 100.119 214.604 101.045 213.813 101.827C213.063 102.609 212.125 103 211 103Z" fill="black"/>
<path d="M268.453 107C268.167 107 267.935 106.892 267.756 106.675C267.577 106.458 267.506 106.17 267.542 105.809L267.971 102.126C268.006 101.945 267.971 101.819 267.863 101.747C267.792 101.675 267.702 101.639 267.595 101.639C266.63 101.458 265.701 101.187 264.807 100.826C263.949 100.429 263.145 99.9597 262.394 99.4181C262.251 99.2737 262.108 99.1113 261.965 98.9307C261.822 98.7502 261.715 98.5516 261.643 98.335C261.393 97.5768 261.232 96.6381 261.161 95.5189C261.089 94.3997 261.036 93.3887 261 92.4861C261 92.0529 261.322 91.8363 261.965 91.8363C262.215 91.8363 262.412 91.8904 262.555 91.9987C262.698 92.0709 262.805 92.2154 262.877 92.432C263.377 94.2011 264.056 95.6453 264.914 96.7645C265.772 97.8476 266.737 98.6238 267.81 99.0932C267.917 99.1293 268.024 99.1474 268.131 99.1474C268.239 99.1113 268.292 99.021 268.292 98.8766L269.579 87.5579C269.615 87.3774 269.597 87.2149 269.525 87.0705C269.454 86.9261 269.275 86.7817 268.989 86.6373C267.81 85.9152 266.666 85.139 265.558 84.3086C264.485 83.4782 263.609 82.5214 262.93 81.4383C262.251 80.3191 261.912 79.0013 261.912 77.4849C261.912 75.8963 262.287 74.4341 263.038 73.0982C263.788 71.7624 264.878 70.6793 266.308 69.8489C267.738 68.9824 269.454 68.4769 271.456 68.3325C271.813 68.2964 271.992 68.17 271.992 67.9534L272.367 64.9748C272.403 64.6138 272.582 64.361 272.903 64.2166C273.225 64.0722 273.601 64 274.029 64C274.244 64 274.423 64.1083 274.566 64.3249C274.709 64.5416 274.78 64.7762 274.78 65.029C274.744 65.2095 274.691 65.4983 274.619 65.8955C274.584 66.2926 274.548 66.6898 274.512 67.0869C274.476 67.484 274.441 67.7909 274.405 68.0076C274.405 68.2242 274.53 68.3505 274.78 68.3866C275.531 68.5311 276.228 68.7116 276.871 68.9282C277.515 69.1448 278.051 69.3615 278.48 69.5781C278.802 69.6503 279.052 69.8128 279.231 70.0655C279.409 70.2821 279.534 70.5529 279.606 70.8778C279.785 71.5638 279.981 72.3762 280.196 73.3149C280.41 74.2175 280.517 75.1201 280.517 76.0227C280.517 76.2032 280.428 76.3476 280.249 76.4559C280.106 76.5281 279.928 76.5642 279.713 76.5642C279.391 76.5642 279.088 76.5101 278.802 76.4018C278.516 76.2573 278.337 76.0949 278.265 75.9144C277.765 74.5785 277.193 73.4954 276.55 72.665C275.906 71.8346 275.138 71.2389 274.244 70.8778C274.065 70.8778 273.976 70.9681 273.976 71.1486L272.796 81.0592C272.761 81.3119 272.778 81.4924 272.85 81.6008C272.957 81.7091 273.243 81.9257 273.708 82.2506C275.102 83.081 276.335 83.9475 277.408 84.8501C278.516 85.7166 279.391 86.7275 280.035 87.8829C280.678 89.0382 281 90.4102 281 91.9987C281 94.8871 280.071 97.1977 278.212 98.9307C276.353 100.664 273.869 101.62 270.759 101.801C270.508 101.801 270.366 101.909 270.33 102.126L269.847 106.242C269.811 106.495 269.651 106.675 269.365 106.783C269.079 106.928 268.775 107 268.453 107ZM271.134 99.5264C272.6 99.382 273.744 98.8405 274.566 97.9018C275.424 96.9631 275.853 95.7716 275.853 94.3275C275.853 92.8472 275.531 91.7099 274.887 90.9156C274.28 90.0852 273.404 89.2909 272.26 88.5327C272.01 88.3883 271.885 88.4786 271.885 88.8035L270.651 98.9849C270.651 99.3459 270.812 99.5264 271.134 99.5264ZM270.115 79.9219C270.401 80.1024 270.544 80.0844 270.544 79.8678L271.563 71.0403C271.599 70.7154 271.474 70.5709 271.188 70.6071C269.972 70.7515 268.954 71.1847 268.131 71.9068C267.345 72.6289 266.952 73.8203 266.952 75.4811C266.952 76.3476 267.238 77.1419 267.81 77.864C268.382 78.55 269.15 79.2359 270.115 79.9219Z" fill="black"/>
<path d="M9.76986 139.749C9.58656 139.749 9.40326 139.678 9.21996 139.537C9.07332 139.396 9 139.256 9 139.115C9 138.938 9.03666 138.692 9.10998 138.374C9.21996 138.022 9.3666 137.705 9.5499 137.423C9.7332 137.141 10.0081 137 10.3747 137H35.0652C35.3218 137 35.5418 137.07 35.7251 137.211C35.9084 137.317 36 137.476 36 137.687C36 138.04 35.8167 138.48 35.4501 139.009C35.0835 139.502 34.6802 139.749 34.2403 139.749H9.76986ZM9.76986 149C9.58656 149 9.40326 148.93 9.21996 148.789C9.07332 148.648 9 148.507 9 148.366C9 148.154 9.03666 147.89 9.10998 147.573C9.21996 147.22 9.3666 146.921 9.5499 146.674C9.7332 146.392 10.0081 146.251 10.3747 146.251H35.0652C35.3218 146.251 35.5418 146.304 35.7251 146.41C35.9084 146.515 36 146.674 36 146.885C36 147.344 35.8167 147.819 35.4501 148.313C35.0835 148.771 34.6802 149 34.2403 149H9.76986Z" fill="black"/>
<path d="M79.5028 149C79.1676 149 79 148.796 79 148.388C79 148.265 79.0186 148.102 79.0559 147.898C79.0931 147.694 79.149 147.469 79.2235 147.224C79.4842 146.449 79.8753 145.469 80.3967 144.286C80.9554 143.102 81.4954 141.939 82.0168 140.796C82.5755 139.653 83.0038 138.796 83.3018 138.224C83.5253 137.816 83.786 137.51 84.0839 137.306C84.4191 137.102 84.773 137 85.1454 137C85.9275 137 86.6166 137.102 87.2125 137.306C87.8084 137.51 88.1064 137.857 88.1064 138.347C88.1064 138.592 88.0505 138.816 87.9388 139.02C87.8643 139.184 87.7339 139.408 87.5477 139.694C86.989 140.469 86.3186 141.367 85.5365 142.388C84.7916 143.408 84.0094 144.408 83.19 145.388C82.4079 146.367 81.7189 147.184 81.123 147.837C80.4153 148.612 79.8753 149 79.5028 149Z" fill="black"/>
<path d="M91.3964 149C91.0612 149 90.8936 148.796 90.8936 148.388C90.8936 148.265 90.9123 148.102 90.9495 147.898C90.9867 147.694 91.0426 147.469 91.1171 147.224C91.3778 146.449 91.7689 145.469 92.2903 144.286C92.849 143.102 93.389 141.939 93.9105 140.796C94.4691 139.653 94.8975 138.796 95.1954 138.224C95.4189 137.816 95.6796 137.51 95.9776 137.306C96.3128 137.102 96.6666 137 97.039 137C97.8212 137 98.5102 137.102 99.1061 137.306C99.702 137.51 100 137.857 100 138.347C100 138.592 99.9441 138.816 99.8324 139.02C99.7579 139.184 99.6276 139.408 99.4413 139.694C98.8827 140.469 98.2122 141.367 97.4301 142.388C96.6852 143.408 95.9031 144.408 95.0837 145.388C94.3015 146.367 93.6125 147.184 93.0166 147.837C92.3089 148.612 91.7689 149 91.3964 149Z" fill="black"/>
<path d="M88.6332 93.0533C88.4273 93.0533 88.1596 92.8874 87.8301 92.5556C87.5006 92.1822 87.2535 91.7259 87.0888 91.1867C86.8417 90.523 86.574 89.797 86.2857 89.0089C86.0386 88.1793 85.9151 87.1007 85.9151 85.7733C85.9151 84.5704 86.4916 83.5126 87.6448 82.6C88.7979 81.6874 90.4247 80.7126 92.5251 79.6756C93.5135 79.1778 94.399 78.5556 95.1815 77.8089C95.964 77.0207 96.3552 76.1289 96.3552 75.1333C96.3552 73.3496 95.861 71.9185 94.8726 70.84C93.8842 69.72 92.4839 69.16 90.6718 69.16C90.1776 69.16 89.7658 69.2015 89.4363 69.2844C89.148 69.3259 88.9009 69.3881 88.695 69.4711C88.4479 69.5126 88.1802 69.5541 87.8919 69.5956C87.6448 69.637 87.3565 69.6578 87.027 69.6578C86.5328 69.6578 86.0592 69.4504 85.6062 69.0356C85.1532 68.5793 84.7619 68.04 84.4324 67.4178C84.1441 66.7541 84 66.1319 84 65.5511C84 64.8874 84.3295 64.3067 84.9884 63.8089C85.6885 63.2696 86.4093 63 87.1506 63C88.3861 63 89.6628 63.3111 90.9807 63.9333C92.2986 64.5556 93.5135 65.4474 94.6255 66.6089C95.7375 67.7289 96.6847 68.9941 97.4672 70.4044C98.2909 71.7733 98.9086 73.1422 99.3205 74.5111C99.7735 75.88 100 77.1244 100 78.2444C100 79.8207 99.7117 81.0444 99.1351 81.9156C98.5586 82.7867 97.9408 83.3881 97.2819 83.72C96.4582 84.1348 95.7786 84.5081 95.2432 84.84C94.7079 85.1719 94.1725 85.483 93.6371 85.7733C93.1429 86.0637 92.5663 86.437 91.9073 86.8933C91.0013 87.3911 90.4247 88.0341 90.1776 88.8222C89.9717 89.6104 89.8275 90.5437 89.7452 91.6222C89.7452 91.9541 89.6422 92.2859 89.4363 92.6178C89.2716 92.9081 89.0039 93.0533 88.6332 93.0533ZM89.1892 105C88.1184 105 87.1918 104.606 86.4093 103.818C85.6268 103.03 85.2355 102.096 85.2355 101.018C85.2355 99.8978 85.6268 98.9437 86.4093 98.1556C87.1918 97.3674 88.1184 96.9733 89.1892 96.9733C90.3012 96.9733 91.2484 97.3674 92.0309 98.1556C92.8134 98.9437 93.2046 99.8978 93.2046 101.018C93.2046 102.096 92.8134 103.03 92.0309 103.818C91.2484 104.606 90.3012 105 89.1892 105Z" fill="black"/>
<path d="M214.404 271H207.221C206.939 271 206.673 270.939 206.423 270.818C206.172 270.727 206.047 270.53 206.047 270.227C206.047 269.955 206.188 269.758 206.469 269.636C206.782 269.515 207.111 269.424 207.455 269.364L211.117 268.818C211.399 268.758 211.634 268.591 211.822 268.318C212.009 268.076 212.103 267.788 212.103 267.455V232.955C212.103 232.712 211.994 232.47 211.775 232.227C211.556 231.985 211.336 231.848 211.117 231.818L207.362 231.455C207.08 231.424 206.782 231.364 206.469 231.273C206.156 231.152 206 230.955 206 230.682C206 230.409 206.094 230.242 206.282 230.182C206.501 230.091 206.72 230.045 206.939 230.045L214.169 230C214.67 230 215.045 230.03 215.296 230.091C215.577 230.152 215.765 230.303 215.859 230.545C215.953 230.788 216 231.227 216 231.864V269.455C216 269.97 215.953 270.333 215.859 270.545C215.765 270.758 215.609 270.879 215.39 270.909C215.171 270.97 214.842 271 214.404 271Z" fill="black"/>
<path d="M270 150C268.923 150 267.923 149.683 267 149.05C266.077 148.417 265.338 147.6 264.785 146.6C264.262 145.567 264 144.483 264 143.35C264 142.183 264.262 141.133 264.785 140.2C265.338 139.233 266.077 138.467 267 137.9C267.923 137.3 268.923 137 270 137C271.108 137 272.108 137.283 273 137.85C273.923 138.417 274.646 139.183 275.169 140.15C275.723 141.083 276 142.117 276 143.25C276 144.383 275.723 145.467 275.169 146.5C274.646 147.533 273.923 148.383 273 149.05C272.108 149.683 271.108 150 270 150ZM270 147.6C271.015 147.6 271.877 147.2 272.585 146.4C273.292 145.6 273.646 144.633 273.646 143.5C273.646 142.367 273.292 141.417 272.585 140.65C271.877 139.85 271.015 139.45 270 139.45C269.015 139.45 268.154 139.85 267.415 140.65C266.708 141.417 266.354 142.367 266.354 143.5C266.354 144.633 266.708 145.6 267.415 146.4C268.154 147.2 269.015 147.6 270 147.6Z" fill="black"/>
</svg>
